<svg xmlns="http://www.w3.org/2000/svg" xmlns:xlink="http://www.w3.org/1999/xlink" width="961.86" height="666.045" viewBox="0 0 961.86 666.045">
  <defs>
    <linearGradient id="linear-gradient" x1="0.5" y1="1" x2="0.5" gradientUnits="objectBoundingBox">
      <stop offset="0" stop-color="gray" stop-opacity="0.251"/>
      <stop offset="0.54" stop-color="gray" stop-opacity="0.122"/>
      <stop offset="1" stop-color="gray" stop-opacity="0.102"/>
    </linearGradient>
    <linearGradient id="linear-gradient-2" x1="3.193" x2="3.193" y2="0" xlink:href="#linear-gradient"/>
  </defs>
  <g id="Group_1308" data-name="Group 1308" transform="translate(-305.14 -198.648)">
    <path id="Path_358" data-name="Path 358" d="M665.885,155.158c-61.663-2.144-120.392-22.047-176.471-43.827S377.788,65.417,317.563,53.879c-38.673-7.422-82.948-8.47-114.141,12.272C173.41,86.159,163.71,120.6,158.5,152.586c-3.925,24.076-6.231,49.4,4.516,71.934,7.47,15.644,20.713,28.793,29.879,43.827,31.889,52.135,9.347,116.428-25.2,167.335-16.2,23.876-35.014,46.686-47.524,72.086s-18.293,54.546-7.346,80.471c10.842,25.725,36.691,45.009,64.693,58.6,56.871,27.573,123.86,35.471,189.229,39.94,144.659,9.9,290.079,5.612,435.119,1.324,53.679-1.591,107.586-3.2,160.389-11.5,29.326-4.611,59.6-11.929,80.88-29.536,27.03-22.419,33.728-60.386,15.616-88.493C1028.375,511.417,944.417,499.7,923.161,449.1c-11.681-27.849.314-58.881,17.3-84.71C976.9,308.963,1037.96,260.353,1041.171,197c2.211-43.5-27.144-87.073-72.534-107.663C921.065,67.761,855.086,70.476,820.005,106.2,783.848,142.9,720.336,157.045,665.885,155.158Z" transform="translate(198.104 149.631)" fill="#46b3e6" opacity="0.1"/>
    <g id="Group_1307" data-name="Group 1307" transform="translate(-28.058 -91.938)">
      <g id="onboarding" transform="translate(548.506 403.485)">
        <ellipse id="Ellipse_285" data-name="Ellipse 285" cx="80.037" cy="20.009" rx="80.037" ry="20.009" transform="translate(403.477 513.127)" fill="#1a7fc3" opacity="0.1"/>
        <path id="Path_1214" data-name="Path 1214" d="M898.083,780.837s-7.243-49.9,14.515-82.746a76.373,76.373,0,0,0,12.911-46.571,128.157,128.157,0,0,0-3.525-23.23" transform="translate(-400.414 -242.378)" fill="none" stroke="#535461" stroke-miterlimit="10" stroke-width="2"/>
        <path id="Path_1215" data-name="Path 1215" d="M943.4,592.722c-.836,5.868-13.9,21.364-13.9,21.364s-8.163-18.544-7.347-24.412a10.733,10.733,0,1,1,21.248,3.048Z" transform="translate(-408.188 -227.608)" fill="#1a7fc3"/>
        <path id="Path_1216" data-name="Path 1216" d="M961.2,640.918c-3.9,4.465-23.285,10.367-23.285,10.367s3.207-20.044,7.1-24.481A10.736,10.736,0,1,1,961.2,640.911Z" transform="translate(-413.071 -240.782)" fill="#1a7fc3"/>
        <path id="Path_1217" data-name="Path 1217" d="M947.678,719.816c-5.619,1.894-25.338-2.765-25.338-2.765s12.87-15.662,18.489-17.549a10.734,10.734,0,0,1,6.849,20.313Z" transform="translate(-408.262 -264.249)" fill="#1a7fc3"/>
        <path id="Path_1218" data-name="Path 1218" d="M924.392,778.591c-5.218,2.813-25.442,1.521-25.442,1.521s10.036-17.6,15.254-20.417a10.734,10.734,0,1,1,10.188,18.9Z" transform="translate(-401.039 -282.563)" fill="#1a7fc3"/>
        <path id="Path_1219" data-name="Path 1219" d="M904.4,653.168c3.622,4.693,22.629,11.75,22.629,11.75s-2.018-20.168-5.64-24.882A10.736,10.736,0,1,0,904.4,653.168Z" transform="translate(-402.029 -244.718)" fill="#1a7fc3"/>
        <path id="Path_1220" data-name="Path 1220" d="M877.067,720.97c4.838,3.394,25.1,4.43,25.1,4.43s-7.948-18.661-12.814-22.034a10.733,10.733,0,1,0-12.283,17.6Z" transform="translate(-392.862 -264.968)" fill="#1a7fc3"/>
        <path id="Path_1221" data-name="Path 1221" d="M861.323,791.877c4.216,4.147,23.99,8.605,23.99,8.605s-4.686-19.719-8.909-23.866a10.733,10.733,0,1,0-15.082,15.275Z" transform="translate(-388.432 -287.231)" fill="#1a7fc3"/>
        <path id="Path_1222" data-name="Path 1222" d="M943.4,592.722c-.836,5.868-13.9,21.364-13.9,21.364s-8.163-18.544-7.347-24.412a10.733,10.733,0,1,1,21.248,3.048Z" transform="translate(-408.188 -227.608)" opacity="0.25"/>
        <path id="Path_1223" data-name="Path 1223" d="M961.2,640.918c-3.9,4.465-23.285,10.367-23.285,10.367s3.207-20.044,7.1-24.481A10.736,10.736,0,1,1,961.2,640.911Z" transform="translate(-413.071 -240.782)" opacity="0.25"/>
        <path id="Path_1224" data-name="Path 1224" d="M947.678,719.816c-5.619,1.894-25.338-2.765-25.338-2.765s12.87-15.662,18.489-17.549a10.734,10.734,0,0,1,6.849,20.313Z" transform="translate(-408.262 -264.249)" opacity="0.25"/>
        <path id="Path_1225" data-name="Path 1225" d="M924.392,778.591c-5.218,2.813-25.442,1.521-25.442,1.521s10.036-17.6,15.254-20.417a10.734,10.734,0,1,1,10.188,18.9Z" transform="translate(-401.039 -282.563)" opacity="0.25"/>
        <path id="Path_1226" data-name="Path 1226" d="M904.4,653.168c3.622,4.693,22.629,11.75,22.629,11.75s-2.018-20.168-5.64-24.882A10.736,10.736,0,1,0,904.4,653.168Z" transform="translate(-402.029 -244.718)" opacity="0.25"/>
        <path id="Path_1227" data-name="Path 1227" d="M877.067,720.97c4.838,3.394,25.1,4.43,25.1,4.43s-7.948-18.661-12.814-22.034a10.733,10.733,0,1,0-12.283,17.6Z" transform="translate(-392.862 -264.968)" opacity="0.25"/>
        <path id="Path_1228" data-name="Path 1228" d="M861.323,791.877c4.216,4.147,23.99,8.605,23.99,8.605s-4.686-19.719-8.909-23.866a10.733,10.733,0,1,0-15.082,15.275Z" transform="translate(-388.432 -287.231)" opacity="0.25"/>
        <path id="Path_1229" data-name="Path 1229" d="M881.625,780.06s-26.845-42.686-20.23-81.557a76.373,76.373,0,0,0-7.043-47.794A128.2,128.2,0,0,0,841.71,630.9" transform="translate(-383.361 -243.184)" fill="none" stroke="#535461" stroke-miterlimit="10" stroke-width="2"/>
        <path id="Path_1230" data-name="Path 1230" d="M838.1,591.925c1.6,5.709-4.057,25.165-4.057,25.165s-15-13.63-16.588-19.353a10.737,10.737,0,0,1,20.666-5.833Z" transform="translate(-375.746 -228.725)" fill="#1a7fc3"/>
        <path id="Path_1231" data-name="Path 1231" d="M875.777,627.976c-1.749,5.661-17.079,18.917-17.079,18.917s-5.184-19.587-3.456-25.255a10.735,10.735,0,1,1,20.514,6.338Z" transform="translate(-387.431 -237.986)" fill="#1a7fc3"/>
        <path id="Path_1232" data-name="Path 1232" d="M895.214,704.311c-4.368,4-24.294,7.706-24.294,7.706s5.419-19.525,9.787-23.5a10.738,10.738,0,0,1,14.514,15.828Z" transform="translate(-392.382 -260.107)" fill="#1a7fc3"/>
        <path id="Path_1233" data-name="Path 1233" d="M898.453,767.709c-3.629,4.686-22.642,11.7-22.642,11.7s2.073-20.161,5.667-24.882a10.734,10.734,0,1,1,16.975,13.132Z" transform="translate(-393.892 -280.017)" fill="#1a7fc3"/>
        <path id="Path_1234" data-name="Path 1234" d="M826.958,662.985c5.211,2.827,25.435,1.562,25.435,1.562s-10.008-17.618-15.206-20.438a10.735,10.735,0,0,0-10.229,18.876Z" transform="translate(-377.069 -246.863)" fill="#1a7fc3"/>
        <path id="Path_1235" data-name="Path 1235" d="M829.329,736.036c5.82,1.133,24.744-6.117,24.744-6.117s-14.825-13.823-20.645-14.95a10.734,10.734,0,1,0-4.1,21.067Z" transform="translate(-376.779 -269.071)" fill="#1a7fc3"/>
        <path id="Path_1236" data-name="Path 1236" d="M844.01,807.339c5.529,2.074,25.421-1.859,25.421-1.859s-12.275-16.118-17.818-18.219a10.734,10.734,0,0,0-7.6,20.044Z" transform="translate(-382.094 -291.316)" fill="#1a7fc3"/>
        <path id="Path_1237" data-name="Path 1237" d="M285.63,57.83V545.419h350.7V57.83Z" transform="translate(-191.96 -57.83)" fill="url(#linear-gradient)"/>
        <rect id="Rectangle_318" data-name="Rectangle 318" width="344.546" height="18.585" transform="translate(96.745 4.278)" fill="#f6f7f9"/>
        <g id="Group_1301" data-name="Group 1301" transform="translate(96.745 4.278)" opacity="0.2">
          <rect id="Rectangle_319" data-name="Rectangle 319" width="344.546" height="18.585" fill="#1a7fc3"/>
        </g>
        <rect id="Rectangle_320" data-name="Rectangle 320" width="344.546" height="460.447" transform="translate(96.745 22.864)" fill="#f6f7f9"/>
        <circle id="Ellipse_286" data-name="Ellipse 286" cx="3.152" cy="3.152" r="3.152" transform="translate(102.655 10.423)" fill="#f6f7f9"/>
        <circle id="Ellipse_287" data-name="Ellipse 287" cx="3.152" cy="3.152" r="3.152" transform="translate(111.198 10.423)" fill="#f6f7f9"/>
        <circle id="Ellipse_288" data-name="Ellipse 288" cx="3.152" cy="3.152" r="3.152" transform="translate(119.74 10.423)" fill="#f6f7f9"/>
        <g id="Group_1302" data-name="Group 1302" transform="translate(158.238 51.25)" opacity="0.2">
          <rect id="Rectangle_321" data-name="Rectangle 321" width="221.553" height="8.674" fill="#1a7fc3"/>
        </g>
        <rect id="Rectangle_322" data-name="Rectangle 322" width="29.437" height="8.674" transform="translate(350.354 51.25)" fill="#1a7fc3"/>
        <g id="Group_1303" data-name="Group 1303" transform="translate(129.596 100.661)" opacity="0.2">
          <rect id="Rectangle_323" data-name="Rectangle 323" width="278.843" height="99.866" fill="#1a7fc3"/>
        </g>
        <rect id="Rectangle_324" data-name="Rectangle 324" width="160.841" height="8.674" transform="translate(207.85 137.058)" fill="#f6f7f9"/>
        <rect id="Rectangle_325" data-name="Rectangle 325" width="83.444" height="8.674" transform="translate(207.85 155.457)" fill="#f6f7f9"/>
        <rect id="Rectangle_326" data-name="Rectangle 326" width="29.437" height="8.674" transform="translate(350.354 181.735)" fill="#1a7fc3"/>
        <circle id="Ellipse_289" data-name="Ellipse 289" cx="15.765" cy="15.765" r="15.765" transform="translate(147.47 134.825)" fill="#f6f7f9"/>
        <g id="Group_1304" data-name="Group 1304" transform="translate(129.596 228.52)" opacity="0.2">
          <rect id="Rectangle_327" data-name="Rectangle 327" width="278.843" height="99.866" fill="#1a7fc3"/>
        </g>
        <rect id="Rectangle_328" data-name="Rectangle 328" width="160.841" height="8.674" transform="translate(207.85 264.916)" fill="#f6f7f9"/>
        <rect id="Rectangle_329" data-name="Rectangle 329" width="83.444" height="8.674" transform="translate(207.85 283.315)" fill="#f6f7f9"/>
        <rect id="Rectangle_330" data-name="Rectangle 330" width="29.437" height="8.674" transform="translate(350.354 309.593)" fill="#1a7fc3"/>
        <circle id="Ellipse_290" data-name="Ellipse 290" cx="15.765" cy="15.765" r="15.765" transform="translate(147.47 262.684)" fill="#f6f7f9"/>
        <g id="Group_1305" data-name="Group 1305" transform="translate(129.596 356.378)" opacity="0.2">
          <rect id="Rectangle_331" data-name="Rectangle 331" width="278.843" height="99.866" fill="#1a7fc3"/>
        </g>
        <rect id="Rectangle_332" data-name="Rectangle 332" width="160.841" height="8.674" transform="translate(207.85 392.775)" fill="#f6f7f9"/>
        <rect id="Rectangle_333" data-name="Rectangle 333" width="83.444" height="8.674" transform="translate(207.85 411.174)" fill="#f6f7f9"/>
        <rect id="Rectangle_334" data-name="Rectangle 334" width="29.437" height="8.674" transform="translate(350.354 437.452)" fill="#1a7fc3"/>
        <circle id="Ellipse_291" data-name="Ellipse 291" cx="15.765" cy="15.765" r="15.765" transform="translate(147.47 390.543)" fill="#f6f7f9"/>
        <path id="Path_1238" data-name="Path 1238" d="M187.848,383.522c-2.675,12.171-7.5,27.17-7.5,27.17,4.769,5.564,25.573,6.559,25.573,6.559l.035-.041h.325c.145.767.311,1.507.511,2.212q-.055,1.044-.1,2.115a5.772,5.772,0,0,0-.3,2.6,5.891,5.891,0,0,0,.152.581c-.5,11.017-.85,22.767-.546,29.554a28.441,28.441,0,0,0,.587,5.723,20.6,20.6,0,0,1,.608,4.389c.339,9.932-2.074,26.617-2.074,26.617s.062.228.1.346c-.041.283-.069.449-.069.449a7.871,7.871,0,0,1,.352,2.073c.18,8.377-4.624,26.6-4.624,26.6s-3.884,28.027-3.331,38.705a24.624,24.624,0,0,0,.187,2.55c1.189,8.882,2.765,33.68,2.765,33.68a11.137,11.137,0,0,0,.905,1.168c-.138.553-.3,1.113-.484,1.666A46.722,46.722,0,0,0,198.6,615.6c.048.691.1,1.445.173,2.2.795,9.151,22.933,3.456,24.391,2.391.5-.366.145-3.684-.539-7.893l22.808,5.633s16.173,2.391,23.866,0,7.423-8.985-3.58-10.07c-7.706-.746-13.823-7.921-16.844-12.158,1.168-3.186,9.925-27.37,11.536-42.341a211.938,211.938,0,0,1,5.108-28.7l1.721-22.276,3.055-13.132,3.642-17.362c4.112-12.731,5.37-34.012,5.37-34.012l3.179-20.88a40.424,40.424,0,0,0,.74-6.884,77.178,77.178,0,0,1,8.812,2.357c4.976-3.87-2.074-41.166-2.074-41.166s-3.394-23.555-6.269-45.029a44.006,44.006,0,0,1,13.727.56l41.767.919a21.231,21.231,0,0,0,2.239-3.649h1.79a3.835,3.835,0,0,0,.518-1.009l.74.138a61.774,61.774,0,0,1,7.99,2.426s13.174,1.59,11.183-12.227c-1.479-10.3-13.2-6.559-19.062-4l-.74.339c-.055-.387-.09-.608-.09-.608l-1.887.346a9.1,9.1,0,0,0-.394-.843s-20.486-.795-37.095-3.283c-11.812-1.769-20.735-8.522-24.93-12.268-2.91-14.77-11.363-19.256-11.363-19.256a25.294,25.294,0,0,1-11.522-3.9,24.343,24.343,0,0,1-2.7-1.866l-.456.263-.055-.048c2.813-2.613,5.73-5.011,8.294-7.022l1.154-.892a25.622,25.622,0,0,0,20.928-35.878c-.111-.249-.242-.5-.359-.74a5.751,5.751,0,0,0,5.073-5c.256-2.9-1.742-5.979-.435-8.577a8.336,8.336,0,0,0,.622-1.21,3.27,3.27,0,0,0,.1-1.216,8.564,8.564,0,0,0-3.456-6.221c-2.965-2.15-5.6-1.057-8.84-1.244a106.737,106.737,0,0,1-11.148-1.728,38.552,38.552,0,0,0-12.807-.422c-4.23.74-8.37,2.813-10.824,6.338-1.051,1.507-1.762,3.228-2.765,4.783-1.127,1.8-2.585,3.352-3.877,5.025-2.177,2.813-3.94,6.186-3.767,9.738.1,2.011.809,3.947.947,5.958a36.281,36.281,0,0,1-.415,5.6,24.508,24.508,0,0,0,.408,7.14,4.424,4.424,0,0,0,.816,2.032,4.333,4.333,0,0,0,1.8,1.154,16.056,16.056,0,0,0,2.2.691,31.577,31.577,0,0,1-3.09,5.564l-1.12-1.161-3.027,4.728-.118-.318c-.145.3-.311.581-.484.864l-.311-.864a18.174,18.174,0,0,1-6.78,6.787c-7.921,4.976-18.972,7.036-18.972,7.036-17.8,2.585-14.514,20.977-14.514,20.977s-7.554,32.816-9.676,53.1,5.764,33.21,5.764,33.21Zm84.91-59.979c.691,2.26,1.3,4.4,1.818,6.276l-.332.131c-.38-1.735-.9-3.96-1.465-6.407ZM253.17,268.478l-.1.062.09-.09ZM222.461,611.385c-.871-5.2-2.17-11.487-2.972-15.24.567-1.845,1.32-4.665,2.2-8.861,1.991-9.407,3.179-42.693,3.179-42.693l4.645-27.965c4.244-10.741,5.17-23.5,5.17-23.5,1.707-4.506,5.654-32.091,6.283-36.521-.18,3.062-.608,10.817-.836,19.429v.235c-.173,6.5-.221,13.478,0,19.263h0c.062,1.624.145,3.166.256,4.589.035.366.055.746.069,1.12.5,15-6.221,33.867-6.221,33.867s-2.993,13.989-2.55,21.806a14.389,14.389,0,0,0,.594,4.147,7.335,7.335,0,0,1,.339,1.922c.124,7.478-4.292,23.175-5.419,27.025C224.742,595.081,222.911,608.012,222.461,611.385Z" transform="translate(-178.555 -109.427)" fill="url(#linear-gradient-2)"/>
        <path id="Path_1239" data-name="Path 1239" d="M266.868,764.649s7.755,14.058,18.661,15.109,11.169,7.6,3.546,9.987-23.652,0-23.652,0L242.56,784.1s2.765-22.6,6.435-23.783S266.868,764.649,266.868,764.649Z" transform="translate(-198.322 -283.101)" fill="#4c4c78"/>
        <path id="Path_1240" data-name="Path 1240" d="M228.443,766.275s5.785,26.015,4.341,27.073-23.389,6.7-24.191-2.371c-.069-.753-.124-1.486-.166-2.184a46.059,46.059,0,0,1,2.295-17.21,14.259,14.259,0,0,0,.892-5.308C211.233,762.626,228.443,766.275,228.443,766.275Z" transform="translate(-187.758 -284.492)" fill="#4c4c78"/>
        <path id="Path_1241" data-name="Path 1241" d="M247.79,276.362s17.735,43.543,14.584,29.582c-2.073-9.276,11.411-21.585,20.735-28.822,4.748-3.691,8.425-6.062,8.425-6.062s-33.314-38.83-30.95-22.076a25.227,25.227,0,0,1-1.818,13.519A35.443,35.443,0,0,1,247.79,276.362Z" transform="translate(-199.938 -123.94)" fill="#ffb9b9"/>
        <path id="Path_1242" data-name="Path 1242" d="M411.77,372.751a10.194,10.194,0,0,1,4.057.256,59.876,59.876,0,0,1,7.914,2.405S436.8,376.987,434.8,363.3c-1.465-10.215-13.077-6.511-18.889-3.967-1.977.864-3.29,1.6-3.29,1.6Z" transform="translate(-250.58 -158.448)" fill="#ffb9b9"/>
        <path id="Path_1243" data-name="Path 1243" d="M411.77,374a10.194,10.194,0,0,1,4.057.256c1.417-3.587.339-12.082.111-13.678-1.977.864-3.29,1.6-3.29,1.6Z" transform="translate(-250.58 -159.7)" opacity="0.1"/>
        <path id="Path_1244" data-name="Path 1244" d="M411.2,360.849l3.414-.629s1.756,11.75-.532,14.819H410.15Z" transform="translate(-250.08 -159.589)" fill="#cbcdda"/>
        <path id="Path_1245" data-name="Path 1245" d="M311.272,391.076s10.45-6.22,11.695,1.638,2.9,21.357,2.9,21.357l2.889,17.148,3.746,34.365-.525,5.847s-11.107-3.719-13.733-2.433S313.5,454.58,313.5,454.58l-4.334-16.3-.691-34.558Z" transform="translate(-218.681 -168.397)" fill="#4c4c78"/>
        <path id="Path_1246" data-name="Path 1246" d="M311.272,391.076s10.45-6.22,11.695,1.638,2.9,21.357,2.9,21.357l2.889,17.148,3.746,34.365-.525,5.847s-11.107-3.719-13.733-2.433S313.5,454.58,313.5,454.58l-4.334-16.3-.691-34.558Z" transform="translate(-218.681 -168.397)" opacity="0.1"/>
        <path id="Path_1247" data-name="Path 1247" d="M320.65,333.56s10.844,12.22,27.3,14.687,36.763,3.249,36.763,3.249,5.122,9.165-2.267,18.924l-41.394-.912s-9.165-1.991-16.263,0Z" transform="translate(-222.439 -151.355)" fill="#4c4c78"/>
        <path id="Path_1248" data-name="Path 1248" d="M320.65,333.56s10.844,12.22,27.3,14.687,36.763,3.249,36.763,3.249,5.122,9.165-2.267,18.924l-41.394-.912s-9.165-1.991-16.263,0Z" transform="translate(-222.439 -151.355)" opacity="0.05"/>
        <path id="Path_1249" data-name="Path 1249" d="M450.84,406.14" transform="translate(-262.647 -173.771)" fill="none" stroke="blue" stroke-miterlimit="10" stroke-width="1"/>
        <path id="Path_1250" data-name="Path 1250" d="M266.2,262.137c4.043,8.646,11.059,15.026,21.26,15.026h1.327c4.748-3.691,8.425-6.062,8.425-6.062s-33.314-38.83-30.95-22.076C266.992,254.119,267.828,258.287,266.2,262.137Z" transform="translate(-205.607 -123.952)" opacity="0.1"/>
        <path id="Path_1251" data-name="Path 1251" d="M260.25,242.386a25.338,25.338,0,1,0,7.426-17.97A25.394,25.394,0,0,0,260.25,242.386Z" transform="translate(-203.786 -115.357)" fill="#ffb9b9"/>
        <path id="Path_1252" data-name="Path 1252" d="M237.8,420.265s56.634,5,58.749-2.233-5.778-26.8-5.778-26.8l2.53-27.336.1-1.051s-7.078-29.568-6.842-31.9c.242-2.122-11.425-26.955-13.823-32.008l-.435-.912-.449.263-.194.117-2.765,1.617-10.969-2.585-13.2-6.912-1.251,75.613Z" transform="translate(-196.852 -138.063)" fill="#cbcdda"/>
        <path id="Path_1253" data-name="Path 1253" d="M279.306,302.6a4.514,4.514,0,0,1,5.391,2.827,39.859,39.859,0,0,0,2.073,4.838l1.514,8.985,2.765,14.19,2.032,62.9-.912,11.2-5.059-8.985L286.19,339.8v-7.326a53.02,53.02,0,0,0-4.216-18.357l-.691-1.652-4.4-5.647Z" transform="translate(-208.922 -141.754)" opacity="0.1"/>
        <path id="Path_1254" data-name="Path 1254" d="M280.44,301.462a4.514,4.514,0,0,1,5.391,2.827,39.859,39.859,0,0,0,2.074,4.838l1.514,8.985,2.765,14.19,2.039,62.9-.926,11.169-5.059-8.985-.919-58.749v-7.326a53.012,53.012,0,0,0-4.209-18.357l-.691-1.652L278,305.671Z" transform="translate(-209.267 -141.402)" fill="#4c4c78"/>
        <path id="Path_1255" data-name="Path 1255" d="M255.23,278s13.4,14.2,18.129,15.9c0,0-2.364,10.775-4.728,12.876,0,0-14.065-14.342-16.588-15.5l-2.074-5.108Z" transform="translate(-200.611 -134.196)" opacity="0.1"/>
        <path id="Path_1256" data-name="Path 1256" d="M255.23,276.9s13.4,14.2,18.129,15.9c0,0-2.364,10.775-4.728,12.876,0,0-14.065-14.342-16.588-15.5l-2.074-5.108Z" transform="translate(-200.611 -133.857)" fill="#cbcdda"/>
        <path id="Path_1257" data-name="Path 1257" d="M286.58,301.35l.138.366,4.3,11.515,7.672,21.744s.076.221.207.636c1.272,3.953,8.114,25.414,9.462,31.655l.1-1.051s-7.071-29.6-6.836-31.932c.242-2.122-11.425-26.955-13.823-32.008-.38-.263-.691-.484-.885-.65Z" transform="translate(-211.917 -141.408)" opacity="0.1"/>
        <path id="Path_1258" data-name="Path 1258" d="M287.71,301.33l4.437,11.895,7.679,21.744s.076.221.207.636c1.348,4.216,9.027,28.269,9.676,32.671.691,4.838,10.367,30.95,10.367,30.95l5.529,45.237c4.928-3.843-2.074-40.779-2.074-40.779s-7.886-54.8-9.752-73.022S301.8,307.046,301.8,307.046a25.093,25.093,0,0,1-11.418-3.864A24.387,24.387,0,0,1,287.71,301.33Z" transform="translate(-212.266 -141.401)" fill="#4c4c78"/>
        <path id="Path_1259" data-name="Path 1259" d="M207.108,642.211c1.182,8.805,2.765,33.383,2.765,33.383,5.529,8.294,17.742,3.808,17.742,3.808s1.306-2.5,3.276-11.833,3.159-42.313,3.159-42.313l4.6-27.722c4.2-10.644,5.122-23.258,5.122-23.258,1.838-4.838,6.31-36.8,6.31-36.8s-1.845,28.649-.691,43.758-6.041,35.484-6.041,35.484-4.078,19.055-1.97,24.965-5.26,30.356-5.26,30.356c.657,7.1,21.55,4.2,21.55,4.2s9.856-26.409,11.563-42.313a210.016,210.016,0,0,1,5.066-28.448l1.7-22.076,3.027-13.008,3.615-17.21c4.071-12.621,5.322-33.708,5.322-33.708l3.152-20.693c2.074-10.236-.6-22.235-2.4-28.538-.774-2.716-1.382-4.382-1.382-4.382-1.811,1.286-12.178,2.765-17.542,4.016a30.524,30.524,0,0,1-8.985.691,199.634,199.634,0,0,1-40.018-7.319l-1.382-.415-.276,2.364-.65,5.64-1.147,10s-3.553,53.351-1.451,60.581-1.445,31.51-1.445,31.51c1.97,5.764-4.2,29.195-4.2,29.195S205.926,633.412,207.108,642.211Z" transform="translate(-187.31 -191.281)" opacity="0.1"/>
        <path id="Path_1260" data-name="Path 1260" d="M207.109,641.071c1.182,8.805,2.765,33.383,2.765,33.383,5.529,8.294,17.742,3.808,17.742,3.808s1.306-2.5,3.276-11.833,3.159-42.313,3.159-42.313l4.6-27.723c4.2-10.644,5.122-23.258,5.122-23.258,1.839-4.838,6.31-36.8,6.31-36.8s-1.845,28.649-.691,43.757-6.041,35.484-6.041,35.484-4.078,19.055-1.97,24.965-5.26,30.356-5.26,30.356c.657,7.1,21.551,4.2,21.551,4.2s9.856-26.409,11.563-42.313a210.014,210.014,0,0,1,5.066-28.448l1.7-22.076,3.027-13.008,3.615-17.21c4.071-12.621,5.322-33.708,5.322-33.708l3.152-20.7c2.074-10.229-.6-22.228-2.4-28.531-.774-2.716-1.382-4.382-1.382-4.382-1.811,1.286-12.178,2.765-17.542,4.016a30.516,30.516,0,0,1-8.985.691,199.621,199.621,0,0,1-40.018-7.319l-1.382-.415-.276,2.364-.65,5.64-1.147,10s-3.553,53.351-1.451,60.581-1.424,31.517-1.424,31.517c1.97,5.764-4.2,29.195-4.2,29.195S205.927,632.272,207.109,641.071Z" transform="translate(-187.311 -190.929)" fill="#474463"/>
        <path id="Path_1261" data-name="Path 1261" d="M260.25,242.371A25.337,25.337,0,0,0,263.616,255a13.39,13.39,0,0,0,11.155-2.689c2.025-1.783,3.331-4.223,5.073-6.29a36.977,36.977,0,0,1,3.629-3.58,11.236,11.236,0,0,1,2.861-2.073,3.884,3.884,0,0,1,3.456-.041c1.382.781,1.88,2.516,2.668,3.905a5.211,5.211,0,0,0,2.91,2.537,3.083,3.083,0,0,0,3.456-1.182c.857-1.479.228-3.788,1.673-4.686a8.708,8.708,0,0,1,1.175-.477c1.859-.843,2.074-3.338,2.226-5.37a3.361,3.361,0,0,1,1.141-2.675c.843-.539,1.942-.27,2.944-.242a4.148,4.148,0,0,0,.885-.076,25.393,25.393,0,0,0-48.61,10.291Z" transform="translate(-203.786 -115.342)" opacity="0.1"/>
        <path id="Path_1262" data-name="Path 1262" d="M308.868,204.306a8.432,8.432,0,0,1,3.421,6.138,3.227,3.227,0,0,1-.09,1.21,8.983,8.983,0,0,1-.615,1.2c-1.3,2.571.691,5.626.428,8.5a5.654,5.654,0,0,1-5.529,4.963c-1,0-2.073-.3-2.944.242a3.277,3.277,0,0,0-1.14,2.675c-.159,2.039-.366,4.534-2.226,5.37a9.752,9.752,0,0,0-1.175.484c-1.445.9-.809,3.214-1.673,4.679a3.076,3.076,0,0,1-3.456,1.189,5.239,5.239,0,0,1-2.91-2.537c-.795-1.382-1.272-3.124-2.668-3.905a3.905,3.905,0,0,0-3.456.035,11.267,11.267,0,0,0-2.861,2.073,37.766,37.766,0,0,0-3.629,3.58c-1.742,2.074-3.048,4.506-5.08,6.29-3.815,3.352-9.676,3.684-14.376,1.776a4.4,4.4,0,0,1-1.783-1.14,4.465,4.465,0,0,1-.829-2.046,24.566,24.566,0,0,1-.408-7.078,35.716,35.716,0,0,0,.415-5.529c-.131-1.991-.843-3.912-.94-5.9-.173-3.518,1.576-6.863,3.732-9.676,1.286-1.659,2.73-3.2,3.843-4.976.968-1.541,1.673-3.248,2.716-4.741,2.433-3.456,6.538-5.529,10.727-6.283a37.541,37.541,0,0,1,12.7.415,104.451,104.451,0,0,0,11.059,1.714C303.318,203.221,305.931,202.136,308.868,204.306Z" transform="translate(-202.267 -110.267)" fill="#472727"/>
        <path id="Path_1263" data-name="Path 1263" d="M287.71,301.33l4.437,11.895,7.679,21.744s.076.221.207.636h0l-9.676-32.423A24.377,24.377,0,0,1,287.71,301.33Z" transform="translate(-212.266 -141.401)" opacity="0.1"/>
        <path id="Path_1264" data-name="Path 1264" d="M218.312,495.674s-.463,14.383,3.414,17.97L232.039,494.2l-8.667-4.2Z" transform="translate(-190.828 -199.669)" fill="#ffb9b9"/>
        <path id="Path_1265" data-name="Path 1265" d="M183.48,437.075c4.734,5.529,25.324,6.5,25.324,6.5l20.41-32.125s4.838-3.352,13.885-18.433,8.771-26.707,8.294-35.381-6.22-33.611-6.22-33.611c-.878-5.612-13.588-40.779-13.588-40.779a18.017,18.017,0,0,1-6.725,6.725c-7.845,4.914-18.813,6.926-18.813,6.926-17.645,2.564-14.39,20.8-14.39,20.8s-.214,70.893.892,79.366S183.48,437.075,183.48,437.075Z" transform="translate(-180.076 -135.818)" opacity="0.1"/>
        <path id="Path_1266" data-name="Path 1266" d="M189.49,486.331l.587,5.253,7.167-2.626,5.253-7.948-3.94-3.089Z" transform="translate(-162.269 -187.569)" fill="#cbcdda"/>
        <path id="Path_1267" data-name="Path 1267" d="M218.3,469.509l3.746.38L258.18,473.5a58.535,58.535,0,0,0,17.362-.85l16.747-3.352c-.774-2.716-1.382-4.382-1.382-4.382-1.811,1.286-12.178,2.765-17.542,4.016a30.52,30.52,0,0,1-8.985.691,199.623,199.623,0,0,1-40.067-7.319l-1.631,1.949Z" transform="translate(-190.83 -191.115)" opacity="0.1"/>
        <g id="Group_1306" data-name="Group 1306" transform="translate(19.524 270.771)" opacity="0.1">
          <path id="Path_1268" data-name="Path 1268" d="M322.75,466.28a3.781,3.781,0,0,0,.353-.2l.035.1Z" transform="translate(-242.612 -463.053)"/>
          <path id="Path_1269" data-name="Path 1269" d="M210.195,600.99s6.179-23.43,4.2-29.195c0,0,3.553-24.28,1.445-31.51s1.451-60.581,1.451-60.581l1.168-10,.691-5.64.276-2.364s.47.152,1.382.415l.836.249-.194.926-.657,5.64-1.168,10s-3.546,53.344-1.451,60.581-1.438,31.51-1.438,31.51c1.97,5.764-4.2,29.195-4.2,29.195S208.2,631.5,209.379,640.3s2.765,33.376,2.765,33.376c4.029,6.055,11.639,5.294,15.441,4.444-.041.1-.069.159-.069.159s-12.22,4.465-17.742-3.808c0,0-1.576-24.578-2.765-33.383S210.195,600.99,210.195,600.99Z" transform="translate(-206.804 -461.7)"/>
          <path id="Path_1270" data-name="Path 1270" d="M254.41,673.545c-2.074-5.909,1.977-24.965,1.977-24.965s7.216-20.369,6.034-35.484c-.491-6.3-.456-14.936-.249-22.878,1.679-10.229,3.276-21.668,3.276-21.668s-1.845,28.642-.657,43.758-6.041,35.484-6.041,35.484-4.078,19.055-1.97,24.965-5.26,30.356-5.26,30.356c.525,5.688,14.031,4.963,19.353,4.444l-.2.546s-20.894,2.9-21.544-4.2C249.158,703.9,256.512,679.447,254.41,673.545Z" transform="translate(-219.876 -494.699)"/>
        </g>
        <path id="Path_1271" data-name="Path 1271" d="M182.34,437.075c4.734,5.529,25.324,6.5,25.324,6.5l20.4-32.125s4.838-3.352,13.892-18.433,8.771-26.707,8.294-35.381-6.22-33.611-6.22-33.611c-.878-5.612-13.588-40.779-13.588-40.779a18.017,18.017,0,0,1-6.725,6.725c-7.852,4.914-18.807,6.926-18.807,6.926-17.645,2.564-14.39,20.8-14.39,20.8s-.194,70.865.892,79.339S182.34,437.075,182.34,437.075Z" transform="translate(-179.724 -135.818)" fill="#4c4c78"/>
        <path id="Path_1272" data-name="Path 1272" d="M245.163,300.674l4.437,1.673-2.958,2.073L268.7,357.64c-.511-8.674-6.22-33.611-6.22-33.611-.878-5.612-13.588-40.779-13.588-40.779a18.017,18.017,0,0,1-6.725,6.725Z" transform="translate(-198.202 -135.818)" opacity="0.1"/>
        <path id="Path_1273" data-name="Path 1273" d="M198.952,430.923l-22.573-5.813-2.958,9.165,23.064,5.619Z" transform="translate(-157.306 -171.259)" opacity="0.1"/>
        <path id="Path_1274" data-name="Path 1274" d="M208.046,313.294s10.25,9.676,6.407,31.144-10.05,44.843-10.05,44.843L221.1,435.506s-11.632,12.123-17.348,13.6L187.09,412.145s-7.783-12.814-5.716-32.913,9.559-52.632,9.559-52.632S190.9,306.79,208.046,313.294Z" transform="translate(-179.318 -144.691)" opacity="0.1"/>
        <path id="Path_1275" data-name="Path 1275" d="M206.9,313.294s10.25,9.676,6.407,31.144-10.05,44.843-10.05,44.843L219.9,435.506s-11.612,12.123-17.341,13.6L185.9,412.145s-7.783-12.814-5.716-32.913,9.559-52.632,9.559-52.632S189.743,306.79,206.9,313.294Z" transform="translate(-178.951 -144.691)" fill="#4c4c78"/>
        <path id="Path_1276" data-name="Path 1276" d="M231.605,492.087S218.6,510.058,219.586,514.9s4.8,2.232,4.8,2.232l5.149-7.036,4.6-13.132S233.679,491.313,231.605,492.087Z" transform="translate(-191.211 -200.292)" opacity="0.1"/>
        <path id="Path_1277" data-name="Path 1277" d="M233.932,492.087s-13.015,17.97-12.026,22.808,4.8,2.232,4.8,2.232l5.121-7.029,4.6-13.132S235.978,491.313,233.932,492.087Z" transform="translate(-191.927 -200.292)" opacity="0.1"/>
        <path id="Path_1278" data-name="Path 1278" d="M232.785,492.087s-13.008,17.97-12.019,22.808,4.8,2.232,4.8,2.232l5.122-7.029,4.6-13.132S234.838,491.313,232.785,492.087Z" transform="translate(-191.575 -200.292)" fill="#474463"/>
      </g>
    </g>
  </g>
</svg>
