<svg xmlns="http://www.w3.org/2000/svg" width="423.999" height="512.001" viewBox="0 0 423.999 512.001">
  <g id="checklist" transform="translate(-44.001)">
    <g id="Group_1322" data-name="Group 1322">
      <g id="Group_1321" data-name="Group 1321">
        <path id="Path_1295" data-name="Path 1295" d="M400,152H256a10,10,0,0,0,0,20H400a10,10,0,1,0,0-20Z" fill="#1668a0"/>
      </g>
    </g>
    <g id="Group_1324" data-name="Group 1324">
      <g id="Group_1323" data-name="Group 1323">
        <path id="Path_1296" data-name="Path 1296" d="M365.011,202.931a9.995,9.995,0,1,0,2.93,7.07A10.076,10.076,0,0,0,365.011,202.931Z" fill="#1668a0"/>
      </g>
    </g>
    <g id="Group_1326" data-name="Group 1326">
      <g id="Group_1325" data-name="Group 1325">
        <path id="Path_1297" data-name="Path 1297" d="M263.061,45.931a9.995,9.995,0,1,0,2.93,7.07A10.076,10.076,0,0,0,263.061,45.931Z" fill="#1668a0"/>
      </g>
    </g>
    <g id="Group_1328" data-name="Group 1328">
      <g id="Group_1327" data-name="Group 1327">
        <path id="Path_1298" data-name="Path 1298" d="M315.878,200H256a10,10,0,0,0,0,20h59.877a10,10,0,1,0,0-20Z" fill="#1668a0"/>
      </g>
    </g>
    <g id="Group_1330" data-name="Group 1330">
      <g id="Group_1329" data-name="Group 1329">
        <path id="Path_1299" data-name="Path 1299" d="M400,260H256a10,10,0,0,0,0,20H400a10,10,0,1,0,0-20Z" fill="#1668a0"/>
      </g>
    </g>
    <g id="Group_1332" data-name="Group 1332">
      <g id="Group_1331" data-name="Group 1331">
        <path id="Path_1300" data-name="Path 1300" d="M365.011,310.931a9.995,9.995,0,1,0,2.93,7.07A10.076,10.076,0,0,0,365.011,310.931Z" fill="#1668a0"/>
      </g>
    </g>
    <g id="Group_1334" data-name="Group 1334">
      <g id="Group_1333" data-name="Group 1333">
        <path id="Path_1301" data-name="Path 1301" d="M315.878,308H256a10,10,0,0,0,0,20h59.877a10,10,0,1,0,0-20Z" fill="#1668a0"/>
      </g>
    </g>
    <g id="Group_1336" data-name="Group 1336">
      <g id="Group_1335" data-name="Group 1335">
        <path id="Path_1302" data-name="Path 1302" d="M400,368H256a10,10,0,0,0,0,20H400a10,10,0,1,0,0-20Z" fill="#1668a0"/>
      </g>
    </g>
    <g id="Group_1338" data-name="Group 1338">
      <g id="Group_1337" data-name="Group 1337">
        <path id="Path_1303" data-name="Path 1303" d="M365.011,418.931a9.995,9.995,0,1,0,2.93,7.07A10.076,10.076,0,0,0,365.011,418.931Z" fill="#1668a0"/>
      </g>
    </g>
    <g id="Group_1340" data-name="Group 1340">
      <g id="Group_1339" data-name="Group 1339">
        <path id="Path_1304" data-name="Path 1304" d="M315.878,416H256a10,10,0,0,0,0,20h59.877a10,10,0,1,0,0-20Z" fill="#1668a0"/>
      </g>
    </g>
    <g id="Group_1342" data-name="Group 1342">
      <g id="Group_1341" data-name="Group 1341">
        <path id="Path_1305" data-name="Path 1305" d="M419.243,39H342.864a61.268,61.268,0,0,0-42.385-17h-8.76a40,40,0,0,0-71.438,0H211.5a61.266,61.266,0,0,0-42.384,17H92.759A48.814,48.814,0,0,0,44,87.759V463.243A48.814,48.814,0,0,0,92.759,512H419.242A48.814,48.814,0,0,0,468,463.243V87.759A48.812,48.812,0,0,0,419.243,39ZM211.5,42h15.586a10,10,0,0,0,9.639-7.338,20,20,0,0,1,38.549,0A10,10,0,0,0,284.914,42h15.565a41.558,41.558,0,0,1,41.354,38H170.147A41.559,41.559,0,0,1,211.5,42ZM448,463.244A28.791,28.791,0,0,1,419.243,492H92.759A28.791,28.791,0,0,1,64,463.244V87.759A28.791,28.791,0,0,1,92.759,59h62.347A61.135,61.135,0,0,0,150,83.5V90a10,10,0,0,0,10,10H351.98a10,10,0,0,0,10-10V83.5A61.139,61.139,0,0,0,356.875,59h62.368A28.791,28.791,0,0,1,448,87.759Z" fill="#1668a0"/>
      </g>
    </g>
    <g id="Group_1344" data-name="Group 1344">
      <g id="Group_1343" data-name="Group 1343">
        <path id="Path_1306" data-name="Path 1306" d="M192.41,149.6a10,10,0,0,0-14.142,0l-42.762,42.763-13.173-13.174a10,10,0,1,0-14.143,14.143l20.245,20.245a10,10,0,0,0,14.142,0l49.833-49.833A10,10,0,0,0,192.41,149.6Z" fill="#1668a0"/>
      </g>
    </g>
    <g id="Group_1346" data-name="Group 1346">
      <g id="Group_1345" data-name="Group 1345">
        <path id="Path_1307" data-name="Path 1307" d="M168,368H120a10,10,0,0,0-10,10v48a10,10,0,0,0,10,10h48a10,10,0,0,0,10-10V378A10,10,0,0,0,168,368Zm-10,48H130V388h28Z" fill="#1668a0"/>
      </g>
    </g>
    <g id="Group_1348" data-name="Group 1348">
      <g id="Group_1347" data-name="Group 1347">
        <path id="Path_1308" data-name="Path 1308" d="M168,260H120a10,10,0,0,0-10,10v48a10,10,0,0,0,10,10h48a10,10,0,0,0,10-10V270A10,10,0,0,0,168,260Zm-10,48H130V280h28Z" fill="#1668a0"/>
      </g>
    </g>
  </g>
</svg>
