<svg id="pencil" xmlns="http://www.w3.org/2000/svg" width="47.329" height="47.331" viewBox="0 0 47.329 47.331">
  <g id="Group_868" data-name="Group 868" transform="translate(0 0)">
    <path id="Path_1088" data-name="Path 1088" d="M46.675,6.712,40.624.661a2.263,2.263,0,0,0-3.2,0L26.034,12.054a.731.731,0,0,0,1.033,1.033L38.46,1.694a.8.8,0,0,1,1.131,0l6.051,6.051a.8.8,0,0,1,0,1.131l-1.485,1.485L40.266,6.47A.731.731,0,0,0,39.233,7.5l3.891,3.891-1.7,1.7-1.71-1.71a.731.731,0,1,0-1.033,1.033l1.71,1.71-1.7,1.7-1.71-1.71a.731.731,0,0,0-1.033,1.033l1.71,1.71-1.7,1.7-3.891-3.891a.731.731,0,1,0-1.033,1.033l3.891,3.891-1.7,1.7-1.71-1.71A.731.731,0,0,0,30.5,20.6l1.71,1.71L30.77,23.748l-7.182-7.182,1.336-1.336A.731.731,0,1,0,23.891,14.2l-1.336,1.336L9.08,2.058A4.962,4.962,0,0,0,2.063,9.075L15.537,22.55.668,37.42a2.263,2.263,0,0,0,0,3.2l6.051,6.051a2.261,2.261,0,0,0,3.2,0L24.785,31.8l1.059,1.059a.731.731,0,1,0,1.033-1.033l-1.462-1.462a.715.715,0,0,0-.227-.228L9.36,14.307l1.959-1.959,1.211,1.211a.731.731,0,0,0,1.033-1.033l-1.211-1.211,1.959-1.959,7.726,7.726h0l8.142,8.142a.657.657,0,0,0,.143.143L41.165,36.21l-1.959,1.959L28.269,27.231l-.019-.021-4.362-4.362-.022-.02-7.7-7.7a.731.731,0,1,0-1.033,1.033L38.173,39.2l-1.959,1.959-6.942-6.942a.731.731,0,0,0-1.033,1.033L35.7,42.71a.738.738,0,0,0,.252.164L44.776,46.3a1.185,1.185,0,0,0,1.533-1.534l-3.43-8.822a.739.739,0,0,0-.164-.252L31.8,24.781,46.675,9.909A2.263,2.263,0,0,0,46.675,6.712ZM23.753,30.765,22.319,32.2l-1.71-1.71a.731.731,0,1,0-1.033,1.033l1.71,1.71-1.7,1.7L15.7,31.037a.731.731,0,0,0-1.033,1.033l3.891,3.891-1.7,1.7-1.71-1.71a.731.731,0,0,0-1.033,1.033l1.71,1.71-1.7,1.7-1.71-1.71a.731.731,0,0,0-1.033,1.033l1.71,1.71-1.7,1.7L7.51,39.226A.731.731,0,0,0,6.477,40.26l3.891,3.891L8.883,45.635a.8.8,0,0,1-1.131,0L1.7,39.584a.8.8,0,0,1,0-1.131l14.87-14.87ZM3.1,8.042A3.5,3.5,0,0,1,8.047,3.091L10.355,5.4,5.4,10.351ZM10.8,10.8h0L8.327,13.273,6.438,11.384l4.951-4.951,1.889,1.889ZM44.721,44.713l-7.2-2.794,4.4-4.4Z" transform="translate(-0.006 0)" fill="#1668a0"/>
  </g>
</svg>
