<svg xmlns="http://www.w3.org/2000/svg" width="718.756" height="573.828" viewBox="0 0 718.756 573.828">
  <g id="Group_1300" data-name="Group 1300" transform="translate(-918.058 -289)">
    <g id="Group_1297" data-name="Group 1297" transform="translate(918.058 352.519)">
      <path id="Path_1163" data-name="Path 1163" d="M746.467,471.543a187.287,187.287,0,0,1-5.573,28.385,170.748,170.748,0,0,1-9.474,25.862c0,57.671-41.529,104.418-92.764,104.418H165.522c-30.593,0-59.967-13.324-81.835-37.118.2-.06.411-.122.631-.171,43.64-12.875,89.686-17.32,127.539-47.9q-77.372-14.279-153.839-35.444c-3.141-.881-6.71-2.2-10.373-3.586-.17-2.908-.264-5.836-.264-8.786-.232-.468-.459-.937-.685-1.4q-1.5-3.1-2.877-6.291A185.576,185.576,0,0,1,29.08,415.962c0-42.238,13.338-80.38,34.712-107.283,143.793,13.231,288.446,7.626,432.673,1.978q-63.255-13.979-126.5-28-103.144-22.821-206.287-45.67a248.825,248.825,0,0,1,371.862-54.617c15.983-11.819,34.385-18.564,53.969-18.564,40.775,0,76.417,29.168,95.774,72.692h0c9.788,22.017,15.405,47.7,15.405,75.124,0,4.893-.182,9.785-.54,14.6,0,.287-.038.566-.063.86,13.445,12.441,24.723,28.727,32.928,47.662.1.231.2.461.3.7q2.155,5.012,4.008,10.247H737.2q-7.916,1.95-15.814,3.977A1679.28,1679.28,0,0,0,552.714,442.69q-23.95,8.933-47.749,18.606c-13.395,5.452-30.622,17.8-44.507,18.872,94.932-7.087,190.624,3.243,285.117-8.527Z" transform="translate(-28.389 -120.822)" fill="#1a7fc3" opacity="0.1"/>
      <path id="Path_1164" data-name="Path 1164" d="M746.736,447.746c0-50.508-18.886-95.125-47.749-121.949q.6-7.654.628-15.525c0-82.016-49.784-148.492-111.2-148.492-19.59,0-37.992,6.769-53.975,18.643a248.114,248.114,0,0,0-388.781,86.425c-2.142-.161-4.3-.253-6.471-.253-61.407,0-111.2,66.483-111.2,148.492,0,30.152,6.735,58.2,18.3,81.615h0c0,73.786,52.894,133.605,118.115,133.605H637.568c51.229,0,92.758-46.962,92.758-104.9h0C740.73,502.812,746.736,476.22,746.736,447.746Z" transform="translate(-27.98 -120)" fill="#46b3e6" opacity="0.198"/>
    </g>
    <ellipse id="Ellipse_279" data-name="Ellipse 279" cx="26.14" cy="4.421" rx="26.14" ry="4.421" transform="translate(1465.182 800.83)" fill="#1a7fc3"/>
    <path id="Path_1184" data-name="Path 1184" d="M951.808,826.066a7.579,7.579,0,0,0,2.49-3.757,3.343,3.343,0,0,0-1.742-3.836c-1.6-.611-3.309.5-4.6,1.619s-2.782,2.4-4.472,2.158a6.826,6.826,0,0,0,2.106-6.377,2.678,2.678,0,0,0-.585-1.3c-.891-.949-2.5-.54-3.562.208-3.38,2.373-4.323,6.969-4.342,11.1a20.872,20.872,0,0,1-.059-4.551c-.006-1.508-.429-3.25-1.723-4.043a5.149,5.149,0,0,0-2.6-.618c-1.515-.058-3.211.1-4.245,1.209-1.3,1.378-.956,3.693.163,5.2a16.55,16.55,0,0,0,4.4,3.523,9.752,9.752,0,0,1,3.14,3,2.709,2.709,0,0,1,.234.539h9.53a26.5,26.5,0,0,0,5.87-4.069Z" transform="translate(550.324 -28.044)" fill="#1a7fc3"/>
    <g id="Group_1298" data-name="Group 1298" transform="translate(1215.355 417.051)">
      <path id="Path_1185" data-name="Path 1185" d="M731.752,415.119l.566-1.261-.754-.338L731,414.781,728.04,418l3.283,1.469Z" transform="translate(-685.219 -272.751)" fill="#3f3d56"/>
      <path id="Path_1186" data-name="Path 1186" d="M736.739,417.415l.579-1.294-.774-.351-.579,1.294-3.036,3.3,3.367,1.508Z" transform="translate(-686.931 -273.539)" fill="#3f3d56"/>
      <path id="Path_1187" data-name="Path 1187" d="M741.848,419.639l.566-1.261-.76-.338-.566,1.261-2.958,3.218,3.283,1.469Z" transform="translate(-688.751 -274.333)" fill="#3f3d56"/>
      <path id="Path_1188" data-name="Path 1188" d="M777.75,435.775l.579-1.294-.774-.351-.578,1.294-3.036,3.3,3.367,1.508Z" transform="translate(-701.282 -279.964)" fill="#3f3d56"/>
      <path id="Path_1189" data-name="Path 1189" d="M782.93,438.095l.578-1.294-.774-.351-.585,1.294-3.029,3.3,3.367,1.508Z" transform="translate(-703.094 -280.775)" fill="#3f3d56"/>
      <path id="Path_1190" data-name="Path 1190" d="M788.1,440.408l.585-1.294-.78-.345-.578,1.294-3.029,3.3,3.361,1.508Z" transform="translate(-704.907 -281.587)" fill="#3f3d56"/>
      <path id="Path_1191" data-name="Path 1191" d="M754.259,425.255l.579-1.294-.774-.351-.579,1.3-3.036,3.3,3.367,1.5Z" transform="translate(-693.062 -276.282)" fill="#3f3d56"/>
      <path id="Path_1192" data-name="Path 1192" d="M759.439,427.575l.579-1.294-.78-.351-.578,1.294-3.029,3.3,3.361,1.508Z" transform="translate(-694.874 -277.094)" fill="#3f3d56"/>
      <path id="Path_1193" data-name="Path 1193" d="M764.609,429.888l.579-1.294-.774-.345-.578,1.294-3.036,3.3,3.367,1.508Z" transform="translate(-696.683 -277.906)" fill="#3f3d56"/>
      <path id="Path_1194" data-name="Path 1194" d="M811,325.49c1.9-4.5.059-14.731-2.769-16s-11.435,4.29-13.528,8.7l-.13-.065-40.1,89.554,16.434,7.385,40.1-89.58Z" transform="translate(-712.674 -268.483)" fill="#ececf3"/>
      <path id="Path_1195" data-name="Path 1195" d="M857.19,346.17c1.892-4.5.059-14.731-2.776-16s-11.428,4.29-13.522,8.7l-.136-.065-40.1,89.554,16.473,7.359,40.1-89.554Z" transform="translate(-728.833 -275.72)" fill="#ececf3"/>
      <path id="Path_1196" data-name="Path 1196" d="M852.4,268.358c2.828-6.579,2.6-20.464-.208-21.732s-13.066,7.944-16.089,14.438l-.13-.065-58.8,131.315,16.434,7.359,58.8-131.315Z" transform="translate(-720.614 -246.508)" fill="#fff"/>
      <rect id="Rectangle_317" data-name="Rectangle 317" width="3.4" height="7.372" rx="1.7" transform="translate(127.543 5.143) rotate(24.12)" fill="#3f3d56"/>
      <path id="Path_1197" data-name="Path 1197" d="M690.17,492.96l16.694,2.249c2.7.364,5.571.7,8.048-.429,4.1-1.879,5.662-7.066,9.439-9.524,4.258-2.776,10.479-1.014,13.45,3.107a13.463,13.463,0,0,0,2.464,3.146c4.271,3.25,11.051-2.86,15.524.156,2.23,1.515,2.932,4.9,5.48,5.8,1.684.592,3.543-.176,5.324-.032,4.453.357,6.462,6.072,5.526,10.44s-3.64,8.23-4.368,12.631,1.911,10.018,6.364,9.751" transform="translate(-690.17 -329.582)" fill="#fff" opacity="0.3"/>
    </g>
    <circle id="Ellipse_280" data-name="Ellipse 280" cx="7.801" cy="7.801" r="7.801" transform="translate(1415.14 331.255)" fill="#1a7fc3" opacity="0.1"/>
    <circle id="Ellipse_281" data-name="Ellipse 281" cx="7.801" cy="7.801" r="7.801" transform="translate(1509.4 289)" fill="#1a7fc3" opacity="0.1"/>
    <circle id="Ellipse_282" data-name="Ellipse 282" cx="7.801" cy="7.801" r="7.801" transform="translate(1470.396 318.253)" fill="#1a7fc3" opacity="0.1"/>
    <circle id="Ellipse_283" data-name="Ellipse 283" cx="7.801" cy="7.801" r="7.801" transform="translate(1562.057 385.861)" fill="#1a7fc3" opacity="0.1"/>
    <circle id="Ellipse_284" data-name="Ellipse 284" cx="7.801" cy="7.801" r="7.801" transform="translate(1517.201 339.056)" fill="#1a7fc3" opacity="0.1"/>
    <g id="Group_1299" data-name="Group 1299" transform="translate(1041.808 500.298)">
      <ellipse id="Ellipse_271" data-name="Ellipse 271" cx="21.276" cy="4.089" rx="21.276" ry="4.089" transform="translate(51.692 292)" fill="#1a7fc3"/>
      <ellipse id="Ellipse_272" data-name="Ellipse 272" cx="2.474" cy="3.245" rx="2.474" ry="3.245" transform="translate(70.138 291.105)" fill="#3f3d56"/>
      <ellipse id="Ellipse_273" data-name="Ellipse 273" cx="2.474" cy="3.245" rx="2.474" ry="3.245" transform="translate(70.138 287.139)" fill="#3f3d56"/>
      <ellipse id="Ellipse_274" data-name="Ellipse 274" cx="2.474" cy="3.245" rx="2.474" ry="3.245" transform="translate(70.138 283.181)" fill="#3f3d56"/>
      <ellipse id="Ellipse_275" data-name="Ellipse 275" cx="2.474" cy="3.245" rx="2.474" ry="3.245" transform="translate(70.138 279.215)" fill="#3f3d56"/>
      <ellipse id="Ellipse_276" data-name="Ellipse 276" cx="2.474" cy="3.245" rx="2.474" ry="3.245" transform="translate(70.138 275.25)" fill="#3f3d56"/>
      <ellipse id="Ellipse_277" data-name="Ellipse 277" cx="2.474" cy="3.245" rx="2.474" ry="3.245" transform="translate(70.138 271.291)" fill="#3f3d56"/>
      <ellipse id="Ellipse_278" data-name="Ellipse 278" cx="2.474" cy="3.245" rx="2.474" ry="3.245" transform="translate(70.138 267.326)" fill="#3f3d56"/>
      <path id="Path_1182" data-name="Path 1182" d="M289.064,763.232a11.469,11.469,0,0,0,.924-1.361l-6.505-1.07,7.036.051a11.9,11.9,0,0,0,.226-9.4l-9.459,4.9,8.732-6.4a11.868,11.868,0,1,0-19.6,13.279,11.6,11.6,0,0,0-1.353,2.183l8.448,4.366-9.008-3.02a11.868,11.868,0,0,0,1.914,11.14,11.868,11.868,0,1,0,18.649,0,11.86,11.86,0,0,0,0-14.669Z" transform="translate(-207.189 -519.78)" fill="#1a7fc3"/>
      <path id="Path_1183" data-name="Path 1183" d="M267.889,780.445a11.8,11.8,0,0,0,2.539,7.335,11.868,11.868,0,1,0,18.649,0C290.671,785.764,267.889,779.113,267.889,780.445Z" transform="translate(-207.196 -529.658)" opacity="0.1"/>
      <g id="partner-illustration" transform="translate(0 0)">
        <path id="Path_62" data-name="Path 62" d="M277.171,363.538l4.408,13.538,5.982-5.038-3.148-10.7Z" transform="translate(-139.94 -182.432)" fill="#ffb9b9"/>
        <path id="Path_63" data-name="Path 63" d="M322.014,350.661l1.574,21.095,38.1.945,16.687,38.1,9.13-3.778s-10.39-35.892-15.112-47.227-22.669-3.148-22.669-3.148l-1.574-3.148Z" transform="translate(-241.455 -227.172)" fill="#2f2e41"/>
        <path id="Path_64" data-name="Path 64" d="M441.563,483.232s.63,10.075,1.574,10.7,8.186-.63,8.186-.63,2.176.483,11.02-1.889c9.943-2.667-1.259-6.612-1.259-6.612s-7.241-4.723-10.39-6.927-5.352,2.519-5.352,2.519C445.971,482.287,441.563,483.232,441.563,483.232Z" transform="translate(-301.813 -291.107)" fill="#2f2e41"/>
        <path id="Path_65" data-name="Path 65" d="M950.333,571.681l1,35.079,10.691,41.093s-2.339,7.016-.668,8.686,9.354,4.677,9.354,4.677l-6.348-87.531Z" transform="translate(-558.683 -338.761)" fill="#2f2e41"/>
        <path id="Path_66" data-name="Path 66" d="M966.56,741.95s3.813,8.388-1.525,9.15-29.992,2.8-28.467-1.525,20.079-8.388,20.079-8.388Z" transform="translate(-551.7 -424.343)" fill="#2f2e41"/>
        <path id="Path_67" data-name="Path 67" d="M985.026,508.818s-4.009,21.716-6.682,25.391,1.336,30.4,1.336,30.4,6.014,38.42,3.341,44.434-2,4.009-1.67,7.35,1,6.014,0,9.02a26.451,26.451,0,0,0-1.336,4.343c-.334,1.67,0,10.691,0,10.691s-14.366,5.011-16.7-2.339c0,0,3.341-4.677,2.339-8.352a44.49,44.49,0,0,1-1.67-11.359v-7.016L948.61,553.92l-3.675-20.714s1-21.048,4.677-23.052S985.026,508.818,985.026,508.818Z" transform="translate(-555.958 -306.969)" fill="#2f2e41"/>
        <path id="Path_68" data-name="Path 68" d="M973.47,770.391s5.011,11.025-2,12.027-39.423,3.675-37.418-2,26.393-11.025,26.393-11.025Z" transform="translate(-550.416 -438.581)" fill="#2f2e41"/>
        <circle id="Ellipse_47" data-name="Ellipse 47" cx="13.364" cy="13.364" r="13.364" transform="translate(403.339 78.918)" fill="#ffb9b9"/>
        <path id="Path_69" data-name="Path 69" d="M1002.94,298.959l-.249,17.066-16.384.055s4.158-13.36,2.3-16.153S1002.94,298.959,1002.94,298.959Z" transform="translate(-576.846 -200.773)" fill="#ffb9b9"/>
        <path id="Path_70" data-name="Path 70" d="M957.624,342.6s11.693-15.034,20.714-8.686S990.7,355.3,990.7,355.3l-2,42.1s-5.011,6.014-2,10.023,4.677,3.007,2.339,6.014-5.011,5.345-4.009,6.348-1,1.67-1,1.67l-35.414,1s1-1.336-2-5.345.668-9.355,0-11.359-1.336.334-1.67-4.343S957.624,342.6,957.624,342.6Z" transform="translate(-555.952 -217.928)" fill="#3f3d56"/>
        <path id="Path_71" data-name="Path 71" d="M965.553,523.739s-.668,8.352-5.679,9.689c-1.879.5-3.289-.454-4.317-1.844a8.2,8.2,0,0,1-.262-9.205l1.238-1.98Z" transform="translate(-560.539 -312.87)" fill="#ffb9b9"/>
        <path id="Path_72" data-name="Path 72" d="M1004.65,317.754s.334,6.682,0,7.684-.668,2,0,3.007.334,4.343-.334,4.677,1.336,3.341.668,5.345a14.5,14.5,0,0,1-1.67,3.341c-.334.668-.872,1.865-.872,1.865s-9.819-20.908-17.837-15.9a58.108,58.108,0,0,1-14.366,6.682S974.582,311.072,1004.65,317.754Z" transform="translate(-568.734 -209.951)" fill="#3f3d56"/>
        <path id="Path_73" data-name="Path 73" d="M983.406,350.273s10.691,1,10.023,15.034,1,36.082,1,36.082-18.375,28.064-21.382,30.068-3.341,1.67-3.007,3.341.668,3.007-.668,4.343a11.532,11.532,0,0,1-2.673,2s-10.691-3.675-9.689-7.016,5.68-8.686,5.68-8.686,8.018-13.03,8.352-15.034.334-1.67,1.336-2.673,3.675-5.011,3.675-7.016v-6.348l-2.8-33.922a9.833,9.833,0,0,1,2.608-7.616A8.508,8.508,0,0,1,983.406,350.273Z" transform="translate(-562.023 -226.935)" fill="#3f3d56"/>
        <path id="Path_74" data-name="Path 74" d="M977.045,256.535A5.445,5.445,0,0,1,972,255.379a4.12,4.12,0,0,1-.816-4.934A6.508,6.508,0,0,1,975.032,248a34.069,34.069,0,0,1,10.118-1.543,9.084,9.084,0,0,1,4.744.985c.693.419,1.279.994,1.964,1.425a24.5,24.5,0,0,0,4.154,1.608,10.655,10.655,0,0,1,6.072,6.43,12.843,12.843,0,0,1,.59,3.02,16.548,16.548,0,0,1-1.444,8.2c-1.864,4.065-5.412,7.483-5.913,11.926-1.91-1.6-2.47-4.293-3.949-6.3a8.168,8.168,0,0,0-4.459-3.027,2.6,2.6,0,0,1-1.35-.6,2.238,2.238,0,0,1-.423-1.217l-.917-6.6c-.187-1.344-.439-2.812-1.47-3.693a5.226,5.226,0,0,0-2.189-.95,35.319,35.319,0,0,0-5.715-.932" transform="translate(-568.961 -174.559)" fill="#2f2e41"/>
        <path id="Path_75" data-name="Path 75" d="M1010.249,463.234l-18.755,24.338S1008.764,473.137,1010.249,463.234Z" transform="translate(-579.465 -284.008)" opacity="0.1" style="isolation: isolate"/>
        <path id="Path_76" data-name="Path 76" d="M822.783,307.563l.178,22.986-10.893,16.339,8.912-18.319Z" transform="translate(-410.001 -155.284)" opacity="0.1" style="isolation: isolate"/>
        <path id="Path_77" data-name="Path 77" d="M469.8,384.391h-113.6V382.05H304.7v2.341H190.633a7.684,7.684,0,0,0-7.684,7.684V547.622a7.684,7.684,0,0,0,7.684,7.684H469.8a7.684,7.684,0,0,0,7.684-7.684V392.075A7.684,7.684,0,0,0,469.8,384.391Z" transform="translate(-171.243 -243.02)" fill="#3f3d56"/>
        <rect id="Rectangle_201" data-name="Rectangle 201" width="273.932" height="154.526" transform="translate(22.008 154.951)" opacity="0.1" style="isolation: isolate"/>
        <circle id="Ellipse_48" data-name="Ellipse 48" cx="2.81" cy="2.81" r="2.81" transform="translate(155.93 145.118)" fill="#1a7fc3"/>
        <rect id="Rectangle_202" data-name="Rectangle 202" width="272.202" height="154.468" transform="translate(22.468 154.874)" fill="#e6e6e6"/>
        <rect id="Rectangle_203" data-name="Rectangle 203" width="256.635" height="134.178" transform="translate(30.252 165.429)" fill="#fff"/>
        <rect id="Rectangle_204" data-name="Rectangle 204" width="65.943" height="106.334" transform="translate(53.57 179.351)" fill="#e6e6e6"/>
        <rect id="Rectangle_205" data-name="Rectangle 205" width="54.953" height="29.27" transform="translate(130.896 179.351)" fill="#1a7fc3"/>
        <rect id="Rectangle_206" data-name="Rectangle 206" width="54.953" height="31.493" transform="translate(130.896 216.772)" fill="#e6e6e6"/>
        <rect id="Rectangle_207" data-name="Rectangle 207" width="54.953" height="29.27" transform="translate(130.896 256.415)" fill="#e6e6e6"/>
        <rect id="Rectangle_208" data-name="Rectangle 208" width="65.943" height="46.34" transform="translate(197.625 179.351)" fill="#e6e6e6"/>
        <rect id="Rectangle_209" data-name="Rectangle 209" width="65.943" height="46.34" transform="translate(197.625 239.345)" fill="#1a7fc3"/>
        <path id="Path_78" data-name="Path 78" d="M473.238,718.278H446.5v-1.926a.382.382,0,0,0-.382-.382h-9.166a.382.382,0,0,0-.382.382h0v1.926h-5.729v-1.926a.382.382,0,0,0-.382-.382H421.3a.382.382,0,0,0-.382.382h0v1.926h-5.729v-1.926a.382.382,0,0,0-.382-.382H405.64a.382.382,0,0,0-.382.382h0v1.926h-5.729v-1.926a.382.382,0,0,0-.382-.382h-9.166a.382.382,0,0,0-.382.382h0v1.926h-5.729v-1.926a.382.382,0,0,0-.382-.382h-9.166a.382.382,0,0,0-.382.382h0v1.926h-5.729v-1.926a.382.382,0,0,0-.382-.382h-9.166a.382.382,0,0,0-.382.382h0v1.926h-5.729v-1.926a.382.382,0,0,0-.382-.382h-71.8a.382.382,0,0,0-.382.382h0v1.926h-5.729v-1.926a.382.382,0,0,0-.382-.382h-9.166a.382.382,0,0,0-.382.382v1.926H258.6v-1.926a.382.382,0,0,0-.382-.382h-9.166a.382.382,0,0,0-.382.382h0v1.926h-5.729v-1.926a.382.382,0,0,0-.382-.382H233.4a.382.382,0,0,0-.382.382h0v1.926h-5.729v-1.926a.382.382,0,0,0-.382-.382h-9.166a.382.382,0,0,0-.382.382h0v1.926h-5.729v-1.926a.382.382,0,0,0-.382-.382H202.08a.382.382,0,0,0-.382.382h0v1.926h-5.729v-1.926a.382.382,0,0,0-.382-.382h-9.166a.382.382,0,0,0-.382.382h0v1.926H168.471a9.166,9.166,0,0,0-9.166,9.166v4.145a9.166,9.166,0,0,0,9.166,9.166H473.238a9.166,9.166,0,0,0,9.166-9.166v-4.145A9.166,9.166,0,0,0,473.238,718.278Z" transform="translate(-159.305 -411.611)" fill="#3f3d56"/>
        <path id="Path_79" data-name="Path 79" d="M284.426,174.4a14.893,14.893,0,0,0-2.916,7.656c-.34,3.377-1.329,8.778-4.206,11.617a28.7,28.7,0,0,0-5.845,7.57l1.461,1.622c0-3.244,1.948-3.785,1.948-3.785l-.487,3.785c13.151,12.436,42.375,1.081,42.375,1.081l-.974-9.732c2.435,1.081,3.41,8.651,3.41,8.651l3.9-1.081a221.037,221.037,0,0,1-11.2-22.709c-4.384-10.814-11.2-8.11-11.2-8.11C292.648,166.666,287.339,170.65,284.426,174.4Z" transform="translate(-215.931 -135.504)" fill="#2f2e41"/>
        <path id="Path_80" data-name="Path 80" d="M390.055,145.709l4.723-30.855s-5.037-12.279,3.463-13.538,2.834,14.8,2.834,14.8l-2.834,29.6Z" transform="translate(-275.808 -101.246)" fill="#ffb9b9"/>
        <path id="Path_81" data-name="Path 81" d="M382.425,481.311c1.574,2.519,1.889,15.427,1.889,15.427l11.02-6.927-3.148-11.334Z" transform="translate(-271.955 -291.704)" fill="#ffb9b9"/>
        <path id="Path_82" data-name="Path 82" d="M326.381,347.482s-13.853,0-21.409,4.408c-2.429,1.417-3.134,3.972-2.972,6.788A14.631,14.631,0,0,0,315.783,372.3l21.3,1.318c-3.148,8.816,4.093,43.134,4.093,43.134l11.334-1.574s-1.574-11.649-1.259-12.279,3.148-25.187,1.259-38.1-27.706-7.556-27.706-7.556Z" transform="translate(-231.339 -225.567)" fill="#2f2e41"/>
        <path id="Path_83" data-name="Path 83" d="M384.261,503.377s-.945,9.13-.63,10.39,13.223,1.889,24.873-1.574-1.574-7.241-1.574-7.241-7.871-5.352-10.075-7.241-5.352,2.519-5.352,2.519C390.872,503.063,384.261,503.377,384.261,503.377Z" transform="translate(-272.532 -301.177)" fill="#2f2e41"/>
        <circle id="Ellipse_49" data-name="Ellipse 49" cx="11.334" cy="11.334" r="11.334" transform="translate(68.186 64.54) rotate(-80.783)" fill="#ffb9b9"/>
        <path id="Path_84" data-name="Path 84" d="M310.537,226.308c4.093,5.982-.945,9.445-.945,9.445l-2.2,16.372s23.613,2.2,27.706-.945-4.723-13.538-7.871-14.483-3.778-13.853-3.778-13.853Z" transform="translate(-234.07 -162.639)" fill="#ffb9b9"/>
        <path id="Path_85" data-name="Path 85" d="M300.853,242.424l-12.423-1.943-1.417,13.381s.63,29.91,0,35.263,10.7,11.334,10.7,11.334,16.372-1.259,19.52-2.834,13.223,1.574,13.223,1.574a8.514,8.514,0,0,0,3.306-.472c1.889-.63-4.88-45.495-4.88-45.495l-5.982-13.853-7.241,2.834-2.2,10.39Z" transform="translate(-223.771 -170.987)" fill="#1a7fc3"/>
        <path id="Path_86" data-name="Path 86" d="M204.629,122.134l12.594-16.057,8.816-21.724L213.759,79.63l-5.038,17.946-8.816,10.7-.315,1.889Z" transform="translate(-100.771 -40.204)" fill="#1a7fc3"/>
        <path id="Path_87" data-name="Path 87" d="M288.92,314.882l31.192,1.174s11.624-6.4,13.845,1.9-14.378,4.5-14.378,4.5l-29.725.559Z" transform="translate(-224.746 -208.51)" fill="#ffb9b9"/>
        <path id="Path_88" data-name="Path 88" d="M282.9,275.9l14.483.945,1.889,9.76s-17.631-.315-24.558-.63,0-29.6.945-38.411,5.667-6.3,5.667-6.3l2.834,2.2Z" transform="translate(-216.036 -171.771)" fill="#1a7fc3"/>
        <path id="Path_89" data-name="Path 89" d="M137.887,187.9l12.594,5.038L136.628,190.1l-.945-17.946Z" transform="translate(-68.504 -86.917)" opacity="0.15" style="isolation: isolate"/>
        <path id="Path_90" data-name="Path 90" d="M164.425,93.706l-20.795.5-2.476-10.4h23.27Z" transform="translate(-71.267 -42.311)" fill="#2f2e41"/>
      </g>
    </g>
  </g>
</svg>
