<svg id="help" xmlns="http://www.w3.org/2000/svg" width="512" height="512" viewBox="0 0 512 512">
  <path id="Path_1309" data-name="Path 1309" d="M512,346.5A165.881,165.881,0,0,0,390.8,187.02C386.348,83.141,300.457,0,195.5,0,87.7,0,0,87.7,0,195.5a194.891,194.891,0,0,0,27.109,99.371L.719,390.277l95.41-26.387A194.772,194.772,0,0,0,187.016,390.8a165.552,165.552,0,0,0,243.7,98.2l80.566,22.285-22.285-80.566A164.906,164.906,0,0,0,512,346.5ZM100.863,331.453l-57.117,15.8,15.8-57.117-3.6-5.633A164.943,164.943,0,0,1,30,195.5C30,104.242,104.242,30,195.5,30S361,104.242,361,195.5,286.758,361,195.5,361a164.953,164.953,0,0,1-89-25.945Zm367.391,136.8-42.383-11.727-5.66,3.684a135.55,135.55,0,0,1-202.172-70.52c89.82-10.355,161.3-81.832,171.656-171.656a135.555,135.555,0,0,1,70.516,202.176l-3.684,5.66Zm0,0" fill="#1668a0"/>
  <path id="Path_1310" data-name="Path 1310" d="M180.5,271h30v30h-30Zm0,0" fill="#1668a0"/>
  <path id="Path_1311" data-name="Path 1311" d="M225.5,150a29.692,29.692,0,0,1-9.766,22.145L180.5,204.395V241h30V217.605l25.488-23.328A60,60,0,1,0,135.5,150h30a30,30,0,0,1,60,0Zm0,0" fill="#1668a0"/>
</svg>
