<svg xmlns="http://www.w3.org/2000/svg" width="39.385" height="39.375" viewBox="0 0 39.385 39.375">
  <g id="database" transform="translate(-1.985 -2)">
    <path id="Path_1283" data-name="Path 1283" d="M6,52.625H7.312a1.312,1.312,0,0,1,1.312-1.312V50A2.625,2.625,0,0,0,6,52.625Z" transform="translate(-1.38 -16.5)" fill="#1668a0"/>
    <path id="Path_1284" data-name="Path 1284" d="M13,40.594a4.523,4.523,0,0,0,.385,1.834l1.2-.525a3.233,3.233,0,0,1-.274-1.309,3.285,3.285,0,0,1,3.281-3.281V36A4.6,4.6,0,0,0,13,40.594Z" transform="translate(-3.786 -11.688)" fill="#1668a0"/>
    <path id="Path_1285" data-name="Path 1285" d="M41.37,21.031V18.406a.656.656,0,0,0-.5-.637l-.847-.21.453-.755a.665.665,0,0,0-.1-.8l-1.857-1.857a.665.665,0,0,0-.8-.1l-.755.453-.21-.847a.656.656,0,0,0-.637-.5H33.495a.656.656,0,0,0-.637.5l-.21.847-.755-.453a.665.665,0,0,0-.8.1L29.236,16a.665.665,0,0,0-.1.8l.289.479a9,9,0,0,0-1.837-.19c-.223,0-.44.013-.656.026V5.281h-.158C25.8,3.129,20.107,2,14.464,2,8.269,2,1.995,3.352,1.995,5.937V25.625c0,1.647,2.389,2.6,4.6,3.124,0,.053-.007.105-.007.158a7.191,7.191,0,0,0,.276,1.982,5.25,5.25,0,0,0,.381,10.487H36.12a5.25,5.25,0,1,0,0-10.5h-.577a9.109,9.109,0,0,0,1.234-4.594c0-.171-.013-.335-.02-.5l.21-.847.755.453a.665.665,0,0,0,.8-.1l1.857-1.857a.665.665,0,0,0,.1-.8l-.453-.755.847-.21A.656.656,0,0,0,41.37,21.031ZM14.464,3.312c7.219,0,11.156,1.732,11.156,2.625S21.682,8.562,14.464,8.562,3.307,6.83,3.307,5.937,7.245,3.312,14.464,3.312ZM3.307,7.788C5.466,9.16,9.975,9.875,14.464,9.875s9-.715,11.156-2.087V12.5c0,.892-3.937,2.625-11.156,2.625S3.307,13.392,3.307,12.5Zm0,6.562c2.159,1.372,6.667,2.087,11.156,2.087s9-.715,11.156-2.087v2.966a9.211,9.211,0,0,0-5.729,3.99,36.882,36.882,0,0,1-5.427.381c-7.219,0-11.156-1.732-11.156-2.625ZM19.13,22.737a9.533,9.533,0,0,0-.341.945,7.754,7.754,0,0,0-1.037-.814C18.224,22.829,18.683,22.79,19.13,22.737ZM6.74,27.43c-2.5-.617-3.432-1.4-3.432-1.8V20.913a17.112,17.112,0,0,0,6.733,1.851,7.234,7.234,0,0,0-3.3,4.666Zm29.38,4.758a3.937,3.937,0,1,1,0,7.875H7.245a3.937,3.937,0,1,1,0-7.875H7.8a.665.665,0,0,0,.551-.3.679.679,0,0,0,.052-.623,5.74,5.74,0,0,1-.5-2.362,5.906,5.906,0,0,1,10.717-3.426.655.655,0,0,0,1.181-.289,7.9,7.9,0,0,1,7.79-6.786c.223,0,.44.013.656.026v2.6a.656.656,0,0,0,.5.637l.847.21-.453.755a.665.665,0,0,0,.1.8l1.857,1.857a.665.665,0,0,0,.8.1l.755-.453.21.847a.656.656,0,0,0,.637.5h1.969a7.756,7.756,0,0,1-1.68,4.843.656.656,0,0,0,.518,1.063Zm3.938-11.668-1.208.3a.686.686,0,0,0-.453.387.671.671,0,0,0,.046.591l.643,1.063L37.951,24l-1.063-.643a.671.671,0,0,0-.591-.046.686.686,0,0,0-.387.453l-.3,1.208h-1.6l-.3-1.208a.686.686,0,0,0-.387-.453.671.671,0,0,0-.591.046L31.664,24l-1.135-1.135.643-1.063a.671.671,0,0,0,.046-.591.686.686,0,0,0-.453-.387l-1.208-.3v-1.6l1.208-.3a.686.686,0,0,0,.453-.387.671.671,0,0,0-.046-.591l-.643-1.063,1.135-1.135,1.063.643a.671.671,0,0,0,.591.046.686.686,0,0,0,.387-.453l.3-1.208h1.6l.3,1.207a.686.686,0,0,0,.387.453.671.671,0,0,0,.591-.046l1.063-.643,1.135,1.135-.643,1.063a.671.671,0,0,0-.046.591.686.686,0,0,0,.453.387l1.208.3Z" transform="translate(0)" fill="#1668a0"/>
    <path id="Path_1286" data-name="Path 1286" d="M50.625,25a2.625,2.625,0,1,0,2.625,2.625A2.625,2.625,0,0,0,50.625,25Zm0,3.937a1.313,1.313,0,1,1,1.312-1.312A1.312,1.312,0,0,1,50.625,28.937Z" transform="translate(-15.818 -7.906)" fill="#1668a0"/>
  </g>
</svg>
