<svg id="partner-illustration" xmlns="http://www.w3.org/2000/svg" width="548" height="433.673" viewBox="0 0 548 433.673">
  <path id="Path_62" data-name="Path 62" d="M277.171,364.1l5.535,17,7.512-6.326-3.954-13.442Z" transform="translate(-104.841 -136.676)" fill="#ffb9b9"/>
  <path id="Path_63" data-name="Path 63" d="M322.014,350.661l1.977,26.49,47.84,1.186,20.955,47.84,11.466-4.744S391.2,376.36,385.273,362.127s-28.467-3.954-28.467-3.954l-1.977-3.954Z" transform="translate(-220.851 -195.588)" fill="#2f2e41"/>
  <path id="Path_64" data-name="Path 64" d="M441.563,484.751s.791,12.652,1.977,13.442,10.28-.791,10.28-.791,2.732.607,13.838-2.372c12.485-3.349-1.581-8.3-1.581-8.3s-9.094-5.93-13.047-8.7-6.721,3.163-6.721,3.163C447.1,483.565,441.563,484.751,441.563,484.751Z" transform="translate(-266.071 -243.488)" fill="#2f2e41"/>
  <path id="Path_65" data-name="Path 65" d="M950.333,571.681l1.259,44.051,13.425,51.6s-2.937,8.81-.839,10.908,11.747,5.873,11.747,5.873L967.954,574.2Z" transform="translate(-458.515 -279.19)" fill="#2f2e41"/>
  <path id="Path_66" data-name="Path 66" d="M974.248,742.145s4.788,10.533-1.915,11.49-37.663,3.511-35.748-1.915S961.8,741.187,961.8,741.187Z" transform="translate(-453.283 -343.307)" fill="#2f2e41"/>
  <path id="Path_67" data-name="Path 67" d="M995.279,508.845s-5.034,27.27-8.391,31.885,1.678,38.178,1.678,38.178,7.552,48.247,4.2,55.8-2.517,5.034-2.1,9.23,1.259,7.552,0,11.327-1.258,3.356-1.678,5.454,0,13.425,0,13.425-18.04,6.293-20.977-2.937c0,0,4.2-5.874,2.937-10.488a55.874,55.874,0,0,1-2.1-14.264v-8.81l-19.3-72.16-4.615-26.011s1.259-26.431,5.874-28.948S995.279,508.845,995.279,508.845Z" transform="translate(-456.473 -255.371)" fill="#2f2e41"/>
  <path id="Path_68" data-name="Path 68" d="M983.576,770.648s6.293,13.845-2.517,15.1-49.505,4.615-46.988-2.517,33.143-13.845,33.143-13.845Z" transform="translate(-452.321 -353.974)" fill="#2f2e41"/>
  <circle id="Ellipse_47" data-name="Ellipse 47" cx="16.781" cy="16.781" r="16.781" transform="translate(506.497 99.102)" fill="#ffb9b9"/>
  <path id="Path_69" data-name="Path 69" d="M1007.194,299.109l-.312,21.431-20.574.07s5.222-16.777,2.883-20.285S1007.194,299.109,1007.194,299.109Z" transform="translate(-472.122 -175.81)" fill="#ffb9b9"/>
  <path id="Path_70" data-name="Path 70" d="M960.872,345.224s14.684-18.879,26.011-10.908,15.523,26.85,15.523,26.85l-2.517,52.862s-6.293,7.552-2.517,12.586,5.874,3.776,2.937,7.552-6.293,6.713-5.034,7.971-1.259,2.1-1.259,2.1l-44.471,1.259s1.259-1.678-2.517-6.713.839-11.747,0-14.264-1.678.42-2.1-5.454S960.872,345.224,960.872,345.224Z" transform="translate(-456.468 -188.663)" fill="#3f3d56"/>
  <path id="Path_71" data-name="Path 71" d="M968.505,524.593s-.839,10.488-7.132,12.167c-2.36.629-4.13-.57-5.42-2.316a10.3,10.3,0,0,1-.329-11.559l1.554-2.487Z" transform="translate(-459.905 -259.792)" fill="#ffb9b9"/>
  <path id="Path_72" data-name="Path 72" d="M1013.451,318.061s.42,8.391,0,9.649-.839,2.517,0,3.776.42,5.454-.419,5.874,1.678,4.2.839,6.713a18.2,18.2,0,0,1-2.1,4.2c-.419.839-1.1,2.342-1.1,2.342s-12.33-26.256-22.4-19.963a72.971,72.971,0,0,1-18.04,8.391S975.693,309.67,1013.451,318.061Z" transform="translate(-466.045 -182.687)" fill="#3f3d56"/>
  <path id="Path_73" data-name="Path 73" d="M990.173,350.294s13.425,1.259,12.586,18.879,1.259,45.31,1.259,45.31-23.075,35.241-26.85,37.758-4.2,2.1-3.776,4.2.839,3.776-.839,5.454a14.486,14.486,0,0,1-3.356,2.517s-13.425-4.615-12.167-8.81,7.132-10.908,7.132-10.908,10.069-16.362,10.488-18.879.42-2.1,1.678-3.356,4.615-6.293,4.615-8.81v-7.971l-3.517-42.6a12.349,12.349,0,0,1,3.275-9.564A10.685,10.685,0,0,1,990.173,350.294Z" transform="translate(-461.017 -195.411)" fill="#3f3d56"/>
  <path id="Path_74" data-name="Path 74" d="M978.671,259.113a6.838,6.838,0,0,1-6.336-1.451,5.174,5.174,0,0,1-1.024-6.2c1.008-1.674,2.967-2.492,4.832-3.074a42.781,42.781,0,0,1,12.706-1.938,11.407,11.407,0,0,1,5.957,1.237c.87.526,1.606,1.248,2.466,1.79,1.581,1,3.48,1.327,5.216,2.02a13.38,13.38,0,0,1,7.625,8.075,16.123,16.123,0,0,1,.741,3.793,20.781,20.781,0,0,1-1.813,10.3c-2.341,5.1-6.8,9.4-7.426,14.976-2.4-2.013-3.1-5.391-4.959-7.911a10.257,10.257,0,0,0-5.6-3.8,3.261,3.261,0,0,1-1.7-.758,2.81,2.81,0,0,1-.531-1.528l-1.151-8.291c-.234-1.687-.551-3.531-1.846-4.638a6.562,6.562,0,0,0-2.749-1.193,44.341,44.341,0,0,0-7.176-1.17" transform="translate(-466.215 -156.171)" fill="#2f2e41"/>
  <path id="Path_75" data-name="Path 75" d="M1015.046,463.234,991.494,493.8S1013.18,475.669,1015.046,463.234Z" transform="translate(-474.085 -238.17)" opacity="0.1" style="isolation: isolate"/>
  <path id="Path_76" data-name="Path 76" d="M825.523,307.563l.223,28.865-13.678,20.518,11.191-23Z" transform="translate(-307.168 -116.337)" opacity="0.1" style="isolation: isolate"/>
  <path id="Path_77" data-name="Path 77" d="M543.166,384.99H400.517v-2.94H335.835v2.94H192.6a9.649,9.649,0,0,0-9.649,9.649v195.33a9.649,9.649,0,0,0,9.649,9.649H543.166a9.649,9.649,0,0,0,9.649-9.649V394.639A9.649,9.649,0,0,0,543.166,384.99Z" transform="translate(-168.249 -207.461)" fill="#3f3d56"/>
  <rect id="Rectangle_201" data-name="Rectangle 201" width="343.993" height="194.047" transform="translate(27.637 194.581)" opacity="0.1" style="isolation: isolate"/>
  <circle id="Ellipse_48" data-name="Ellipse 48" cx="3.528" cy="3.528" r="3.528" transform="translate(195.811 182.233)" fill="#1a7fc3"/>
  <rect id="Rectangle_202" data-name="Rectangle 202" width="341.82" height="193.975" transform="translate(28.215 194.485)" fill="#e6e6e6"/>
  <rect id="Rectangle_203" data-name="Rectangle 203" width="322.272" height="168.496" transform="translate(37.989 207.739)" fill="#fff"/>
  <rect id="Rectangle_204" data-name="Rectangle 204" width="82.809" height="133.53" transform="translate(67.272 225.222)" fill="#e6e6e6"/>
  <rect id="Rectangle_205" data-name="Rectangle 205" width="69.007" height="36.756" transform="translate(164.375 225.222)" fill="#1a7fc3"/>
  <rect id="Rectangle_206" data-name="Rectangle 206" width="69.007" height="39.547" transform="translate(164.375 272.213)" fill="#e6e6e6"/>
  <rect id="Rectangle_207" data-name="Rectangle 207" width="69.007" height="36.756" transform="translate(164.375 321.996)" fill="#e6e6e6"/>
  <rect id="Rectangle_208" data-name="Rectangle 208" width="82.809" height="58.192" transform="translate(248.169 225.222)" fill="#e6e6e6"/>
  <rect id="Rectangle_209" data-name="Rectangle 209" width="82.809" height="58.192" transform="translate(248.169 300.56)" fill="#1a7fc3"/>
  <path id="Path_78" data-name="Path 78" d="M553.53,718.868H519.958V716.45a.48.48,0,0,0-.48-.48h-11.51a.48.48,0,0,0-.48.48h0v2.419H500.3V716.45a.48.48,0,0,0-.48-.48h-11.51a.48.48,0,0,0-.48.48h0v2.419h-7.194V716.45a.48.48,0,0,0-.48-.48h-11.51a.48.48,0,0,0-.48.48h0v2.419h-7.194V716.45a.48.48,0,0,0-.48-.48h-11.51a.48.48,0,0,0-.48.48h0v2.419h-7.194V716.45a.479.479,0,0,0-.48-.48h-11.51a.48.48,0,0,0-.48.48h0v2.419h-7.194V716.45a.48.48,0,0,0-.48-.48h-11.51a.48.48,0,0,0-.48.48h0v2.419h-7.194V716.45a.479.479,0,0,0-.48-.48H311.336a.479.479,0,0,0-.48.479h0v2.419h-7.194V716.45a.48.48,0,0,0-.48-.48h-11.51a.48.48,0,0,0-.48.479v2.419H284V716.45a.48.48,0,0,0-.48-.48h-11.51a.479.479,0,0,0-.48.479h0v2.419h-7.194V716.45a.48.48,0,0,0-.48-.48h-11.51a.48.48,0,0,0-.48.479h0v2.419h-7.194V716.45a.479.479,0,0,0-.48-.48h-11.51a.479.479,0,0,0-.48.479h0v2.419h-7.194V716.45a.48.48,0,0,0-.48-.48H213.02a.479.479,0,0,0-.48.479h0v2.419h-7.194V716.45a.48.48,0,0,0-.48-.48h-11.51a.479.479,0,0,0-.48.479h0v2.419H170.815a11.51,11.51,0,0,0-11.51,11.51v5.2a11.51,11.51,0,0,0,11.51,11.51H553.53a11.51,11.51,0,0,0,11.51-11.51v-5.2A11.51,11.51,0,0,0,553.53,718.868Z" transform="translate(-159.305 -333.768)" fill="#3f3d56"/>
  <path id="Path_79" data-name="Path 79" d="M287.742,175.753a18.7,18.7,0,0,0-3.661,9.614c-.427,4.241-1.668,11.023-5.281,14.589-5.5,5.432-7.34,9.506-7.34,9.506l1.835,2.037c0-4.074,2.447-4.753,2.447-4.753l-.612,4.753c16.514,15.616,53.213,1.358,53.213,1.358l-1.223-12.222c3.058,1.358,4.281,10.864,4.281,10.864l4.893-1.358a277.573,277.573,0,0,1-14.068-28.517c-5.5-13.58-14.068-10.185-14.068-10.185C298.066,166.044,291.4,171.046,287.742,175.753Z" transform="translate(-201.728 -126.912)" fill="#2f2e41"/>
  <path id="Path_80" data-name="Path 80" d="M390.055,157.081l5.931-38.746s-6.326-15.419,4.349-17,3.558,18.582,3.558,18.582l-3.558,37.165Z" transform="translate(-246.588 -101.246)" fill="#ffb9b9"/>
  <path id="Path_81" data-name="Path 81" d="M382.425,482.035c1.977,3.163,2.372,19.373,2.372,19.373l13.838-8.7-3.954-14.233Z" transform="translate(-243.701 -243.935)" fill="#ffb9b9"/>
  <path id="Path_82" data-name="Path 82" d="M332.622,347.482s-17.4,0-26.885,5.535c-3.05,1.779-3.935,4.988-3.732,8.524a18.373,18.373,0,0,0,17.309,17.1l26.751,1.655c-3.954,11.07,5.14,54.165,5.14,54.165l14.233-1.977s-1.977-14.629-1.582-15.419,3.954-31.629,1.582-47.84-34.792-9.489-34.792-9.489Z" transform="translate(-213.272 -194.386)" fill="#2f2e41"/>
  <path id="Path_83" data-name="Path 83" d="M384.438,504.947s-1.186,11.466-.791,13.047,16.605,2.372,31.234-1.977-1.977-9.093-1.977-9.093-9.884-6.721-12.652-9.093-6.721,3.163-6.721,3.163C392.741,504.552,384.438,504.947,384.438,504.947Z" transform="translate(-244.133 -251.032)" fill="#2f2e41"/>
  <circle id="Ellipse_49" data-name="Ellipse 49" cx="14.233" cy="14.233" r="14.233" transform="translate(85.625 81.047) rotate(-80.783)" fill="#ffb9b9"/>
  <path id="Path_84" data-name="Path 84" d="M311.342,227.194c5.14,7.512-1.186,11.861-1.186,11.861l-2.768,20.559s29.653,2.768,34.792-1.186-5.931-17-9.884-18.187-4.744-17.4-4.744-17.4Z" transform="translate(-215.318 -147.241)" fill="#ffb9b9"/>
  <path id="Path_85" data-name="Path 85" d="M304.4,243.2l-15.6-2.44-1.779,16.8s.791,37.56,0,44.281,13.443,14.233,13.443,14.233,20.559-1.582,24.513-3.558,16.605,1.977,16.605,1.977a10.692,10.692,0,0,0,4.151-.593c2.372-.791-6.128-57.131-6.128-57.131l-7.512-17.4L323,242.937l-2.768,13.047Z" transform="translate(-207.602 -153.495)" fill="#1a7fc3"/>
  <path id="Path_86" data-name="Path 86" d="M205.917,133l15.815-20.164L232.8,85.56l-15.419-5.93-6.326,22.536-11.07,13.443-.4,2.372Z" transform="translate(-75.496 -30.12)" fill="#1a7fc3"/>
  <path id="Path_87" data-name="Path 87" d="M288.92,315.185l39.17,1.474s14.6-8.043,17.386,2.382S327.42,324.7,327.42,324.7l-37.328.7Z" transform="translate(-208.333 -181.607)" fill="#ffb9b9"/>
  <path id="Path_88" data-name="Path 88" d="M285.772,284.84l18.187,1.186,2.372,12.256s-22.141-.4-30.839-.791,0-37.165,1.186-48.235,7.117-7.907,7.117-7.907l3.558,2.768Z" transform="translate(-201.808 -154.083)" fill="#1a7fc3"/>
  <path id="Path_89" data-name="Path 89" d="M138.451,191.921l15.815,6.326-17.4-3.559-1.186-22.536Z" transform="translate(-51.323 -65.118)" opacity="0.15" style="isolation: isolate"/>
  <path id="Path_90" data-name="Path 90" d="M170.377,96.239l-26.113.622L141.155,83.8h29.222Z" transform="translate(-53.393 -31.699)" fill="#2f2e41"/>
</svg>
