<svg xmlns="http://www.w3.org/2000/svg" xmlns:xlink="http://www.w3.org/1999/xlink" width="548.001" height="302.555" viewBox="0 0 548.001 302.555">
  <defs>
    <linearGradient id="linear-gradient" x1="0.5" y1="1" x2="0.5" gradientUnits="objectBoundingBox">
      <stop offset="0" stop-color="gray" stop-opacity="0.251"/>
      <stop offset="0.54" stop-color="gray" stop-opacity="0.122"/>
      <stop offset="1" stop-color="gray" stop-opacity="0.102"/>
    </linearGradient>
    <linearGradient id="linear-gradient-2" x1="30.813" y1="3.039" x2="30.813" y2="4.039" xlink:href="#linear-gradient"/>
  </defs>
  <g id="Group_890" data-name="Group 890" transform="translate(-279.999 -3540)">
    <g id="Group_702" data-name="Group 702" transform="translate(-165.656)">
      <g id="Group_701" data-name="Group 701" transform="translate(445.655 3540)">
        <path id="Path_725" data-name="Path 725" d="M41.769,214.352c-4.951,1.5-10.96,4.566-9.947,9.436.506,2.468,2.766,4.3,4.913,5.843a143.234,143.234,0,0,0,29.991,16.439c5.128,2.06,10.582,3.95,14.455,7.75s5.669,9.111,6.927,14.232a102.679,102.679,0,0,1,2.162,36.93c15.461.261,32.58-.047,43.521-9.9,6.549-5.9,10.06-14.66,17.762-19.229,5.136-3.047,11.466-3.8,17.581-4.439q43.411-4.492,87.272-5.439c12.252-.264,24.772-.358,36.212-4.137s21.825-12.041,24.149-23.243c.359-1.726.593-3.629,1.927-4.833,1.19-1.08,2.974-1.338,4.641-1.529L423.82,220.189c5.5-.669,11.2-1.381,15.831-4.134,4.482-2.676,7.505-6.95,10.4-11.118,6.625-9.539,13.5-21.072,8.911-31.979-3.67-8.716-13.533-13.737-22.958-16.854s-19.572-5.308-27.233-11.419c-11.655-9.3-14.24-24.735-17.524-38.585a206.93,206.93,0,0,0-12.471-36.756c-4.7-10.482-10.427-20.814-18.96-28.972S339.537,26.43,327.587,26.845c-15.608.549-29.338,11.315-44.972,9.977-13.2-1.12-23.949-10.486-35.838-16.312-21.107-10.352-46.019-9.442-69.113-6.215-24.489,3.415-49.129,9.392-68.97,22.835-4.535,3.077-8.873,6.629-11.538,11.258-4.081,7.1-3.73,15.754-5.775,23.644-8.239,31.775-52.409,45.031-61.491,76.575-3.227,11.2-.839,23.343,5.083,33.692,6.368,11.141,19.16,15.891,25.717,25.454C56.308,211.3,47.574,212.589,41.769,214.352Z" transform="translate(-28.447 -12.106)" fill="#1a7fc3" opacity="0.1"/>
        <path id="Path_749" data-name="Path 749" d="M285.63,57.83V293.79H455.343V57.83Z" transform="translate(-167.781 -38.486)" fill="url(#linear-gradient)"/>
        <rect id="Rectangle_226" data-name="Rectangle 226" width="166.736" height="8.994" transform="translate(119.372 21.414)" fill="#f6f7f9"/>
        <g id="Group_692" data-name="Group 692" transform="translate(119.372 21.414)" opacity="0.2">
          <rect id="Rectangle_227" data-name="Rectangle 227" width="166.736" height="8.994" transform="translate(0)" fill="#1a7fc3"/>
        </g>
        <rect id="Rectangle_228" data-name="Rectangle 228" width="166.736" height="222.825" transform="translate(119.372 30.408)" fill="#f6f7f9"/>
        <circle id="Ellipse_200" data-name="Ellipse 200" cx="1.525" cy="1.525" r="1.525" transform="translate(112.963 24.388)" fill="#f6f7f9"/>
        <circle id="Ellipse_201" data-name="Ellipse 201" cx="1.525" cy="1.525" r="1.525" transform="translate(117.639 24.388)" fill="#f6f7f9"/>
        <circle id="Ellipse_202" data-name="Ellipse 202" cx="1.525" cy="1.525" r="1.525" transform="translate(122.314 24.388)" fill="#f6f7f9"/>
        <g id="Group_693" data-name="Group 693" transform="translate(149.667 44.145)" opacity="0.2">
          <rect id="Rectangle_229" data-name="Rectangle 229" width="107.216" height="4.198" transform="translate(0)" fill="#1a7fc3"/>
        </g>
        <g id="Group_694" data-name="Group 694" transform="translate(135.589 68.057)" opacity="0.2">
          <rect id="Rectangle_231" data-name="Rectangle 231" width="134.941" height="48.329" fill="#1a7fc3"/>
        </g>
        <rect id="Rectangle_232" data-name="Rectangle 232" width="77.836" height="4.198" transform="translate(175.383 85.67)" fill="#f6f7f9"/>
        <rect id="Rectangle_233" data-name="Rectangle 233" width="40.381" height="4.198" transform="translate(172.69 94.574)" fill="#f6f7f9"/>
        <g id="Group_695" data-name="Group 695" transform="translate(135.589 129.932)" opacity="0.2">
          <rect id="Rectangle_235" data-name="Rectangle 235" width="134.941" height="48.329" fill="#1a7fc3"/>
        </g>
        <rect id="Rectangle_236" data-name="Rectangle 236" width="77.836" height="4.198" transform="translate(175.383 147.545)" fill="#f6f7f9"/>
        <rect id="Rectangle_237" data-name="Rectangle 237" width="40.381" height="4.198" transform="translate(172.69 156.449)" fill="#f6f7f9"/>
        <g id="Group_696" data-name="Group 696" transform="translate(135.589 191.806)" opacity="0.2">
          <rect id="Rectangle_239" data-name="Rectangle 239" width="134.941" height="48.329" fill="#1a7fc3"/>
        </g>
        <rect id="Rectangle_240" data-name="Rectangle 240" width="77.836" height="4.198" transform="translate(175.383 209.42)" fill="#f6f7f9"/>
        <rect id="Rectangle_241" data-name="Rectangle 241" width="40.381" height="4.198" transform="translate(172.69 218.324)" fill="#f6f7f9"/>
        <g id="Group_700" data-name="Group 700" transform="translate(154.928 44.145)">
          <g id="Group_699" data-name="Group 699" transform="translate(0)">
            <ellipse id="Ellipse_199" data-name="Ellipse 199" cx="38.732" cy="9.683" rx="38.732" ry="9.683" transform="translate(123.89 223.518)" fill="#1a7fc3" opacity="0.1"/>
            <path id="Path_726" data-name="Path 726" d="M897.486,702.112s-3.505-24.149,7.024-40.044a36.961,36.961,0,0,0,6.248-22.537,62.022,62.022,0,0,0-1.706-11.242" transform="translate(-728.013 -466.336)" fill="none" stroke="#535461" stroke-miterlimit="10" stroke-width="2"/>
            <path id="Path_727" data-name="Path 727" d="M932.407,586.4c-.4,2.84-6.726,10.339-6.726,10.339s-3.95-8.974-3.555-11.814a5.194,5.194,0,1,1,10.283,1.475Z" transform="translate(-744.765 -434.506)" fill="#1a7fc3"/>
            <path id="Path_728" data-name="Path 728" d="M949.178,631.734c-1.886,2.161-11.268,5.017-11.268,5.017s1.552-9.7,3.435-11.847a5.2,5.2,0,1,1,7.833,6.827Z" transform="translate(-755.289 -462.897)" fill="#1a7fc3"/>
            <path id="Path_729" data-name="Path 729" d="M934.6,709.129c-2.719.916-12.262-1.338-12.262-1.338s6.228-7.579,8.947-8.492a5.194,5.194,0,0,1,3.315,9.83Z" transform="translate(-744.927 -513.466)" fill="#1a7fc3"/>
            <path id="Path_730" data-name="Path 730" d="M911.262,768.174c-2.525,1.361-12.312.736-12.312.736s4.857-8.519,7.382-9.88a5.194,5.194,0,0,1,4.93,9.145Z" transform="translate(-729.361 -552.932)" fill="#1a7fc3"/>
            <path id="Path_731" data-name="Path 731" d="M903.241,644.239c1.753,2.271,10.951,5.686,10.951,5.686s-.977-9.76-2.729-12.041a5.2,5.2,0,0,0-8.221,6.355Z" transform="translate(-731.494 -471.378)" fill="#1a7fc3"/>
            <path id="Path_732" data-name="Path 732" d="M874.7,710.888c2.341,1.642,12.145,2.144,12.145,2.144s-3.846-9.031-6.2-10.663a5.194,5.194,0,1,0-5.944,8.52Z" transform="translate(-711.74 -515.015)" fill="#1a7fc3"/>
            <path id="Path_733" data-name="Path 733" d="M859.675,782.4c2.04,2.007,11.61,4.164,11.61,4.164s-2.268-9.543-4.311-11.549a5.194,5.194,0,1,0-7.3,7.392Z" transform="translate(-702.194 -562.99)" fill="#1a7fc3"/>
            <path id="Path_734" data-name="Path 734" d="M932.407,586.4c-.4,2.84-6.726,10.339-6.726,10.339s-3.95-8.974-3.555-11.814a5.194,5.194,0,1,1,10.283,1.475Z" transform="translate(-744.765 -434.506)" opacity="0.25"/>
            <path id="Path_735" data-name="Path 735" d="M949.178,631.734c-1.886,2.161-11.268,5.017-11.268,5.017s1.552-9.7,3.435-11.847a5.2,5.2,0,1,1,7.833,6.827Z" transform="translate(-755.289 -462.897)" opacity="0.25"/>
            <path id="Path_736" data-name="Path 736" d="M934.6,709.129c-2.719.916-12.262-1.338-12.262-1.338s6.228-7.579,8.947-8.492a5.194,5.194,0,0,1,3.315,9.83Z" transform="translate(-744.927 -513.466)" opacity="0.25"/>
            <path id="Path_737" data-name="Path 737" d="M911.262,768.174c-2.525,1.361-12.312.736-12.312.736s4.857-8.519,7.382-9.88a5.194,5.194,0,0,1,4.93,9.145Z" transform="translate(-729.361 -552.932)" opacity="0.25"/>
            <path id="Path_738" data-name="Path 738" d="M903.241,644.239c1.753,2.271,10.951,5.686,10.951,5.686s-.977-9.76-2.729-12.041a5.2,5.2,0,0,0-8.221,6.355Z" transform="translate(-731.494 -471.378)" opacity="0.25"/>
            <path id="Path_739" data-name="Path 739" d="M874.7,710.888c2.341,1.642,12.145,2.144,12.145,2.144s-3.846-9.031-6.2-10.663a5.194,5.194,0,1,0-5.944,8.52Z" transform="translate(-711.74 -515.015)" opacity="0.25"/>
            <path id="Path_740" data-name="Path 740" d="M859.675,782.4c2.04,2.007,11.61,4.164,11.61,4.164s-2.268-9.543-4.311-11.549a5.194,5.194,0,1,0-7.3,7.392Z" transform="translate(-702.194 -562.99)" opacity="0.25"/>
            <path id="Path_741" data-name="Path 741" d="M861.026,703.083s-12.991-20.657-9.79-39.468a36.96,36.96,0,0,0-3.408-23.129,62.042,62.042,0,0,0-6.118-9.586" transform="translate(-691.266 -468.073)" fill="none" stroke="#535461" stroke-miterlimit="10" stroke-width="2"/>
            <path id="Path_742" data-name="Path 742" d="M827.239,587.878c.776,2.763-1.963,12.178-1.963,12.178s-7.258-6.6-8.027-9.365a5.2,5.2,0,0,1,10-2.823Z" transform="translate(-674.856 -436.915)" fill="#1a7fc3"/>
            <path id="Path_743" data-name="Path 743" d="M865,620.8c-.846,2.739-8.265,9.155-8.265,9.155s-2.509-9.479-1.672-12.222a5.2,5.2,0,0,1,9.927,3.067Z" transform="translate(-700.037 -456.872)" fill="#1a7fc3"/>
            <path id="Path_744" data-name="Path 744" d="M882.677,694.7c-2.114,1.937-11.757,3.729-11.757,3.729s2.622-9.449,4.736-11.372a5.2,5.2,0,1,1,7.024,7.659Z" transform="translate(-710.706 -504.54)" fill="#1a7fc3"/>
            <path id="Path_745" data-name="Path 745" d="M886.767,758.654c-1.756,2.268-10.957,5.663-10.957,5.663s1-9.757,2.743-12.041a5.194,5.194,0,1,1,8.215,6.355Z" transform="translate(-713.961 -547.445)" fill="#1a7fc3"/>
            <path id="Path_746" data-name="Path 746" d="M824.056,652.574c2.522,1.368,12.309.756,12.309.756s-4.843-8.526-7.358-9.891a5.195,5.195,0,1,0-4.95,9.135Z" transform="translate(-677.706 -476)" fill="#1a7fc3"/>
            <path id="Path_747" data-name="Path 747" d="M824.721,725.035c2.816.549,11.974-2.96,11.974-2.96s-7.175-6.689-9.991-7.235a5.194,5.194,0,1,0-1.983,10.195Z" transform="translate(-677.083 -523.858)" fill="#1a7fc3"/>
            <path id="Path_748" data-name="Path 748" d="M840.706,796.714c2.676,1,12.3-.9,12.3-.9s-5.94-7.8-8.623-8.817a5.194,5.194,0,0,0-3.679,9.7Z" transform="translate(-688.536 -571.795)" fill="#1a7fc3"/>
            <rect id="Rectangle_230" data-name="Rectangle 230" width="14.245" height="4.198" transform="translate(98.182)" fill="#1a7fc3"/>
            <rect id="Rectangle_234" data-name="Rectangle 234" width="14.245" height="4.198" transform="translate(98.182 63.146)" fill="#1a7fc3"/>
            <circle id="Ellipse_203" data-name="Ellipse 203" cx="7.629" cy="7.629" r="7.629" transform="translate(0 40.445)" fill="#f6f7f9"/>
            <rect id="Rectangle_238" data-name="Rectangle 238" width="14.245" height="4.198" transform="translate(98.182 125.021)" fill="#1a7fc3"/>
            <circle id="Ellipse_204" data-name="Ellipse 204" cx="7.629" cy="7.629" r="7.629" transform="translate(0 102.32)" fill="#f6f7f9"/>
            <rect id="Rectangle_242" data-name="Rectangle 242" width="14.245" height="4.198" transform="translate(98.182 186.895)" fill="#1a7fc3"/>
            <circle id="Ellipse_205" data-name="Ellipse 205" cx="7.629" cy="7.629" r="7.629" transform="translate(0 164.195)" fill="#f6f7f9"/>
            <path id="Path_761" data-name="Path 761" d="M450.84,406.14" transform="translate(-431.133 -318.49)" fill="none" stroke="blue" stroke-miterlimit="10" stroke-width="1"/>
          </g>
        </g>
      </g>
    </g>
    <g id="Group_725" data-name="Group 725" transform="translate(642.188 3550.255)">
      <rect id="Rectangle_211" data-name="Rectangle 211" width="185.812" height="1.285" transform="translate(0 282.927)" fill="#3f3d56"/>
      <path id="Path_374" data-name="Path 374" d="M288.022,310.974c-.538,1.726-1.014,3.372-1.415,4.786l.25.09C287.168,314.539,287.564,312.841,288.022,310.974Zm14.92-42.015.075.042-.071-.066Z" transform="translate(-216.507 -225.417)" fill="url(#linear-gradient-2)"/>
      <path id="Path_375" data-name="Path 375" d="M280.869,692.244c2.806.9,4.913,18.15,4.913,18.15l-17.447,4.31s-12.237,1.806-18.051,0-5.616-6.818,2.707-7.62,14.241-11.529,14.241-11.529S278.064,691.343,280.869,692.244Z" transform="translate(-179.137 -426.173)" fill="#2f2e41"/>
      <path id="Path_376" data-name="Path 376" d="M231.132,697.528a10.509,10.509,0,0,0,.679,4.051,35.4,35.4,0,0,1,1.754,13.133q-.057.8-.127,1.669c-.6,6.917-17.339,2.612-18.452,1.806s3.3-20.658,3.3-20.658S231.41,694.722,231.132,697.528Z" transform="translate(-108.924 -427.949)" fill="#2f2e41"/>
      <path id="Path_377" data-name="Path 377" d="M284.481,242.229a.052.052,0,0,0-.009.019c-.354.868-13.5,33.093-11.119,22.554a6.451,6.451,0,0,0,.141-.952c.2-2.589-1.019-5.437-2.985-8.266a40.753,40.753,0,0,0-4.164-4.98c-.759-.787-1.547-1.556-2.344-2.3-2.188-2.051-4.465-3.928-6.484-5.493-3.626-2.829-6.427-4.626-6.427-4.626s25.416-29.632,23.615-16.848c-.5,3.5-2.56,7-1.16,10.242a17.7,17.7,0,0,0,3.838,5.484,29.05,29.05,0,0,0,4.154,3.409c.637.429,1.212.788,1.679,1.061C284,241.988,284.481,242.229,284.481,242.229Z" transform="translate(-180.594 -198.155)" fill="#ffb9b9"/>
      <path id="Path_378" data-name="Path 378" d="M418.974,324.3s-1-.556-2.509-1.221c-4.437-1.933-13.3-4.763-14.415,3.027-1.5,10.45,8.459,9.247,8.459,9.247a46.549,46.549,0,0,1,6.04-1.834,7.759,7.759,0,0,1,3.1-.193Z" transform="translate(-397.305 -249.466)" fill="#ffb9b9"/>
      <path id="Path_379" data-name="Path 379" d="M404.321,335.627h-3c-1.745-2.358-.41-11.317-.41-11.317l2.608.471Z" transform="translate(-381.279 -250.986)" fill="#e6e6e6"/>
      <path id="Path_380" data-name="Path 380" d="M325.25,361.934l-.5,26.369-3.3,12.434s-1.622,12.034-3.612,11.03-10.478,1.853-10.478,1.853l-.4-4.461,2.858-26.218,2.207-13.085s1.254-10.28,2.207-16.3,8.922-1.25,8.922-1.25Z" transform="translate(-250.058 -265.078)" fill="#2f2e41"/>
      <path id="Path_381" data-name="Path 381" d="M365.164,327.21c-5.418-1.518-12.411,0-12.411,0l-31.593.7a13.593,13.593,0,0,1-1.731-14.439s15.495-.608,28.052-2.485,20.828-11.2,20.828-11.2Z" transform="translate(-299.105 -239.739)" fill="#2f2e41"/>
      <path id="Path_382" data-name="Path 382" d="M291.593,221.335c1.8-12.784-23.615,16.848-23.615,16.848s2.8,1.8,6.427,4.626c.335.024.67.024,1.014.024,7.776,0,13.137-4.866,16.221-11.468C290.4,228.427,291.037,225.249,291.593,221.335Z" transform="translate(-194.768 -198.155)" opacity="0.1" style="isolation: isolate"/>
      <path id="Path_383" data-name="Path 383" d="M299.153,217.7a17.389,17.389,0,1,0,0,.084C299.153,217.753,299.153,217.725,299.153,217.7Z" transform="translate(-200.192 -190.571)" fill="#ffb9b9"/>
      <path id="Path_384" data-name="Path 384" d="M282.649,317.875l-.943-57.722-10.077,5.277-8.361,1.98-2.117-1.235-.151-.09-.344-.2s-.113.245-.33.693c-1.83,3.871-10.732,22.8-10.544,24.426.2,1.8-6.352,24.51-6.352,24.51h0l3.159,21.508s-5.993,14.939-4.409,20.456,44.8,1.7,44.8,1.7Z" transform="translate(-177.827 -222.404)" fill="#e6e6e6"/>
      <path id="Path_385" data-name="Path 385" d="M291.276,273.455l-3.357,4.31-.542,1.259a40.6,40.6,0,0,0-3.216,14v5.593l-.7,44.82-3.862,6.889-.7-8.526,1.551-47.98,2.108-10.845,1.151-6.87a30.392,30.392,0,0,0,1.608-3.711,3.441,3.441,0,0,1,4.112-2.155Z" transform="translate(-203.331 -226.748)" fill="#2f2e41"/>
      <path id="Path_386" data-name="Path 386" d="M270.961,255.37l-.1.241-.7,1.726-.792,1.929a16.094,16.094,0,0,0-2.584,2.047c-2.678,2.4-6.564,6.271-8.629,8.351-.872.877-1.419,1.433-1.419,1.433-1.023-.91-2.051-3.951-2.744-6.413-.113-.391-.212-.769-.307-1.118-.349-1.334-.561-2.3-.561-2.3,2.626-.938,8.757-6.932,11.906-10.129a29.047,29.047,0,0,0,4.154,3.409C269.362,254.049,270.961,255.37,270.961,255.37Z" transform="translate(-168.237 -216.492)" fill="#e6e6e6"/>
      <path id="Path_387" data-name="Path 387" d="M316,271.559a19.207,19.207,0,0,1-8.709,2.947s-7.681,4.065-9.105,17.975-7.441,55.722-7.441,55.722-5.357,28.194-1.584,31.122l4.211-34.512s7.37-19.932,7.9-23.62c.472-3.357,6.333-21.715,7.361-24.93.1-.3.156-.472.156-.472l5.861-16.575,3.386-9.073A18.405,18.405,0,0,1,316,271.559Z" transform="translate(-232.123 -227.588)" fill="#2f2e41"/>
      <path id="Path_388" data-name="Path 388" d="M275.778,523.936s-5.913-40.817-4.31-46.324-1.1-46.211-1.1-46.211l-.891-7.634-.5-4.305-.212-1.8-1.033.316a152.347,152.347,0,0,1-30.551,5.6,23.3,23.3,0,0,1-6.837-.547c-4.093-.934-12.005-2.079-13.387-3.06,0,0-.472,1.268-1.061,3.343-1.358,4.8-3.4,13.962-1.83,21.771l2.41,15.792s.948,16.094,4.06,25.723l2.754,13.132L226.9,526.5a160.332,160.332,0,0,1,3.862,21.691c1.316,12.138,8.827,32.273,8.827,32.273s15.966,2.207,16.438-3.206l-5.517-42.217L245.4,474.58s5.541,37.724,8.724,45.848c0,0,4.414,46.31,5.918,53.445s2.5,9.021,2.5,9.021,9.327,3.414,13.538-2.9c0,0,1.2-18.744,2.1-25.463S275.778,523.936,275.778,523.936Z" transform="translate(-152.892 -309.099)" fill="#2f2e41"/>
      <path id="Path_389" data-name="Path 389" d="M230.567,443.686l-6.6,3.211,7.87,14.84c2.957-2.759,2.608-13.736,2.608-13.736Z" transform="translate(-115.013 -307.731)" fill="#ffb9b9"/>
      <path id="Path_390" data-name="Path 390" d="M118.416,281.765l-3.008,2.357,4.008,6.069,5.465,2,.453-4.013Z" transform="translate(-5.701 -145.492)" fill="#e6e6e6"/>
      <g id="Group_665" data-name="Group 665" transform="translate(67.503 125.039)" opacity="0.1">
        <path id="Path_391" data-name="Path 391" d="M320.042,421.735a.142.142,0,0,0,.028-.071,2.48,2.48,0,0,0,.264.151Z" transform="translate(-320.042 -421.664)"/>
      </g>
      <path id="Path_392" data-name="Path 392" d="M242.866,369.654c-3.607,4.211-19.333,4.965-19.333,4.965L211.277,355.3l-3.306-5.206s-3.683-2.556-10.6-14.066-6.687-20.375-6.3-27,4.715-25.647,4.715-25.647a53.415,53.415,0,0,1,1.589-5.682c1.5-4.744,3.782-11.336,5.644-16.617.335-.953.655-1.863.962-2.711.566-1.613-2.311-7.757-2.311-7.757,1.014,2.032,7.4,5.376,9.62,6.776,5.989,3.772,14.349,5.319,14.349,5.319,13.463,1.957,10.977,15.867,10.977,15.867s.151,54.072-.679,60.542S242.866,369.654,242.866,369.654Z" transform="translate(-104.466 -218.38)" fill="#2f2e41"/>
      <path id="Path_393" data-name="Path 393" d="M212.662,291.085s5.715,24.822,7.295,40.161-4.362,25.114-4.362,25.114l-12.708,28.2c-4.362-1.122-13.236-10.374-13.236-10.374l12.732-35.271s-4.72-17.81-7.672-34.215,4.871-23.766,4.871-23.766C212.667,275.977,212.662,291.085,212.662,291.085Z" transform="translate(-81.104 -232.262)" opacity="0.1" style="isolation: isolate"/>
      <path id="Path_394" data-name="Path 394" d="M211.633,291.085s5.715,24.822,7.295,40.161-4.362,25.114-4.362,25.114l-12.732,28.2c-4.362-1.122-13.236-10.374-13.236-10.374l12.732-35.271s-4.725-17.81-7.667-34.215,4.885-23.766,4.885-23.766C211.633,275.977,211.633,291.085,211.633,291.085Z" transform="translate(-79.472 -232.262)" fill="#2f2e41"/>
      <path id="Path_395" data-name="Path 395" d="M226.2,449.276l3.508,10.03,3.909,5.361s2.928,1.957,3.659-1.7-9.172-17.4-9.172-17.4C226.538,444.948,226.2,449.276,226.2,449.276Z" transform="translate(-119.151 -308.664)" fill="#2f2e41"/>
      <path id="Path_396" data-name="Path 396" d="M293.825,219.824s18.153-24.877-4.707-30.256c0,0-6.494-9.741-14.474-4.95a25.007,25.007,0,0,1-12.925,3.437c-3.866,0-7.564,1.513-6.892,7.564,1.345,12.1,8.741,10.085,8.741,10.085s20.057-8.986,20.729,1.1A14.869,14.869,0,0,0,293.825,219.824Z" transform="translate(-198.87 -183.293)" fill="#2f2e41"/>
    </g>
  </g>
</svg>
