<svg xmlns="http://www.w3.org/2000/svg" xmlns:xlink="http://www.w3.org/1999/xlink" width="548" height="287.549" viewBox="0 0 548 287.549">
  <defs>
    <linearGradient id="linear-gradient" x1="0.5" y1="1" x2="0.5" gradientUnits="objectBoundingBox">
      <stop offset="0" stop-color="gray" stop-opacity="0.251"/>
      <stop offset="0.54" stop-color="gray" stop-opacity="0.122"/>
      <stop offset="1" stop-color="gray" stop-opacity="0.102"/>
    </linearGradient>
    <linearGradient id="linear-gradient-2" x1="0.5" y1="1" x2="0.5" y2="-0.001" xlink:href="#linear-gradient"/>
  </defs>
  <g id="contact" transform="translate(0 0.359)">
    <g id="Group_650" data-name="Group 650" transform="translate(212.575 19.641)" opacity="0.1">
      <ellipse id="Ellipse_73" data-name="Ellipse 73" cx="5.69" cy="7.45" rx="5.69" ry="7.45" transform="translate(21.445 153.789)" fill="#3f3d56"/>
      <path id="Path_243" data-name="Path 243" d="M530.215,449a9,9,0,0,0,1.19-4.555c0-4.115-2.55-7.45-5.695-7.45s-5.71,3.345-5.71,7.46a9,9,0,0,0,1.19,4.555,9.305,9.305,0,0,0,0,9.1,9.305,9.305,0,0,0,0,9.1A8.971,8.971,0,0,0,520,471.77c0,4.11,2.55,7.45,5.69,7.45s5.7-3.34,5.7-7.45a8.969,8.969,0,0,0-1.19-4.555,9.306,9.306,0,0,0,0-9.1,9.306,9.306,0,0,0,0-9.1Z" transform="translate(-498.574 -319.631)" fill="#3f3d56"/>
      <ellipse id="Ellipse_74" data-name="Ellipse 74" cx="5.69" cy="7.45" rx="5.69" ry="7.45" transform="translate(21.445 108.264)" fill="#3f3d56"/>
      <ellipse id="Ellipse_75" data-name="Ellipse 75" cx="5.69" cy="7.45" rx="5.69" ry="7.45" transform="translate(21.445 99.159)" fill="#3f3d56"/>
      <path id="Path_244" data-name="Path 244" d="M482.985,246.566a26.547,26.547,0,0,1-2.12-3.12l14.95-2.455-16.17.12a27.31,27.31,0,0,1-.5-21.6l21.7,11.255-20-14.71a27.265,27.265,0,1,1,45,30.5,27.273,27.273,0,0,1,3.11,4.97l-19.415,10.11,20.7-6.945a27.265,27.265,0,0,1-4.4,25.6,27.26,27.26,0,1,1-42.85,0,27.26,27.26,0,0,1,0-33.71Z" transform="translate(-477.149 -202.271)" fill="#1a7fc3"/>
      <path id="Path_245" data-name="Path 245" d="M531.67,324.168a27.136,27.136,0,0,1-5.835,16.855,27.26,27.26,0,1,1-42.85,0C479.33,336.383,531.67,321.108,531.67,324.168Z" transform="translate(-477.149 -263.019)" opacity="0.1"/>
    </g>
    <g id="Group_651" data-name="Group 651" transform="translate(285.86 44.557)" opacity="0.1">
      <ellipse id="Ellipse_76" data-name="Ellipse 76" cx="4.255" cy="5.565" rx="4.255" ry="5.565" transform="translate(16.025 114.828)" fill="#3f3d56"/>
      <path id="Path_246" data-name="Path 246" d="M663.38,436.29a6.716,6.716,0,0,0,.885-3.4c0-3.075-1.905-5.57-4.25-5.57s-4.255,2.5-4.255,5.57a6.664,6.664,0,0,0,.89,3.4,6.949,6.949,0,0,0,0,6.805,6.949,6.949,0,0,0,0,6.8,6.664,6.664,0,0,0-.89,3.4c0,3.075,1.9,5.57,4.255,5.57s4.25-2.5,4.25-5.57a6.716,6.716,0,0,0-.885-3.4,7,7,0,0,0,0-6.8,7,7,0,0,0,0-6.8Z" transform="translate(-639.74 -339.712)" fill="#3f3d56"/>
      <ellipse id="Ellipse_77" data-name="Ellipse 77" cx="4.255" cy="5.565" rx="4.255" ry="5.565" transform="translate(16.025 80.808)" fill="#3f3d56"/>
      <ellipse id="Ellipse_78" data-name="Ellipse 78" cx="4.255" cy="5.565" rx="4.255" ry="5.565" transform="translate(16.025 74.003)" fill="#3f3d56"/>
      <path id="Path_247" data-name="Path 247" d="M628.08,285.106a19.507,19.507,0,0,1-1.585-2.33l11.175-1.835-12.085.09a20.42,20.42,0,0,1-.39-16.145L641.41,273.3l-14.955-11A20.375,20.375,0,1,1,660.1,285.1a20.6,20.6,0,0,1,2.325,3.715l-14.5,7.535,15.465-5.19a20.38,20.38,0,0,1-3.285,19.13,20.37,20.37,0,1,1-32,0,20.37,20.37,0,0,1,0-25.19Z" transform="translate(-623.72 -252.103)" fill="#1a7fc3"/>
      <path id="Path_248" data-name="Path 248" d="M664.47,343a20.286,20.286,0,0,1-4.36,12.6,20.37,20.37,0,1,1-32,0C625.37,352.13,664.47,340.715,664.47,343Z" transform="translate(-623.73 -297.402)" opacity="0.1"/>
    </g>
    <g id="Group_652" data-name="Group 652" transform="translate(491.771 -0.359)" opacity="0.1">
      <ellipse id="Ellipse_79" data-name="Ellipse 79" cx="5.69" cy="7.45" rx="5.69" ry="7.45" transform="translate(21.829 153.789)" fill="#3f3d56"/>
      <path id="Path_249" data-name="Path 249" d="M1080.38,408.995a9,9,0,0,1-1.19-4.555c0-4.115,2.55-7.45,5.7-7.45s5.69,3.335,5.69,7.45a9,9,0,0,1-1.19,4.555,9.3,9.3,0,0,1,0,9.105,9.3,9.3,0,0,1,0,9.1,8.964,8.964,0,0,1,1.19,4.555c0,4.11-2.55,7.45-5.69,7.45s-5.7-3.34-5.7-7.45a8.972,8.972,0,0,1,1.19-4.555,9.306,9.306,0,0,1,0-9.1A9.306,9.306,0,0,1,1080.38,408.995Z" transform="translate(-1057.365 -279.631)" fill="#3f3d56"/>
      <ellipse id="Ellipse_80" data-name="Ellipse 80" cx="5.69" cy="7.45" rx="5.69" ry="7.45" transform="translate(21.829 108.264)" fill="#3f3d56"/>
      <ellipse id="Ellipse_81" data-name="Ellipse 81" cx="5.69" cy="7.45" rx="5.69" ry="7.45" transform="translate(21.829 99.159)" fill="#3f3d56"/>
      <path id="Path_250" data-name="Path 250" d="M1084.361,206.566a26.519,26.519,0,0,0,2.12-3.12l-14.95-2.455,16.17.12a27.31,27.31,0,0,0,.5-21.6l-21.7,11.255,20-14.71a27.265,27.265,0,1,0-45,30.5,27.284,27.284,0,0,0-3.11,4.97l19.415,10.11-20.695-6.945a27.265,27.265,0,0,0,4.4,25.6,27.26,27.26,0,1,0,42.85,0,27.26,27.26,0,0,0,0-33.71Z" transform="translate(-1035.541 -162.271)" fill="#1a7fc3"/>
      <path id="Path_251" data-name="Path 251" d="M1035.81,284.168a27.134,27.134,0,0,0,5.835,16.855,27.26,27.26,0,1,0,42.85,0C1088.15,296.383,1035.81,281.108,1035.81,284.168Z" transform="translate(-1035.675 -223.019)" opacity="0.1"/>
    </g>
    <g id="Group_653" data-name="Group 653" transform="translate(443.878 41.557)" opacity="0.1">
      <ellipse id="Ellipse_82" data-name="Ellipse 82" cx="4.255" cy="5.565" rx="4.255" ry="5.565" transform="translate(16.227 114.828)" fill="#3f3d56"/>
      <path id="Path_252" data-name="Path 252" d="M973.115,430.29a6.716,6.716,0,0,1-.885-3.4c0-3.075,1.9-5.57,4.25-5.57s4.255,2.5,4.255,5.57a6.666,6.666,0,0,1-.89,3.4,6.95,6.95,0,0,1,0,6.805,6.95,6.95,0,0,1,0,6.8,6.665,6.665,0,0,1,.89,3.4c0,3.075-1.905,5.57-4.255,5.57s-4.25-2.5-4.25-5.57a6.715,6.715,0,0,1,.885-3.4,7,7,0,0,1,0-6.8A7,7,0,0,1,973.115,430.29Z" transform="translate(-955.993 -333.712)" fill="#3f3d56"/>
      <ellipse id="Ellipse_83" data-name="Ellipse 83" cx="4.255" cy="5.565" rx="4.255" ry="5.565" transform="translate(16.227 80.808)" fill="#3f3d56"/>
      <ellipse id="Ellipse_84" data-name="Ellipse 84" cx="4.255" cy="5.565" rx="4.255" ry="5.565" transform="translate(16.227 74.003)" fill="#3f3d56"/>
      <path id="Path_253" data-name="Path 253" d="M976.158,279.107a19.49,19.49,0,0,0,1.585-2.33l-11.175-1.835,12.085.09a20.42,20.42,0,0,0,.39-16.145L962.828,267.3l14.955-11a20.375,20.375,0,1,0-33.645,22.8,20.6,20.6,0,0,0-2.325,3.715l14.5,7.535-15.435-5.185a20.38,20.38,0,0,0,3.285,19.13,20.37,20.37,0,1,0,32,0,20.369,20.369,0,0,0,0-25.19Z" transform="translate(-939.756 -246.103)" fill="#1a7fc3"/>
      <path id="Path_254" data-name="Path 254" d="M939.79,337a20.284,20.284,0,0,0,4.36,12.595,20.37,20.37,0,1,0,32,0C978.89,346.13,939.79,334.715,939.79,337Z" transform="translate(-939.768 -291.402)" opacity="0.1"/>
    </g>
    <g id="Group_654" data-name="Group 654" transform="translate(3.655 -0.275)" opacity="0.1">
      <ellipse id="Ellipse_85" data-name="Ellipse 85" cx="5.69" cy="7.45" rx="5.69" ry="7.45" transform="translate(21.45 153.706)" fill="#3f3d56"/>
      <path id="Path_255" data-name="Path 255" d="M112.4,408.995a9,9,0,0,0,1.19-4.555c0-4.115-2.55-7.45-5.69-7.45s-5.69,3.335-5.69,7.45A9,9,0,0,0,103.394,409a9.335,9.335,0,0,0,0,9.1,9.335,9.335,0,0,0,0,9.1,8.965,8.965,0,0,0-1.185,4.555c0,4.11,2.545,7.45,5.69,7.45s5.705-3.33,5.705-7.44a8.97,8.97,0,0,0-1.19-4.555,9.3,9.3,0,0,0,0-9.1,9.305,9.305,0,0,0,0-9.105Z" transform="translate(-80.759 -279.714)" fill="#3f3d56"/>
      <ellipse id="Ellipse_86" data-name="Ellipse 86" cx="5.69" cy="7.45" rx="5.69" ry="7.45" transform="translate(21.45 108.181)" fill="#3f3d56"/>
      <ellipse id="Ellipse_87" data-name="Ellipse 87" cx="5.69" cy="7.45" rx="5.69" ry="7.45" transform="translate(21.45 99.076)" fill="#3f3d56"/>
      <path id="Path_256" data-name="Path 256" d="M65.155,206.649a27.161,27.161,0,0,1-2.12-3.12l14.955-2.455-16.185.145a27.31,27.31,0,0,1-.5-21.6L83,190.874l-20-14.71a27.26,27.26,0,1,1,45,30.5,27.27,27.27,0,0,1,3.11,4.97l-19.42,10.085,20.7-6.945a27.3,27.3,0,0,1-4.4,25.6,27.26,27.26,0,1,1-42.85,0,27.26,27.26,0,0,1,0-33.71Z" transform="translate(-59.309 -162.439)" fill="#1a7fc3"/>
      <path id="Path_257" data-name="Path 257" d="M113.83,284.168a27.135,27.135,0,0,1-5.835,16.855,27.26,27.26,0,1,1-42.85,0C61.49,296.383,113.83,281.108,113.83,284.168Z" transform="translate(-59.309 -223.103)" opacity="0.1"/>
    </g>
    <g id="Group_655" data-name="Group 655" transform="translate(65.44 41.557)" opacity="0.1">
      <ellipse id="Ellipse_88" data-name="Ellipse 88" cx="4.255" cy="5.565" rx="4.255" ry="5.565" transform="translate(16.025 114.829)" fill="#3f3d56"/>
      <path id="Path_258" data-name="Path 258" d="M222.55,430.29a6.715,6.715,0,0,0,.885-3.4c0-3.075-1.9-5.57-4.25-5.57s-4.255,2.5-4.255,5.57a6.715,6.715,0,0,0,.89,3.4,6.95,6.95,0,0,0,0,6.805,6.95,6.95,0,0,0,0,6.8,6.715,6.715,0,0,0-.89,3.4c0,3.075,1.9,5.57,4.255,5.57s4.25-2.5,4.25-5.57a6.715,6.715,0,0,0-.885-3.4,7,7,0,0,0,0-6.8,7,7,0,0,0,0-6.805Z" transform="translate(-198.905 -333.711)" fill="#3f3d56"/>
      <ellipse id="Ellipse_89" data-name="Ellipse 89" cx="4.255" cy="5.565" rx="4.255" ry="5.565" transform="translate(16.025 80.809)" fill="#3f3d56"/>
      <ellipse id="Ellipse_90" data-name="Ellipse 90" cx="4.255" cy="5.565" rx="4.255" ry="5.565" transform="translate(16.025 74.004)" fill="#3f3d56"/>
      <path id="Path_259" data-name="Path 259" d="M187.24,279.106a20.107,20.107,0,0,1-1.585-2.33l11.175-1.835-12.085.09a20.42,20.42,0,0,1-.39-16.145L200.57,267.3l-14.955-11a20.375,20.375,0,1,1,33.645,22.8,20.065,20.065,0,0,1,2.325,3.715l-14.5,7.535,15.465-5.19a20.38,20.38,0,0,1-3.285,19.13,20.37,20.37,0,1,1-32,0,20.37,20.37,0,0,1,0-25.19Z" transform="translate(-182.88 -246.103)" fill="#1a7fc3"/>
      <path id="Path_260" data-name="Path 260" d="M223.63,337a20.285,20.285,0,0,1-4.36,12.595,20.37,20.37,0,1,1-32,0C184.52,346.13,223.63,334.715,223.63,337Z" transform="translate(-182.89 -291.402)" opacity="0.1"/>
    </g>
    <ellipse id="Ellipse_91" data-name="Ellipse 91" cx="274" cy="4.43" rx="274" ry="4.43" transform="translate(0 241.956)" fill="#1a7fc3" opacity="0.1"/>
    <ellipse id="Ellipse_92" data-name="Ellipse 92" cx="274" cy="4.43" rx="274" ry="4.43" transform="translate(0 278.331)" fill="#1a7fc3" opacity="0.1"/>
    <ellipse id="Ellipse_93" data-name="Ellipse 93" cx="274" cy="4.43" rx="274" ry="4.43" transform="translate(0 166.041)" fill="#1a7fc3" opacity="0.1"/>
    <ellipse id="Ellipse_94" data-name="Ellipse 94" cx="274" cy="4.43" rx="274" ry="4.43" transform="translate(0 203.996)" fill="#1a7fc3" opacity="0.1"/>
    <path id="Path_261" data-name="Path 261" d="M833.375,260.82a9.15,9.15,0,0,0-5.3.58,7.825,7.825,0,0,1-6.37,0,8.94,8.94,0,0,0-7.5.145,4.621,4.621,0,0,1-2.155.54c-3.04,0-5.565-3.06-6.09-7.1a5.94,5.94,0,0,0,1.5-1.635A8.533,8.533,0,0,1,822.7,253.3a5.84,5.84,0,0,0,5.045,2.77h.08C830.265,256.045,832.36,257.985,833.375,260.82Z" transform="translate(-428.98 -205.814)" fill="#1a7fc3" opacity="0.1"/>
    <path id="Path_262" data-name="Path 262" d="M842.62,236.855l-4.91,3.11,3-5.42a4.85,4.85,0,0,0-2.97-1.055h-.08a5.673,5.673,0,0,1-1-.075l-1.69,1.055.715-1.3a5.9,5.9,0,0,1-2.915-2.21l-3,1.89,1.88-3.42a8.713,8.713,0,0,0-6.67-3.37,9.15,9.15,0,0,0-7.64,4.71,5.7,5.7,0,0,1-5.045,2.72h-.165c-3.42,0-6.19,3.875-6.19,8.655s2.77,8.66,6.19,8.66a4.7,4.7,0,0,0,2.155-.54,8.93,8.93,0,0,1,7.5-.15,7.775,7.775,0,0,0,6.37,0,8.96,8.96,0,0,1,7.43.145,4.65,4.65,0,0,0,2.13.53c3.42,0,6.19-3.88,6.19-8.66a10.966,10.966,0,0,0-1.285-5.275Z" transform="translate(-428.97 -194.524)" fill="#1a7fc3" opacity="0.1"/>
    <path id="Path_263" data-name="Path 263" d="M424.08,259.065a6.42,6.42,0,0,0-3.715.4,5.46,5.46,0,0,1-4.455,0,6.24,6.24,0,0,0-5.245.105,3.311,3.311,0,0,1-1.5.375c-2.125,0-3.895-2.14-4.265-4.965a4.162,4.162,0,0,0,1.065-1.145,5.975,5.975,0,0,1,10.665-.04,4.1,4.1,0,0,0,3.535,1.94h.055C421.9,255.73,423.365,257.09,424.08,259.065Z" transform="translate(-228.45 -206.764)" fill="#1a7fc3" opacity="0.1"/>
    <path id="Path_264" data-name="Path 264" d="M430.545,242.3l-3.435,2.18,2.085-3.795a3.375,3.375,0,0,0-2.075-.74h-.06a3.746,3.746,0,0,1-.71-.055l-1.165.74.5-.91a4.15,4.15,0,0,1-2.04-1.545l-2.085,1.32,1.32-2.39a6.105,6.105,0,0,0-4.67-2.365,6.4,6.4,0,0,0-5.345,3.3,4,4,0,0,1-3.535,1.905h-.115c-2.4,0-4.335,2.71-4.335,6.06s1.94,6.06,4.335,6.06a3.25,3.25,0,0,0,1.5-.38,6.25,6.25,0,0,1,5.24-.1,5.37,5.37,0,0,0,4.46.03,6.27,6.27,0,0,1,5.2.1,3.241,3.241,0,0,0,1.5.37c2.39,0,4.33-2.715,4.33-6.06A7.665,7.665,0,0,0,430.545,242.3Z" transform="translate(-228.44 -198.864)" fill="#1a7fc3" opacity="0.1"/>
    <path id="Path_265" data-name="Path 265" d="M321.59,337.475a6.41,6.41,0,0,1,3.71.405,5.47,5.47,0,0,0,4.46,0,6.26,6.26,0,0,1,5.245.1,3.235,3.235,0,0,0,1.5.38c2.125,0,3.9-2.145,4.26-4.97a4.075,4.075,0,0,1-1.06-1.145,5.981,5.981,0,0,0-10.67-.035,4.1,4.1,0,0,1-3.53,1.94h-.055C323.765,334.16,322.3,335.515,321.59,337.475Z" transform="translate(-186.795 -245.969)" fill="#1a7fc3" opacity="0.1"/>
    <path id="Path_266" data-name="Path 266" d="M307.744,320.745l3.44,2.18-2.09-3.79a3.4,3.4,0,0,1,2.08-.745h.055a4.251,4.251,0,0,0,.715-.05l1.165.735-.5-.9a4.146,4.146,0,0,0,2.035-1.545l2.085,1.32-1.3-2.4a6.1,6.1,0,0,1,4.67-2.36,6.4,6.4,0,0,1,5.345,3.3,4,4,0,0,0,3.53,1.905h.12c2.39,0,4.33,2.715,4.33,6.06s-1.94,6.06-4.33,6.06a3.245,3.245,0,0,1-1.5-.375,6.24,6.24,0,0,0-5.245-.105,5.431,5.431,0,0,1-2.24.5,5.5,5.5,0,0,1-2.22-.47,6.26,6.26,0,0,0-5.2.1,3.24,3.24,0,0,1-1.5.37c-2.4,0-4.335-2.71-4.335-6.06A7.721,7.721,0,0,1,307.744,320.745Z" transform="translate(-179.429 -238.089)" fill="#1a7fc3" opacity="0.1"/>
    <path id="Path_267" data-name="Path 267" d="M710.7,599.65c1.305-2.42-.175-5.38-1.875-7.535s-3.78-4.4-3.735-7.145c.065-3.945,4.255-6.28,7.6-8.37a37.158,37.158,0,0,0,6.825-5.5,10.073,10.073,0,0,0,2.095-2.81,11.366,11.366,0,0,0,.63-5q-.215-8.445-.835-16.88" transform="translate(-378.544 -354.699)" fill="none" stroke="#3f3d56" stroke-miterlimit="10" stroke-width="4"/>
    <path id="Path_268" data-name="Path 268" d="M738.146,539.979a6.155,6.155,0,0,0-3.075-5.045l-1.38,2.725.045-3.3a6.155,6.155,0,1,0,4.41,5.62Z" transform="translate(-388.922 -348.548)" fill="#1a7fc3"/>
    <path id="Path_269" data-name="Path 269" d="M716.861,620.252a6.155,6.155,0,0,1-11.62-2.5,6,6,0,0,1,.4-2.5,6.16,6.16,0,0,1,11.5.065l-3.845,3.13,4.23-1A6.121,6.121,0,0,1,716.861,620.252Z" transform="translate(-378.616 -387.161)" fill="#1a7fc3"/>
    <path id="Path_270" data-name="Path 270" d="M715.965,592.963a6.155,6.155,0,0,1-1.95-12.075l-.035,2.535,1.4-2.76h0a6.157,6.157,0,1,1,.575,12.3Z" transform="translate(-380.76 -371.823)" fill="#1a7fc3"/>
    <path id="Path_271" data-name="Path 271" d="M745.827,573.078a6.155,6.155,0,1,1,2.72-11.5l-1.085,3,2.215-2.19a6.155,6.155,0,0,1-3.87,10.685Z" transform="translate(-395.677 -361.883)" fill="#1a7fc3"/>
    <path id="Path_272" data-name="Path 272" d="M737.307,545c-1.42.155-2.8.6-4.23.685a4.577,4.577,0,0,1-3.89-1.36,19.712,19.712,0,0,1-1.14-2,4.382,4.382,0,0,0-1.55-1.46,6.155,6.155,0,1,0,11.5,4.09C737.772,544.955,737.537,544.97,737.307,545Z" transform="translate(-388.912 -351.924)" opacity="0.1"/>
    <path id="Path_273" data-name="Path 273" d="M745.854,576.6A6.155,6.155,0,0,1,740,567.82a4.559,4.559,0,0,1,1.235,1.24,20.821,20.821,0,0,0,1.22,2.035,5.02,5.02,0,0,0,4.085,1.425c1.485-.075,2.92-.5,4.4-.625.205,0,.41-.03.62-.035A6.155,6.155,0,0,1,745.854,576.6Z" transform="translate(-395.704 -365.404)" opacity="0.1"/>
    <path id="Path_274" data-name="Path 274" d="M715.967,596.605a6.155,6.155,0,0,1-5.9-8.665,5,5,0,0,1,1.305,1.25,20.591,20.591,0,0,0,1.335,2.075,5.573,5.573,0,0,0,4.355,1.5c1.57-.065,3-.4,4.5-.5A6.165,6.165,0,0,1,715.967,596.605Z" transform="translate(-380.762 -375.464)" opacity="0.1"/>
    <path id="Path_275" data-name="Path 275" d="M716.861,624.17a6.155,6.155,0,0,1-11.62-2.5,6,6,0,0,1,.4-2.5,6.149,6.149,0,0,1,1.35,1.205c.585.71.97,1.5,1.65,2.185a7.692,7.692,0,0,0,5.1,1.79,25.87,25.87,0,0,0,3.125-.18Z" transform="translate(-378.616 -391.079)" opacity="0.1"/>
    <path id="Path_276" data-name="Path 276" d="M100.7,527.65c1.3-2.42-.175-5.38-1.875-7.535s-3.78-4.41-3.735-7.145c.065-3.945,4.255-6.28,7.6-8.37a37.15,37.15,0,0,0,6.825-5.5,10.065,10.065,0,0,0,2.1-2.81,11.365,11.365,0,0,0,.63-5q-.22-8.445-.835-16.88" transform="translate(-73.544 -318.7)" fill="none" stroke="#3f3d56" stroke-miterlimit="10" stroke-width="4"/>
    <path id="Path_277" data-name="Path 277" d="M128.147,467.979a6.155,6.155,0,0,0-3.075-5.045l-1.38,2.725.045-3.3a6.155,6.155,0,1,0,4.41,5.62Z" transform="translate(-83.922 -312.548)" fill="#1a7fc3"/>
    <path id="Path_278" data-name="Path 278" d="M106.861,548.252a6.155,6.155,0,0,1-11.62-2.5,6,6,0,0,1,.4-2.5,6.16,6.16,0,0,1,11.5.065l-3.845,3.13,4.23-1a6.12,6.12,0,0,1-.665,2.805Z" transform="translate(-73.616 -351.161)" fill="#1a7fc3"/>
    <path id="Path_279" data-name="Path 279" d="M105.965,520.963a6.155,6.155,0,0,1-1.95-12.075l-.035,2.535,1.395-2.76h0a6.157,6.157,0,0,1,.575,12.3Z" transform="translate(-75.76 -335.823)" fill="#1a7fc3"/>
    <path id="Path_280" data-name="Path 280" d="M135.827,501.078a6.155,6.155,0,1,1,2.72-11.5l-1.085,3,2.215-2.19a6.155,6.155,0,0,1-3.87,10.685Z" transform="translate(-90.677 -325.883)" fill="#1a7fc3"/>
    <path id="Path_281" data-name="Path 281" d="M127.307,473c-1.42.155-2.8.595-4.23.685a4.577,4.577,0,0,1-3.89-1.36,19.75,19.75,0,0,1-1.14-2,4.381,4.381,0,0,0-1.55-1.46,6.155,6.155,0,1,0,11.5,4.09C127.772,472.955,127.537,472.97,127.307,473Z" transform="translate(-83.912 -315.924)" opacity="0.1"/>
    <path id="Path_282" data-name="Path 282" d="M135.854,504.6A6.155,6.155,0,0,1,130,495.82a4.555,4.555,0,0,1,1.235,1.24,20.864,20.864,0,0,0,1.22,2.035,5.021,5.021,0,0,0,4.085,1.425c1.485-.075,2.92-.5,4.4-.625.205,0,.41-.03.62-.035A6.155,6.155,0,0,1,135.854,504.6Z" transform="translate(-90.704 -329.404)" opacity="0.1"/>
    <path id="Path_283" data-name="Path 283" d="M105.967,524.605a6.155,6.155,0,0,1-5.9-8.665,5,5,0,0,1,1.3,1.25,20.619,20.619,0,0,0,1.335,2.075,5.574,5.574,0,0,0,4.355,1.5c1.57-.065,3-.405,4.5-.5A6.165,6.165,0,0,1,105.967,524.605Z" transform="translate(-75.762 -339.464)" opacity="0.1"/>
    <path id="Path_284" data-name="Path 284" d="M106.861,552.17a6.155,6.155,0,0,1-11.62-2.5,6,6,0,0,1,.4-2.5,6.145,6.145,0,0,1,1.35,1.205c.585.71.97,1.5,1.65,2.185a7.692,7.692,0,0,0,5.1,1.79,25.869,25.869,0,0,0,3.125-.18Z" transform="translate(-73.616 -355.079)" opacity="0.1"/>
    <path id="Path_285" data-name="Path 285" d="M500.964,445.29c-1.305-2.415.175-5.375,1.88-7.53s3.775-4.4,3.73-7.145c-.06-3.95-4.25-6.28-7.6-8.37a37,37,0,0,1-6.82-5.5,9.893,9.893,0,0,1-2.1-2.8,11.523,11.523,0,0,1-.63-5q.225-8.445.835-16.88" transform="translate(-270.704 -277.524)" fill="none" stroke="#3f3d56" stroke-miterlimit="10" stroke-width="4"/>
    <path id="Path_286" data-name="Path 286" d="M478.383,385.619a6.15,6.15,0,0,1,3.07-5.045l1.38,2.725-.04-3.3a6.312,6.312,0,0,1,2.025-.245,6.155,6.155,0,1,1-6.435,5.865Z" transform="translate(-265.188 -271.369)" fill="#1a7fc3"/>
    <path id="Path_287" data-name="Path 287" d="M499.66,465.842a6.155,6.155,0,1,0-.295-4.955l3.845,3.13-4.23-1a6.121,6.121,0,0,0,.68,2.825Z" transform="translate(-275.49 -309.932)" fill="#1a7fc3"/>
    <path id="Path_288" data-name="Path 288" d="M500.553,438.6a6.155,6.155,0,0,0,1.955-12.075l.03,2.535-1.4-2.76h0a6.155,6.155,0,0,0-6.45,5.845,6.079,6.079,0,0,0,.265,2.1A6.15,6.15,0,0,0,500.553,438.6Z" transform="translate(-273.343 -294.642)" fill="#1a7fc3"/>
    <path id="Path_289" data-name="Path 289" d="M470.657,418.7a6.155,6.155,0,1,0-2.725-11.5l1.09,3-2.24-2.145a6.105,6.105,0,0,0-2,4.25,5.956,5.956,0,0,0,.155,1.7A6.15,6.15,0,0,0,470.657,418.7Z" transform="translate(-258.387 -284.692)" fill="#1a7fc3"/>
    <path id="Path_290" data-name="Path 290" d="M479.36,390.635c1.42.155,2.8.6,4.225.685a4.6,4.6,0,0,0,3.895-1.36,19.7,19.7,0,0,0,1.135-2,4.4,4.4,0,0,1,1.555-1.46,6.155,6.155,0,1,1-11.5,4.085C478.895,390.59,479.125,390.61,479.36,390.635Z" transform="translate(-265.335 -274.744)" opacity="0.1"/>
    <path id="Path_291" data-name="Path 291" d="M470.835,422.22a6.16,6.16,0,0,0,5.855-8.78,4.574,4.574,0,0,0-1.24,1.24,20.84,20.84,0,0,1-1.22,2.035,5,5,0,0,1-4.08,1.425c-1.485-.075-2.92-.5-4.4-.625-.2,0-.415-.03-.62-.035a6.15,6.15,0,0,0,5.7,4.74Z" transform="translate(-258.565 -288.214)" opacity="0.1"/>
    <path id="Path_292" data-name="Path 292" d="M500.83,442.245a6.15,6.15,0,0,0,5.905-8.665,4.916,4.916,0,0,0-1.3,1.25,20.628,20.628,0,0,1-1.335,2.075,5.585,5.585,0,0,1-4.36,1.5c-1.575-.065-3-.405-4.5-.5A6.15,6.15,0,0,0,500.83,442.245Z" transform="translate(-273.62 -298.284)" opacity="0.1"/>
    <path id="Path_293" data-name="Path 293" d="M500.34,469.81a6.155,6.155,0,0,0,11.225-5,5.913,5.913,0,0,0-1.35,1.2c-.585.71-1,1.5-1.65,2.185a7.7,7.7,0,0,1-5.1,1.79,26.963,26.963,0,0,1-3.125-.18Z" transform="translate(-276.17 -313.899)" opacity="0.1"/>
    <circle id="Ellipse_95" data-name="Ellipse 95" cx="49.98" cy="49.98" r="49.98" transform="translate(339.885 68.931)" fill="#3f3d56"/>
    <path id="Path_294" data-name="Path 294" d="M830.405,390.919a37.868,37.868,0,0,0-8-5.345c-2.395-1.15-3.275-1.13-4.97.095-1.41,1-2.325,1.965-3.945,1.61s-4.83-2.775-7.935-5.87-5.515-6.285-5.86-7.93.6-2.54,1.615-3.95c1.22-1.695,1.255-2.575.1-4.97a38.359,38.359,0,0,0-5.35-8c-1.755-1.75-2.135-1.365-3.1-1a17.9,17.9,0,0,0-2.835,1.5,8.554,8.554,0,0,0-3.4,3.595c-.685,1.46-1.46,4.17,2.525,11.265a62.848,62.848,0,0,0,11.05,14.735h0a62.94,62.94,0,0,0,14.785,11.07c7.09,4,9.805,3.2,11.265,2.525a8.394,8.394,0,0,0,3.59-3.4,17.658,17.658,0,0,0,1.5-2.835C831.77,393.054,832.16,392.664,830.405,390.919Z" transform="translate(-419.085 -259.119)" fill="#1a7fc3"/>
    <path id="Path_295" data-name="Path 295" d="M781.7,300.86a50,50,0,1,0,49.975,49.983A50,50,0,0,0,781.7,300.86Zm0,93.31a43.335,43.335,0,1,1,43.335-43.335A43.335,43.335,0,0,1,781.7,394.17Z" transform="translate(-391.84 -231.924)" opacity="0.1"/>
    <circle id="Ellipse_96" data-name="Ellipse 96" cx="49.98" cy="49.98" r="49.98" transform="translate(225.06 144.846)" fill="#3f3d56"/>
    <g id="Group_662" data-name="Group 662">
      <path id="Path_296" data-name="Path 296" d="M601.585,522.334,586.62,537.559a.27.27,0,0,0,0,.39l10.5,11.165a1.807,1.807,0,1,1-2.555,2.555L584.12,540.544a.285.285,0,0,0-.4,0l-2.545,2.57a11.185,11.185,0,0,1-8,3.365,11.43,11.43,0,0,1-8.14-3.46l-2.445-2.5a.285.285,0,0,0-.4,0l-10.42,11.1a1.807,1.807,0,1,1-2.555-2.555l10.46-11.14a.3.3,0,0,0,0-.39L544.71,522.309a.275.275,0,0,0-.47.195v30.465a4.46,4.46,0,0,0,4.445,4.445H597.62a4.46,4.46,0,0,0,4.445-4.445v-30.44a.275.275,0,0,0-.48-.2Z" transform="translate(-298.119 -342.608)" fill="#1a7fc3"/>
      <path id="Path_297" data-name="Path 297" d="M574.865,538.065a7.57,7.57,0,0,0,5.46-2.25L602.12,513.63a4.351,4.351,0,0,0-2.75-1H550.4a4.32,4.32,0,0,0-2.75,1l21.8,22.185A7.54,7.54,0,0,0,574.865,538.065Z" transform="translate(-299.824 -337.81)" fill="#1a7fc3"/>
    </g>
    <path id="Path_298" data-name="Path 298" d="M550.8,452.69a50,50,0,1,0,49.975,49.983A50,50,0,0,0,550.8,452.69Zm0,93.31a43.335,43.335,0,1,1,43.335-43.335A43.335,43.335,0,0,1,550.8,546Z" transform="translate(-276.385 -307.839)" opacity="0.1"/>
    <circle id="Ellipse_97" data-name="Ellipse 97" cx="49.98" cy="49.98" r="49.98" transform="translate(106.445 107.521)" fill="#3f3d56"/>
    <path id="Path_299" data-name="Path 299" d="M344.925,430.16,325,476.13l1.86,1.86,18.07-7.97L363,477.99l1.86-1.86Z" transform="translate(-188.5 -296.574)" fill="#1a7fc3"/>
    <path id="Path_300" data-name="Path 300" d="M314.825,378a49.971,49.971,0,1,0,.008,0Zm0,93.31a35.679,35.679,0,1,1,.005.02Z" transform="translate(-158.4 -270.494)" opacity="0.1"/>
    <path id="Path_301" data-name="Path 301" d="M817.063,582.17q-.68-1.66-1.4-3.31a9.829,9.829,0,0,0-1.7-2.945,3.121,3.121,0,0,0-1-.75,4.264,4.264,0,0,0-1.305-.26,10.414,10.414,0,0,0-2.05-.055c-.265-.08-.565-.185-.86-.305a7.14,7.14,0,0,0,5.32-6.625v-.3a7.125,7.125,0,0,0-7.1-7.155,7,7,0,0,0-3.725,1.065,6.685,6.685,0,0,0-7.5,3.615,8.266,8.266,0,0,0-2.55,6.15v.315c.13,3.885,2.64,7,5.81,7.315a3.331,3.331,0,0,0-.92.615c-.97.935-1.13,2.42-1.235,3.77l-.075,1-1.68.6a.31.31,0,0,0-.075.545l1.6,1.145v.285a1.244,1.244,0,0,0,.03.325,2.294,2.294,0,0,0-.62.885,4.092,4.092,0,0,0-.145,1.62l.06,1.4a10.949,10.949,0,0,0,.425,3.1c.21.62,1.12,2.115,1.775,2.125a64.686,64.686,0,0,0-.765,8.55c-.075.075.135.145.5.205.36,2.76,1.535,10.5,3.62,13.9a29.326,29.326,0,0,1,.785,3.38s.595,7.355,1.38,9.54a48.579,48.579,0,0,1,1.345,7.78.765.765,0,0,0-.555.57c-.395,1.19-2.955,3-2.955,3a12.372,12.372,0,0,0-2.21,1.415c-.805.725-.775,1.38,2.8.97,6.9-.8,8.08-3,8.08-3s-.11-.37-.275-.85a9.238,9.238,0,0,0-.905-2.135c-.1-.1-.2.065-.32.315a42.819,42.819,0,0,1-.47-9.655,15.666,15.666,0,0,0-.79-5.765,10.913,10.913,0,0,1,0-3.775c.395-1.59-1.575-9.345-1.575-9.345l-1.13-5.71a1.637,1.637,0,0,1,.315.665l.03.115.03.165a.31.31,0,0,0,.08.155c.77,3.2,2.88,12.065,2.88,13.365,0,1.59,1.97,5.565,1.97,5.565s.785,6.56,2.165,9.14a13.253,13.253,0,0,1,1.025,6.115h0a5.665,5.665,0,0,1-.63,2.03,4.825,4.825,0,0,0-.745,1.295l-.045.095s-.59,1.2-.195,1.395a9.685,9.685,0,0,0,4.73.6s.79-1,.79-1.39a6.282,6.282,0,0,0-.09-.71c-.145-.94-.415-2.42-.42-2.435a6.824,6.824,0,0,0-.5-2.42l-.2-5.565a25.69,25.69,0,0,0-1.38-11.135s-1-3.575-.785-4.57-.4-11.53-.4-11.53l-.06-.15a11.383,11.383,0,0,1,.06-2.235,29.692,29.692,0,0,0-.79-7.55,6.55,6.55,0,0,1-.28-1.645c.045-.415.18-1.63.365-3.14a56.471,56.471,0,0,0,5.81-.5.725.725,0,0,0,.5-.2.7.7,0,0,0,.115-.4C819.293,587.85,818.2,584.94,817.063,582.17Zm-3.965,6.3c.2-1.425.425-2.8.645-3.83l.03.09a27.828,27.828,0,0,1,.95,3.15A10.709,10.709,0,0,1,813.1,588.475Z" transform="translate(-422.598 -361.724)" fill="url(#linear-gradient)"/>
    <path id="Path_302" data-name="Path 302" d="M802.37,648.29s1.18,10.615,3.735,14.74a28.6,28.6,0,0,1,.785,3.34s.59,7.27,1.375,9.43,1.375,8.06,1.375,8.06,2.75,3.14,3.735.59a41.412,41.412,0,0,1-.59-10.22,15.39,15.39,0,0,0-.785-5.7,10.665,10.665,0,0,1,0-3.73c.39-1.575-1.575-9.235-1.575-9.235l-1.57-7.665Z" transform="translate(-427.185 -405.444)" fill="#be6f72"/>
    <path id="Path_303" data-name="Path 303" d="M815.856,721.95s-1.18,2.16-8.055,2.945c-3.57.405-3.6-.24-2.79-.96a12.453,12.453,0,0,1,2.2-1.4s2.555-1.765,2.945-2.945,1.77-.195,1.77-.195c1.965,2.945,2.36-.79,2.75-.4a8.865,8.865,0,0,1,.9,2.1C815.746,721.58,815.856,721.95,815.856,721.95Z" transform="translate(-428.291 -440.98)" fill="#ff6f61"/>
    <path id="Path_304" data-name="Path 304" d="M815.856,724.085s-1.18,2.16-8.055,2.945c-3.57.4-3.6-.24-2.79-.96.56.355,1.69.5,3.965-.415,3.275-1.34,5.65-2.115,6.605-2.415C815.746,723.715,815.856,724.085,815.856,724.085Z" transform="translate(-428.291 -443.114)" opacity="0.1"/>
    <path id="Path_305" data-name="Path 305" d="M817.91,674.23a15.392,15.392,0,0,0-.785-5.7,10.665,10.665,0,0,1,0-3.73c.39-1.575-1.575-9.235-1.575-9.235l-1.57-7.665-1.36.08,1.555,7.585s1.965,7.66,1.575,9.235a10.659,10.659,0,0,0,0,3.73,14.941,14.941,0,0,1,.785,5.7,41.414,41.414,0,0,0,.59,10.22,1.72,1.72,0,0,1-.57.81,1.285,1.285,0,0,0,1.945-.81A41.411,41.411,0,0,1,817.91,674.23Z" transform="translate(-432.31 -405.444)" opacity="0.1"/>
    <path id="Path_306" data-name="Path 306" d="M806.883,562.42a7,7,0,0,0-3.71,1.055,6.675,6.675,0,0,0-7.5,3.575,8.14,8.14,0,0,0-2.545,6.08c0,4.18,2.815,7.565,6.285,7.565a6.347,6.347,0,0,0,5.7-4.355,6.886,6.886,0,0,0,1.77.23,7.075,7.075,0,0,0,0-14.15Z" transform="translate(-422.564 -362.704)" fill="#3f3d56"/>
    <path id="Path_307" data-name="Path 307" d="M824.35,650.65l.59,1.57s.59,10.415.39,11.4.79,4.5.79,4.5a25.155,25.155,0,0,1,1.375,11l.2,5.5s.785,2.16.4,2.555-3.355-.35-3.355-.35.4-4.125-1-6.68-2.16-9.04-2.16-9.04-1.965-3.93-1.965-5.5-3.145-14.345-3.145-14.345Z" transform="translate(-434.23 -406.819)" fill="#be6f72"/>
    <path id="Path_308" data-name="Path 308" d="M801.565,637.89s.2-7.075,1-9.235a14.669,14.669,0,0,0,.875-3.135s11.895,2.15,12.88,1.365a17.059,17.059,0,0,0,.4,2.945,28.258,28.258,0,0,1,.785,7.47c-.215,2.36,0,2.355,0,2.355s-8.06,1.18-8.255,0-.785-1.175-.785-1.175S801.175,638.26,801.565,637.89Z" transform="translate(-426.775 -394.254)" fill="#3f3d56"/>
    <g id="Group_656" data-name="Group 656" transform="translate(374.79 232.631)" opacity="0.1">
      <path id="Path_309" data-name="Path 309" d="M808.065,649.855s-4.97-.135-6.47-.4v.4c-.39.39,6.88.59,6.88.59a.5.5,0,0,1,.27.11C808.48,649.855,808.065,649.855,808.065,649.855Z" transform="translate(-801.58 -638.85)"/>
      <path id="Path_310" data-name="Path 310" d="M824.32,631.2a17.053,17.053,0,0,1-.4-2.945.847.847,0,0,1-.335.12,9.94,9.94,0,0,0,.335,2.235,31.2,31.2,0,0,1,.785,7.47c-.215,2.36,0,2.355,0,2.355s-6.375.935-7.92.31a2.386,2.386,0,0,0,.06.28c.2,1.18,8.255,0,8.255,0s-.2,0,0-2.355A29.217,29.217,0,0,0,824.32,631.2Z" transform="translate(-809.185 -628.25)"/>
      <path id="Path_311" data-name="Path 311" d="M808.065,649.855s-4.97-.135-6.47-.4v.4c-.39.39,6.88.59,6.88.59a.5.5,0,0,1,.27.11C808.48,649.855,808.065,649.855,808.065,649.855Z" transform="translate(-801.58 -638.85)"/>
      <path id="Path_312" data-name="Path 312" d="M824.32,631.2a17.053,17.053,0,0,1-.4-2.945.847.847,0,0,1-.335.12,9.94,9.94,0,0,0,.335,2.235,31.2,31.2,0,0,1,.785,7.47c-.215,2.36,0,2.355,0,2.355s-6.375.935-7.92.31a2.386,2.386,0,0,0,.06.28c.2,1.18,8.255,0,8.255,0s-.2,0,0-2.355A29.217,29.217,0,0,0,824.32,631.2Z" transform="translate(-809.185 -628.25)"/>
    </g>
    <path id="Path_313" data-name="Path 313" d="M814.67,585.16a2.605,2.605,0,0,0,.75.97,1.679,1.679,0,0,0,.705.305c-.44.255-.92.445-1.36.7a24.229,24.229,0,0,0-2,1.5,4.069,4.069,0,0,1-2.295.89,2.81,2.81,0,0,0,.32-2.795,2.611,2.611,0,0,1-.35-.97,1.742,1.742,0,0,1,.965-1.3c.375-.255.76-.5,1.15-.745.3-.19.765-.59,1.15-.575s.43.355.5.705A5.547,5.547,0,0,0,814.67,585.16Z" transform="translate(-431.22 -373.064)" fill="#be6f72"/>
    <path id="Path_314" data-name="Path 314" d="M814.67,585.16a2.605,2.605,0,0,0,.75.97,1.679,1.679,0,0,0,.705.305c-.44.255-.92.445-1.36.7a24.229,24.229,0,0,0-2,1.5,4.069,4.069,0,0,1-2.295.89,2.81,2.81,0,0,0,.32-2.795,2.611,2.611,0,0,1-.35-.97,1.742,1.742,0,0,1,.965-1.3c.375-.255.76-.5,1.15-.745.3-.19.765-.59,1.15-.575s.43.355.5.705A5.547,5.547,0,0,0,814.67,585.16Z" transform="translate(-431.22 -373.064)" opacity="0.1"/>
    <circle id="Ellipse_98" data-name="Ellipse 98" cx="4.52" cy="4.52" r="4.52" transform="translate(383.535 214.651)" fill="#be6f72"/>
    <path id="Path_315" data-name="Path 315" d="M835.244,724.966c0,.4-.785,1.375-.785,1.375a9.731,9.731,0,0,1-4.715-.59c-.395-.195.2-1.375.2-1.375l.045-.095a4.773,4.773,0,0,1,.745-1.28,5.593,5.593,0,0,0,.625-2c1.22-2,3.385.865,3.385.865s.275,1.5.42,2.41A6.848,6.848,0,0,1,835.244,724.966Z" transform="translate(-440.804 -441.64)" fill="#ff6f61"/>
    <path id="Path_316" data-name="Path 316" d="M835.244,728.94c0,.4-.785,1.375-.785,1.375a9.732,9.732,0,0,1-4.715-.59c-.395-.195.2-1.375.2-1.375l.045-.1a9.5,9.5,0,0,0,4.28.88l.9-.895C835.209,728.575,835.244,728.84,835.244,728.94Z" transform="translate(-440.804 -445.614)" opacity="0.1"/>
    <circle id="Ellipse_99" data-name="Ellipse 99" cx="4.42" cy="4.42" r="4.42" transform="translate(374.595 205.316)" fill="#be6f72"/>
    <path id="Path_317" data-name="Path 317" d="M801.468,598.958c-.97.925-1.13,2.39-1.23,3.725l-.15,1.955a9.873,9.873,0,0,0-.035,1.585c0,.325.08.655.11,1s.04.78.045,1.175v2.89a3.409,3.409,0,0,0,.32,1.735,1.18,1.18,0,0,0,1.5.54,1.711,1.711,0,0,0,.62-.96,14.927,14.927,0,0,0,1-3.66c.04-.435.045-.87.085-1.305s.115-.89.18-1.33c.28-1.84.405-3.7.53-5.555.035-.55.53-2.715-.19-2.955-.35-.115-1.075.245-1.41.365A3.972,3.972,0,0,0,801.468,598.958Z" transform="translate(-426.018 -380.382)" fill="#be6f72"/>
    <path id="Path_318" data-name="Path 318" d="M801.468,598.958c-.97.925-1.13,2.39-1.23,3.725l-.15,1.955a9.873,9.873,0,0,0-.035,1.585c0,.325.08.655.11,1s.04.78.045,1.175v2.89a3.409,3.409,0,0,0,.32,1.735,1.18,1.18,0,0,0,1.5.54,1.711,1.711,0,0,0,.62-.96,14.927,14.927,0,0,0,1-3.66c.04-.435.045-.87.085-1.305s.115-.89.18-1.33c.28-1.84.405-3.7.53-5.555.035-.55.53-2.715-.19-2.955-.35-.115-1.075.245-1.41.365A3.972,3.972,0,0,0,801.468,598.958Z" transform="translate(-426.018 -380.382)" opacity="0.1"/>
    <path id="Path_319" data-name="Path 319" d="M812.85,588.16s-3.34,2.555-5.305,3.145c0,0-1.165,1.33-1.365,1.65s-.6,3.85-1,4.64a3.755,3.755,0,0,0,0,4.32,7.487,7.487,0,0,1,.195,2.36c-.195.59-.91,2.75-.26,2.85s2.62,1.47,4.385,1.08,8.355,1.5,8.355,1.5,1.09-10.125,1.88-11.915l-1.77-.59s-4.91-2.945-1.965-7.465C815.995,589.735,813.235,589.145,812.85,588.16Z" transform="translate(-428.235 -375.574)" fill="#ff6f61"/>
    <path id="Path_320" data-name="Path 320" d="M796.714,610.557l4.06,2.875a.3.3,0,0,0,.355,0l1.1-.825a.31.31,0,0,0,0-.47l-3.125-2.775a.3.3,0,0,0-.305-.06l-2.005.72a.3.3,0,0,0-.08.535Z" transform="translate(-424.294 -386.136)" fill="#3f3d56"/>
    <path id="Path_321" data-name="Path 321" d="M799.06,621.413a10.883,10.883,0,0,1-.425-3.065l-.06-1.385a4,4,0,0,1,.145-1.6,2.614,2.614,0,0,1,1.685-1.475,5.821,5.821,0,0,1,2.295-.165.591.591,0,0,1,.295.08.548.548,0,0,1,.16.27,1.81,1.81,0,0,1,.09,1.445,1.5,1.5,0,0,1-.46.475c-.545.39-1.18.65-1.7,1.075a.615.615,0,0,0-.23.29.677.677,0,0,0,0,.315,5.03,5.03,0,0,0,.26.8.793.793,0,0,0,.225.34c.095.08.22.11.32.185.215.175.665.4.64.68a22.393,22.393,0,0,1-.91,3.11C800.945,624.728,799.35,622.258,799.06,621.413Z" transform="translate(-425.275 -388.332)" fill="#be6f72"/>
    <g id="Group_657" data-name="Group 657" transform="translate(379.99 221.921)" opacity="0.1">
      <path id="Path_322" data-name="Path 322" d="M812.09,628.2h-.11a3.366,3.366,0,0,0,1.285,0h.125A4.5,4.5,0,0,0,812.09,628.2Z" transform="translate(-811.98 -617.493)"/>
      <path id="Path_323" data-name="Path 323" d="M830.9,606.83c-.705,1.585-1.745,10.17-1.93,11.875.69.18,1.145.31,1.145.31s1.08-10.1,1.87-11.89Z" transform="translate(-820.475 -606.83)"/>
    </g>
    <path id="Path_324" data-name="Path 324" d="M820.164,596.22a1.5,1.5,0,0,0,.645.975,8.647,8.647,0,0,1,1.145,1.16,8.211,8.211,0,0,1,1.135,2.275,27.858,27.858,0,0,1,.945,3.11c-2.5,1.16-5.34,1.1-8,1.87a6.385,6.385,0,0,0-3,1.775,4.135,4.135,0,0,0-1.1,3.255.425.425,0,0,0,.06.195.42.42,0,0,0,.35.14,3,3,0,0,0,1.835-.63,8.728,8.728,0,0,0,1.405-1.38,2.26,2.26,0,0,1,1-.74,16.367,16.367,0,0,1,4.5-.44,56.711,56.711,0,0,0,6.705-.53.54.54,0,0,0,.6-.6c.22-2.95-.875-5.83-2-8.565q-.675-1.645-1.39-3.275a9.7,9.7,0,0,0-1.7-2.91,3,3,0,0,0-1-.74,4.231,4.231,0,0,0-1.34-.25,9.5,9.5,0,0,0-2.195-.04,4.675,4.675,0,0,0-.21,1.135,9.833,9.833,0,0,0,1.21,3.835C819.834,596.03,820.049,596.04,820.164,596.22Z" transform="translate(-431.954 -376.909)" fill="#be6f72"/>
    <path id="Path_325" data-name="Path 325" d="M811.91,606.67a3.663,3.663,0,0,0-.5,1.91,2.569,2.569,0,0,0,.125.78,2.53,2.53,0,0,0,1.595,1.5" transform="translate(-431.705 -384.829)" fill="none" stroke="#000" stroke-miterlimit="10" stroke-width="1" opacity="0.1"/>
    <path id="Path_326" data-name="Path 326" d="M808.45,572.245a2.3,2.3,0,0,0-.725.115,4.793,4.793,0,0,0-4-1.69c-2.39,0-4.325,1.235-4.325,2.755s1.935,2.75,4.325,2.75a6.086,6.086,0,0,0,2.595-.55,2.355,2.355,0,1,0,2.12-3.38Z" transform="translate(-425.7 -366.829)" fill="#3f3d56"/>
    <path id="Path_327" data-name="Path 327" d="M808.635,578.26a2.35,2.35,0,0,1-2.12-1.336,6.083,6.083,0,0,1-2.595.55c-2.385,0-4.32-1.23-4.32-2.75a1.668,1.668,0,0,1,0-.275,1.863,1.863,0,0,0-.22.865c0,1.5,1.935,2.75,4.325,2.75a6.083,6.083,0,0,0,2.595-.55,2.355,2.355,0,0,0,4.435-.585A2.345,2.345,0,0,1,808.635,578.26Z" transform="translate(-425.69 -368.719)" opacity="0.1"/>
    <path id="Path_328" data-name="Path 328" d="M795.658,568.21a6.675,6.675,0,0,1,7.5-3.575,7.07,7.07,0,0,1,10.76,5.43v-.59a7.07,7.07,0,0,0-10.785-6,6.675,6.675,0,0,0-7.5,3.575,8.14,8.14,0,0,0-2.545,6.08v.59A8,8,0,0,1,795.658,568.21Z" transform="translate(-422.543 -362.705)" opacity="0.1"/>
    <path id="Path_329" data-name="Path 329" d="M882.779,523.765c1.305-2.415-.175-5.38-1.88-7.535s-3.775-4.395-3.73-7.145c.06-3.945,4.25-6.275,7.6-8.37a36.953,36.953,0,0,0,6.82-5.5,9.965,9.965,0,0,0,2.1-2.8,11.521,11.521,0,0,0,.63-5q-.22-8.45-.835-16.88" transform="translate(-464.584 -316.759)" fill="none" stroke="#3f3d56" stroke-miterlimit="10" stroke-width="4"/>
    <path id="Path_330" data-name="Path 330" d="M910.217,464.063a6.145,6.145,0,0,0-3.07-5.04l-1.38,2.725.04-3.3a6.042,6.042,0,0,0-2.025-.245,6.155,6.155,0,1,0,6.435,5.86Z" transform="translate(-474.957 -310.592)" fill="#1a7fc3"/>
    <path id="Path_331" data-name="Path 331" d="M888.941,544.29a6.155,6.155,0,1,1,.295-4.96l-3.845,3.13,4.23-1a6.119,6.119,0,0,1-.68,2.83Z" transform="translate(-464.656 -349.155)" fill="#1a7fc3"/>
    <path id="Path_332" data-name="Path 332" d="M888.039,517.048a6.155,6.155,0,0,1-1.955-12.075l-.03,2.535,1.4-2.755h0a6.157,6.157,0,1,1,.575,12.3Z" transform="translate(-466.794 -333.868)" fill="#1a7fc3"/>
    <path id="Path_333" data-name="Path 333" d="M917.9,497.168a6.155,6.155,0,1,1,2.725-11.5l-1.09,3,2.24-2.15a6.12,6.12,0,0,1,2,4.25,5.939,5.939,0,0,1-.155,1.7A6.155,6.155,0,0,1,917.9,497.168Z" transform="translate(-481.717 -323.927)" fill="#1a7fc3"/>
    <path id="Path_334" data-name="Path 334" d="M909.385,469.075c-1.42.16-2.8.6-4.23.69a4.586,4.586,0,0,1-3.9-1.365,19.119,19.119,0,0,1-1.135-2,4.425,4.425,0,0,0-1.55-1.46,6.155,6.155,0,1,0,11.5,4.085C909.845,469.035,909.615,469.05,909.385,469.075Z" transform="translate(-474.95 -313.964)" opacity="0.1"/>
    <path id="Path_335" data-name="Path 335" d="M917.927,500.69a6.16,6.16,0,0,1-5.855-8.78,4.555,4.555,0,0,1,1.24,1.235,19.717,19.717,0,0,0,1.22,2.035,5.008,5.008,0,0,0,4.08,1.43c1.485-.07,2.92-.5,4.4-.625.205,0,.415-.035.62-.04a6.155,6.155,0,0,1-5.7,4.745Z" transform="translate(-481.742 -327.449)" opacity="0.1"/>
    <path id="Path_336" data-name="Path 336" d="M888.039,520.675A6.15,6.15,0,0,1,882.134,512a5.075,5.075,0,0,1,1.3,1.25c.5.675.775,1.455,1.335,2.075a5.7,5.7,0,0,0,4.36,1.53c1.575-.035,3-.41,4.5-.525a6.155,6.155,0,0,1-5.59,4.345Z" transform="translate(-466.794 -337.494)" opacity="0.1"/>
    <path id="Path_337" data-name="Path 337" d="M888.976,548.26a6.16,6.16,0,0,1-11.225-5,6.031,6.031,0,0,1,1.35,1.205c.59.715.975,1.5,1.65,2.19a7.732,7.732,0,0,0,5.1,1.79,26.977,26.977,0,0,0,3.125-.185Z" transform="translate(-464.691 -353.124)" opacity="0.1"/>
    <path id="Path_338" data-name="Path 338" d="M1041.779,675.765c1.3-2.415-.175-5.38-1.88-7.535s-3.775-4.395-3.73-7.145c.06-3.945,4.25-6.275,7.6-8.37a36.957,36.957,0,0,0,6.82-5.5,9.969,9.969,0,0,0,2.1-2.8,11.523,11.523,0,0,0,.63-5q-.215-8.45-.835-16.88" transform="translate(-544.084 -392.759)" fill="none" stroke="#3f3d56" stroke-miterlimit="10" stroke-width="4"/>
    <path id="Path_339" data-name="Path 339" d="M1069.242,616.064a6.145,6.145,0,0,0-3.07-5.04l-1.38,2.725.04-3.3a6.038,6.038,0,0,0-2-.245,6.155,6.155,0,1,0,6.435,5.86Z" transform="translate(-554.482 -386.593)" fill="#1a7fc3"/>
    <path id="Path_340" data-name="Path 340" d="M1047.941,696.29a6.155,6.155,0,1,1,.295-4.96l-3.845,3.13,4.23-1A6.118,6.118,0,0,1,1047.941,696.29Z" transform="translate(-544.156 -425.155)" fill="#1a7fc3"/>
    <path id="Path_341" data-name="Path 341" d="M1047.039,669.049a6.155,6.155,0,0,1-1.955-12.075l-.03,2.535,1.395-2.755h0a6.157,6.157,0,1,1,.575,12.3Z" transform="translate(-546.294 -409.868)" fill="#1a7fc3"/>
    <path id="Path_342" data-name="Path 342" d="M1076.9,649.168a6.155,6.155,0,1,1,2.725-11.5l-1.09,3,2.24-2.15a6.118,6.118,0,0,1,2,4.25,5.945,5.945,0,0,1-.155,1.7A6.155,6.155,0,0,1,1076.9,649.168Z" transform="translate(-561.217 -399.927)" fill="#1a7fc3"/>
    <path id="Path_343" data-name="Path 343" d="M1068.385,621.075c-1.42.16-2.805.6-4.23.69a4.585,4.585,0,0,1-3.9-1.365,19.117,19.117,0,0,1-1.135-2,4.425,4.425,0,0,0-1.55-1.46,6.155,6.155,0,1,0,11.5,4.085C1068.845,621.035,1068.615,621.05,1068.385,621.075Z" transform="translate(-554.45 -389.964)" opacity="0.1"/>
    <path id="Path_344" data-name="Path 344" d="M1076.927,652.69a6.16,6.16,0,0,1-5.855-8.78,4.555,4.555,0,0,1,1.24,1.235,19.749,19.749,0,0,0,1.22,2.035,5.008,5.008,0,0,0,4.08,1.43c1.485-.07,2.92-.5,4.4-.625.205,0,.415-.035.62-.04A6.154,6.154,0,0,1,1076.927,652.69Z" transform="translate(-561.242 -403.449)" opacity="0.1"/>
    <path id="Path_345" data-name="Path 345" d="M1047.04,672.675a6.15,6.15,0,0,1-5.905-8.675,5.075,5.075,0,0,1,1.3,1.25c.5.675.775,1.455,1.335,2.075a5.7,5.7,0,0,0,4.36,1.53c1.575-.035,3-.41,4.5-.525A6.155,6.155,0,0,1,1047.04,672.675Z" transform="translate(-546.295 -413.494)" opacity="0.1"/>
    <path id="Path_346" data-name="Path 346" d="M1047.976,700.26a6.16,6.16,0,0,1-11.225-5,6.031,6.031,0,0,1,1.35,1.205c.59.715,1,1.5,1.65,2.19a7.732,7.732,0,0,0,5.1,1.79A26.949,26.949,0,0,0,1047.976,700.26Z" transform="translate(-544.191 -429.124)" opacity="0.1"/>
    <path id="Path_347" data-name="Path 347" d="M462.962,573.87a4.905,4.905,0,0,0-1.955-3.96,5.75,5.75,0,0,0-4.8-5.64A5.74,5.74,0,0,0,452.377,560h0a4.887,4.887,0,0,0-.71-.165h-.845a5.63,5.63,0,0,0-5.44,4.81c-1.755-.405-3.36.12-3.655,1.23a1.5,1.5,0,0,0,.05.89,3.869,3.869,0,0,0,2.58,2.09l.17.05.255.065h.055a4.419,4.419,0,0,0-.42,1.895,4.37,4.37,0,0,0,2.355,3.9l-.115.07a1.56,1.56,0,0,0-.38.53,7.923,7.923,0,0,0-.735,1.77c-.125.53-.145,1.08-.3,1.605-.29.965-1.03,1.78-1.115,2.785-.04.45.035,1-.285,1.29a1.554,1.554,0,0,1-.255.18,2.066,2.066,0,0,0-.555.585,1.944,1.944,0,0,1-.39.56c-.29.215-.765.2-.9.53s.225.73.14,1.095-.395.435-.62.64a2.224,2.224,0,0,0-.535,1,3.28,3.28,0,0,1-2.7-.69,5.045,5.045,0,0,1,.28,1,4.38,4.38,0,0,0-1.455-.73,4.594,4.594,0,0,1-1.55-1.15l.83-.115-3.665-5.595-1.085-.225.97,1.865a.6.6,0,0,0-.33.395,1.7,1.7,0,0,0-.035.635,11.379,11.379,0,0,0,.25,1.5l.28,1.31c.025.12.055.245.09.365a3.441,3.441,0,0,0-1.085.12,9.442,9.442,0,0,0-2.255-.535,1.249,1.249,0,0,0-.5,0,1.3,1.3,0,0,0-.475.385,15.38,15.38,0,0,0-1.675,2.36,82.38,82.38,0,0,1-7.07,9.525c-1.7.69-3.415,1.345-5.13,2l-3.69,1.41a5.592,5.592,0,0,1-2.29.5c-.35,0-.785-.075-1,.225a2.106,2.106,0,0,0-.225.5l-.38.04h0a4.369,4.369,0,0,0-.885-1.63.56.56,0,0,0-.415.32c-.09.165-.145.345-.25.5-.2.29-.54.43-.785.675s-.4.625-.67.875a2.651,2.651,0,0,1-1.255.5,7.913,7.913,0,0,0-1.965.745,3.173,3.173,0,0,1-.725.335,2.725,2.725,0,0,1-.855.03l-1.95-.145a1.535,1.535,0,0,0-.525.025,1,1,0,0,0-.62,1,1.574,1.574,0,0,0,.62,1.075,3.969,3.969,0,0,0,1.11.575,32.57,32.57,0,0,0,5.2,1.54v.395a8.873,8.873,0,0,0,4,.95.62.62,0,0,0,.3-.055.66.66,0,0,0,.25-.39,16.081,16.081,0,0,0,.78-3.83h0a2,2,0,0,0,.7-.18c.67-.185,1.34.275,2.035.35a5.558,5.558,0,0,0,2.455-.71l.35-.115a3.84,3.84,0,0,1-.81.775c-.335.24-.71.42-1.035.67a7.121,7.121,0,0,1-.88.68,5.5,5.5,0,0,1-.675.26,4.455,4.455,0,0,0-.965.5,1.953,1.953,0,0,0-.655.64.863.863,0,0,0,.59,1.35,2.65,2.65,0,0,0,.795,0c1.06-.08,2.115-.175,3.17-.27a8.466,8.466,0,0,0,1.325-.19c.23-.055.46-.13.69-.2a6.163,6.163,0,0,1,1.205-.18,1,1,0,0,1,.35.035c.245.08.42.33.67.38a1,1,0,0,0,.5-.065,11.143,11.143,0,0,1,2.345-.25.968.968,0,0,0,.91-.405c.16-.32-.13-.835-.26-1.26a3.854,3.854,0,0,1-.11-.83,5.2,5.2,0,0,0-.58-1.97,5.138,5.138,0,0,1-.435-.9,22.739,22.739,0,0,0,4.315-2.19,7.718,7.718,0,0,1,2.46-1.185,6.692,6.692,0,0,1,3.09.36,70.308,70.308,0,0,1,7.085,2.47c1.105.455,2.2.935,3.345,1.28a5.213,5.213,0,0,0,1.19,1.155,5.5,5.5,0,0,0,2.575.705,33.691,33.691,0,0,0,3.625.135,6.114,6.114,0,0,0,2.7-.5,2.774,2.774,0,0,0,.565-.375,2.241,2.241,0,0,0,1.78-.655,4.315,4.315,0,0,0,1.355-2.14c.295-1.14.07-2.5.77-3.41.185-.25.43-.45.615-.7a1.97,1.97,0,0,0,.32-1.155.238.238,0,0,1,.03-.045,4.236,4.236,0,0,0,.3-1.15,6.582,6.582,0,0,1,.325-.91,28.073,28.073,0,0,0,.93-2.695,15.742,15.742,0,0,0,.43-1.85c.075-.5.12-1,.16-1.5a9.316,9.316,0,0,1,.455-2.315,18.839,18.839,0,0,0,1.05-5.54v-.11a3.715,3.715,0,0,0,3.29-3.78,3.944,3.944,0,0,0-.345-1.615A5,5,0,0,0,462.962,573.87ZM445.072,595.6c.055.195.12.385.185.575-.295-.285-.58-.58-.875-.87.115.04.235.075.345.12a1.854,1.854,0,0,1,.33.175Zm-1.415-.96c-1.73-1.5-3.73-2.665-5.5-4.12.965.475,1.905,1.03,2.835,1.56q1.655.945,3.355,1.815a2.745,2.745,0,0,1-.705.745Zm.735-3.78.085-.085v.6l-.465-.16a4.13,4.13,0,0,0,.365-.35Zm-15.215,4.05a14.319,14.319,0,0,0,1.84-2.625,17.674,17.674,0,0,0,2.745,3.065C432.237,595.16,430.707,594.995,429.177,594.915Z" transform="translate(-223.962 -361.409)" fill="url(#linear-gradient-2)"/>
    <path id="Path_348" data-name="Path 348" d="M415.35,438.25l1.09.22,3.715,5.495-1.635.22Z" transform="translate(-207.675 -219.304)" fill="#2f2e41"/>
    <path id="Path_349" data-name="Path 349" d="M414.49,645.405a21.382,21.382,0,0,0,1.09,2.835,26.97,26.97,0,0,0,3.625-1.035,11.417,11.417,0,0,0-.755-1,3.726,3.726,0,0,0-1.025-.785,2.818,2.818,0,0,0-1.245,0C415.62,645.405,415.055,645.415,414.49,645.405Z" transform="translate(-233.245 -404.17)" fill="#fbbebe"/>
    <path id="Path_350" data-name="Path 350" d="M408.09,645.3a2.26,2.26,0,0,1-1.24-1.41,4.54,4.54,0,0,0-.945-1.685.54.54,0,0,0-.42.315c-.09.16-.145.34-.245.5-.2.285-.55.425-.8.665s-.4.615-.67.86a2.659,2.659,0,0,1-1.265.5,8.2,8.2,0,0,0-2,.735,3.452,3.452,0,0,1-.735.33,2.905,2.905,0,0,1-.86,0l-1.97-.14a1.541,1.541,0,0,0-.5,0,.955.955,0,0,0-.625,1,1.5,1.5,0,0,0,.625,1.06,4.151,4.151,0,0,0,1.12.57,32.938,32.938,0,0,0,5.28,1.5v.39a9.139,9.139,0,0,0,4.025.935.68.68,0,0,0,.3-.05.66.66,0,0,0,.25-.39,15.6,15.6,0,0,0,.825-4.28,3.412,3.412,0,0,0-.085-1.1c-.11-.355.26-.205-.08-.345" transform="translate(-223.905 -402.594)" fill="#2f2e41"/>
    <path id="Path_351" data-name="Path 351" d="M457.151,631.982c-5.84.35-11.61-1.36-17.46-1.54a8.527,8.527,0,0,0-2.17.135,10.929,10.929,0,0,0-2.15.835c-3.135,1.46-6.38,2.67-9.62,3.875l-3.725,1.385a5.642,5.642,0,0,1-2.3.5c-.355,0-.79-.075-1,.22a3.647,3.647,0,0,0,.08,3.225c.13.325.35.68.7.715a2.04,2.04,0,0,0,.71-.18c.675-.18,1.35.275,2.05.35a5.761,5.761,0,0,0,2.475-.7,21.487,21.487,0,0,1,4.24-.72,19,19,0,0,0,6.64-2.755,7.749,7.749,0,0,1,2.475-1.17,6.851,6.851,0,0,1,3.115.355,71.5,71.5,0,0,1,7.145,2.43,33.331,33.331,0,0,0,3.73,1.365,13.5,13.5,0,0,0,8.365-.5c.935-.37,1.95-1,2-2.03.035-.575-.415-1.08-.71-1.575-.19-.315-.385-.63-.59-.935C460.146,633.817,458.926,631.877,457.151,631.982Z" transform="translate(-235.186 -396.706)" fill="#2f2e41"/>
    <path id="Path_352" data-name="Path 352" d="M457.151,631.982c-5.84.35-11.61-1.36-17.46-1.54a8.527,8.527,0,0,0-2.17.135,10.929,10.929,0,0,0-2.15.835c-3.135,1.46-6.38,2.67-9.62,3.875l-3.725,1.385a5.642,5.642,0,0,1-2.3.5c-.355,0-.79-.075-1,.22a3.647,3.647,0,0,0,.08,3.225c.13.325.35.68.7.715a2.04,2.04,0,0,0,.71-.18c.675-.18,1.35.275,2.05.35a5.761,5.761,0,0,0,2.475-.7,21.487,21.487,0,0,1,4.24-.72,19,19,0,0,0,6.64-2.755,7.749,7.749,0,0,1,2.475-1.17,6.851,6.851,0,0,1,3.115.355,71.5,71.5,0,0,1,7.145,2.43,33.331,33.331,0,0,0,3.73,1.365,13.5,13.5,0,0,0,8.365-.5c.935-.37,1.95-1,2-2.03.035-.575-.415-1.08-.71-1.575-.19-.315-.385-.63-.59-.935C460.146,633.817,458.926,631.877,457.151,631.982Z" transform="translate(-235.186 -396.706)" opacity="0.1"/>
    <path id="Path_353" data-name="Path 353" d="M436.92,643.569q1.37.465,2.765.86c.5-.855,1.5-1.45,1.715-2.43a.231.231,0,0,0,0-.13.24.24,0,0,0-.105-.1,5.24,5.24,0,0,0-2.17-.635c-.6-.035-.875.59-1.145,1.03C437.875,642.364,437.165,643.664,436.92,643.569Z" transform="translate(-244.46 -402.063)" fill="#fbbebe"/>
    <path id="Path_354" data-name="Path 354" d="M430.449,643.393a2,2,0,0,1-1.345-.885c-.125-.225-.265-.53-.525-.5s-.345.3-.4.535a15,15,0,0,1-.755,2.6,4.87,4.87,0,0,1-1.615,2.125c-.34.235-.715.41-1.05.66a7.2,7.2,0,0,1-.885.67,5.24,5.24,0,0,1-.68.25,4.711,4.711,0,0,0-.97.5,1.924,1.924,0,0,0-.665.635.915.915,0,0,0-.05.885.944.944,0,0,0,.645.44,2.716,2.716,0,0,0,.8,0c1.065-.075,2.13-.17,3.2-.265a9.214,9.214,0,0,0,1.335-.185l.7-.19a5.528,5.528,0,0,1,1.215-.18.946.946,0,0,1,.355.035c.245.08.42.325.675.375a1.129,1.129,0,0,0,.5-.065,11.044,11.044,0,0,1,2.365-.245,1,1,0,0,0,.92-.4c.2-.39-.13-.825-.265-1.245a4,4,0,0,1-.11-.815,4.972,4.972,0,0,0-.585-1.94c-.27-.5-.64-1.05-.45-1.58a1.5,1.5,0,0,0,.18-.545C432.909,643.2,430.939,643.5,430.449,643.393Z" transform="translate(-236.709 -402.497)" fill="#2f2e41"/>
    <path id="Path_355" data-name="Path 355" d="M473.5,609.665a4.56,4.56,0,0,1-2.33-2.31c-.1-.22-.175-.455-.27-.675a5.13,5.13,0,0,0-1.39-1.935.685.685,0,0,0-.5-.215.545.545,0,0,0-.375.405,1.546,1.546,0,0,0-.04.625,11.15,11.15,0,0,0,.25,1.46l.285,1.29a2.833,2.833,0,0,0,.175.575,2,2,0,0,0,.475.565c.26.24.525.47.79.7a2.716,2.716,0,0,0,.5.345,2.906,2.906,0,0,0,.885.26,7.53,7.53,0,0,1,3.32,1.28v-.96a1.27,1.27,0,0,0-.25-.695A4.433,4.433,0,0,0,473.5,609.665Z" transform="translate(-260.29 -383.759)" fill="#fbbebe"/>
    <path id="Path_356" data-name="Path 356" d="M473.5,609.665a4.56,4.56,0,0,1-2.33-2.31c-.1-.22-.175-.455-.27-.675a5.13,5.13,0,0,0-1.39-1.935.685.685,0,0,0-.5-.215.545.545,0,0,0-.375.405,1.546,1.546,0,0,0-.04.625,11.15,11.15,0,0,0,.25,1.46l.285,1.29a2.833,2.833,0,0,0,.175.575,2,2,0,0,0,.475.565c.26.24.525.47.79.7a2.716,2.716,0,0,0,.5.345,2.906,2.906,0,0,0,.885.26,7.53,7.53,0,0,1,3.32,1.28v-.96a1.27,1.27,0,0,0-.25-.695A4.433,4.433,0,0,0,473.5,609.665Z" transform="translate(-260.29 -383.759)" opacity="0.1"/>
    <ellipse id="Ellipse_100" data-name="Ellipse 100" cx="1.42" cy="1.43" rx="1.42" ry="1.43" transform="translate(223.68 213.176)" fill="#2f2e41"/>
    <path id="Path_357" data-name="Path 357" d="M490.615,590.438a1.536,1.536,0,0,0-1.12.16,1.557,1.557,0,0,0-.385.525,7.633,7.633,0,0,0-.74,1.74c-.125.5-.145,1.065-.3,1.58-.29.95-1.035,1.755-1.12,2.745-.04.445.035.965-.29,1.265a1.836,1.836,0,0,1-.255.185,1.919,1.919,0,0,0-.56.575,1.885,1.885,0,0,1-.4.545c-.29.215-.77.2-.91.5s.225.72.14,1.08-.4.43-.625.63a2.185,2.185,0,0,0-.54,1,3.335,3.335,0,0,1-2.72-.675,8.659,8.659,0,0,1,.425,3.11,1.27,1.27,0,0,1-.25.96,17.321,17.321,0,0,1,3.335.58,2.3,2.3,0,0,0,1.455,0,2.429,2.429,0,0,0,.67-.53,4.271,4.271,0,0,0,1.375-2.12,12.454,12.454,0,0,0,.025-1.435,8.1,8.1,0,0,1,.365-1.745,20.764,20.764,0,0,0,.635-3.59c.065-.75.715-1.35,1.055-2a9.791,9.791,0,0,0,1.345-4C491.245,591.063,491.085,590.488,490.615,590.438Z" transform="translate(-266.395 -376.692)" fill="#2f2e41"/>
    <path id="Path_358" data-name="Path 358" d="M490.615,590.438a1.536,1.536,0,0,0-1.12.16,1.557,1.557,0,0,0-.385.525,7.633,7.633,0,0,0-.74,1.74c-.125.5-.145,1.065-.3,1.58-.29.95-1.035,1.755-1.12,2.745-.04.445.035.965-.29,1.265a1.836,1.836,0,0,1-.255.185,1.919,1.919,0,0,0-.56.575,1.885,1.885,0,0,1-.4.545c-.29.215-.77.2-.91.5s.225.72.14,1.08-.4.43-.625.63a2.185,2.185,0,0,0-.54,1,3.335,3.335,0,0,1-2.72-.675,8.659,8.659,0,0,1,.425,3.11,1.27,1.27,0,0,1-.25.96,17.321,17.321,0,0,1,3.335.58,2.3,2.3,0,0,0,1.455,0,2.429,2.429,0,0,0,.67-.53,4.271,4.271,0,0,0,1.375-2.12,12.454,12.454,0,0,0,.025-1.435,8.1,8.1,0,0,1,.365-1.745,20.764,20.764,0,0,0,.635-3.59c.065-.75.715-1.35,1.055-2a9.791,9.791,0,0,0,1.345-4C491.245,591.063,491.085,590.488,490.615,590.438Z" transform="translate(-266.395 -376.692)" opacity="0.1"/>
    <path id="Path_359" data-name="Path 359" d="M468.618,623.972a13.177,13.177,0,0,1-3.09-2.58c-1.875-1.765-4.17-3-6.145-4.665a43.288,43.288,0,0,0-3.915-3.29,9.786,9.786,0,0,0-4.2-1.465,1.117,1.117,0,0,0-.5,0,1.151,1.151,0,0,0-.475.375,15.109,15.109,0,0,0-1.7,2.325c-2.5,4.25-6.055,7.82-9,11.77a.75.75,0,0,0-.145.28.7.7,0,0,0,.11.435l.6,1.17c.335.66.875,1.425,1.595,1.295a1.744,1.744,0,0,0,.835-.535l2.69-2.575,2.82-2.695a21.63,21.63,0,0,0,4.41-5.21c.84,1.46,2.335,2.415,3.355,3.75.39.5.71,1.065,1.06,1.6.555.86,1.19,1.67,1.82,2.5l3.235,4.125a6.186,6.186,0,0,0,1.5,1.5,5.723,5.723,0,0,0,2.6.695,34.282,34.282,0,0,0,3.655.13,6.3,6.3,0,0,0,2.725-.5,2.47,2.47,0,0,0,1.475-2.195,3.22,3.22,0,0,0-.465-1.365A11.143,11.143,0,0,0,468.618,623.972Z" transform="translate(-245.728 -387.466)" fill="#2f2e41"/>
    <ellipse id="Ellipse_101" data-name="Ellipse 101" cx="1.095" cy="1.1" rx="1.095" ry="1.1" transform="translate(224.88 214.496)" fill="#e8e8f0"/>
    <path id="Path_360" data-name="Path 360" d="M501.97,589.1a2.1,2.1,0,0,1,.12,1.58,6.41,6.41,0,0,1-.705,1.455,6.923,6.923,0,0,1-.915,1.3,9.417,9.417,0,0,0,4.81-1.38,6.985,6.985,0,0,0,3.035-2.645,1.4,1.4,0,0,1-1.12-.21,4,4,0,0,1-.855-.795l-.845-.95a3.8,3.8,0,0,1-.5-.685,1.891,1.891,0,0,1-.225-1.105,6.432,6.432,0,0,1-1.12.93c-.605.4-1.27.68-1.88,1.07-.21.14-.69.36-.565.64S501.8,588.795,501.97,589.1Z" transform="translate(-276.235 -374.324)" fill="#fbbebe"/>
    <path id="Path_361" data-name="Path 361" d="M501.97,589.1a2.1,2.1,0,0,1,.12,1.58,6.41,6.41,0,0,1-.705,1.455,6.923,6.923,0,0,1-.915,1.3,9.417,9.417,0,0,0,4.81-1.38,6.985,6.985,0,0,0,3.035-2.645,1.4,1.4,0,0,1-1.12-.21,4,4,0,0,1-.855-.795l-.845-.95a3.8,3.8,0,0,1-.5-.685,1.891,1.891,0,0,1-.225-1.105,6.432,6.432,0,0,1-1.12.93c-.605.4-1.27.68-1.88,1.07-.21.14-.69.36-.565.64S501.8,588.795,501.97,589.1Z" transform="translate(-276.235 -374.324)" opacity="0.1"/>
    <path id="Path_362" data-name="Path 362" d="M496.855,592.683a1.425,1.425,0,0,0,0,1.65c.05.06.23.435.3.44a.275.275,0,0,0,.19-.1,12.547,12.547,0,0,0,1.07-1.275,2.379,2.379,0,0,1,1.36-.89,2.94,2.94,0,0,1,1.875.585,1.782,1.782,0,0,1,.645.5,1.746,1.746,0,0,1,.21.715,34.439,34.439,0,0,1,.19,4.545,17.906,17.906,0,0,1-.215,3.275c-.11.555-.27,1.1-.345,1.665a10.612,10.612,0,0,0-.07,1.5v2.09a5.5,5.5,0,0,0,.08,1.145c.1.455.315.88.46,1.325a8.662,8.662,0,0,1,.3,1.565l.285,2.16a2.731,2.731,0,0,1-.255,2c-.185.245-.43.445-.62.69-.7.92-.5,2.235-.775,3.36a4.191,4.191,0,0,1-1.37,2.1,2.265,2.265,0,0,1-1.805.645,2.473,2.473,0,0,1-1.645-1.945,7.78,7.78,0,0,0-.845-2.535,6.721,6.721,0,0,0-1.67-1.395,2.885,2.885,0,0,1-1.3-1.7c-.055-.315,0-.64-.055-.96a2.265,2.265,0,0,0-1.395-1.835c-.45-.175-1-.24-1.26-.65a3.034,3.034,0,0,0,1.315-1.765,9.068,9.068,0,0,0,.32-2.23l.15-2.5a8.349,8.349,0,0,1,.6-3.245c.22-.45.5-.875.725-1.32a14.337,14.337,0,0,0,.775-1.935c.36-1.03.72-2.06,1.04-3.1a5.841,5.841,0,0,1,.57-1.445C495.96,593.348,496.35,592.783,496.855,592.683Z" transform="translate(-271.1 -377.747)" fill="#e8e8f0"/>
    <path id="Path_363" data-name="Path 363" d="M492.289,608.55h.665l.14-1a2.084,2.084,0,0,1,.14-.585,3.491,3.491,0,0,1,.385-.56,7.309,7.309,0,0,0,.765-3.275,16.665,16.665,0,0,1,1.46-4.28l1.29-2.875a3.97,3.97,0,0,0,.28-.735,4.4,4.4,0,0,0,.08-.85c0-.445.14-2.065.155-2.5,0-.165-.365-.075-.44-.22-.16-.32-.38.545-.685.735a1.679,1.679,0,0,0-.6.87c-.28.72-.45,1.5-.71,2.215a4.526,4.526,0,0,1-1.2,1.96c-.265.23-.57.415-.82.665a4.487,4.487,0,0,0-.9,3.175C492.269,601.98,492.139,608.55,492.289,608.55Z" transform="translate(-272.109 -377.294)" fill="#2f2e41"/>
    <path id="Path_364" data-name="Path 364" d="M505.435,590.4a2.27,2.27,0,0,0-1.185,1.625,8.219,8.219,0,0,1-.6,2c-.81,1.41-2.875,1.82-3.45,3.345a6.147,6.147,0,0,0-.23,1.575c-.1,1.095-.46,2.15-.57,3.24a14.441,14.441,0,0,0,.06,2.545l.725,8.61a11.5,11.5,0,0,1-.215,3.79,3.651,3.651,0,0,0,2.17-.36c.675-.31,1.295-.735,1.95-1.1a20.089,20.089,0,0,0,3.345-1.88,2.047,2.047,0,0,0,.45-.5,4.322,4.322,0,0,0,.3-1.13,6.1,6.1,0,0,1,.325-.89,26.226,26.226,0,0,0,.94-2.66,15.277,15.277,0,0,0,.43-1.82c.08-.5.125-1,.165-1.5a8.8,8.8,0,0,1,.46-2.275,18.328,18.328,0,0,0,1.055-5.46,2.857,2.857,0,0,0-.055-.8,4.282,4.282,0,0,0-.44-.915c-.3-.565-.5-1.185-.76-1.76a8.655,8.655,0,0,0-2.955-3.1A2.25,2.25,0,0,0,505.435,590.4Z" transform="translate(-275.685 -376.662)" fill="#2f2e41"/>
    <path id="Path_365" data-name="Path 365" d="M473.462,615.667a5.215,5.215,0,0,1-1.375-1.045c-.18-.21-.33-.445-.5-.655a3.4,3.4,0,0,0-1.73-1,8.452,8.452,0,0,0-2-.2,3.628,3.628,0,0,0-1.335.16,1.36,1.36,0,0,0-.885.95,1.575,1.575,0,0,0,.675,1.4,3.178,3.178,0,0,0,1.345.65,10.72,10.72,0,0,0,1.215.145c2.39.25,4.525,1.55,6.62,2.735q2.76,1.57,5.63,2.92a11.7,11.7,0,0,0,.1-1.725c0-.43-.035-1.09-.44-1.345a8.843,8.843,0,0,0-1.79-.535,28.206,28.206,0,0,1-3.605-1.46A17.98,17.98,0,0,1,473.462,615.667Z" transform="translate(-258.816 -387.876)" fill="#fbbebe"/>
    <ellipse id="Ellipse_102" data-name="Ellipse 102" cx="4.26" cy="4.285" rx="4.26" ry="4.285" transform="translate(220.84 205.711)" fill="#fbbebe"/>
    <path id="Path_366" data-name="Path 366" d="M503.426,599.637a6.831,6.831,0,0,0-.825,1.545c-.5,1.08-1.35,2-1.765,3.145s-.42,2.615-1.275,3.55a1.245,1.245,0,0,0-.375.54,2.575,2.575,0,0,1-.04.39c-.125.34-.68.355-.785.7-.03.1,0,.21-.05.31-.085.225-.385.26-.58.395-.415.28-.33.93-.625,1.335a1.125,1.125,0,0,1-1.065.375,3.756,3.756,0,0,1-1.1-.415,1.065,1.065,0,0,0-.4-.125.824.824,0,0,0-.46.16,2.835,2.835,0,0,0-1.15,2.425,7.918,7.918,0,0,0,.66,2.715,1.089,1.089,0,0,0,.215.405.955.955,0,0,0,1.06.08,5,5,0,0,1,1.035-.465c.66-.12,1.3.335,1.975.295a2.744,2.744,0,0,0,1.33-.585,7.348,7.348,0,0,0,1.79-1.5c.29-.385.5-.82.76-1.23a15.752,15.752,0,0,1,1.075-1.435l2.46-3a6.91,6.91,0,0,0,.66-.91,6.414,6.414,0,0,0,.5-1.375,10.532,10.532,0,0,0,.5-2.445,9.4,9.4,0,0,0-.18-2.05,7.243,7.243,0,0,0-.5-1.955C505.731,599.387,504.431,598.467,503.426,599.637Z" transform="translate(-272.461 -381.041)" fill="#2f2e41"/>
    <path id="Path_367" data-name="Path 367" d="M509.6,575.1a4.8,4.8,0,0,0-1.97-3.9,5.705,5.705,0,0,0-4.845-5.555,5.535,5.535,0,0,0-10.905.3c-1.77-.4-3.39.12-3.685,1.21s.955,2.5,2.82,3a5.25,5.25,0,0,0,1.81.18,5.54,5.54,0,0,0,3.81,2.375,5.685,5.685,0,0,0,4.16,4.29,4.775,4.775,0,0,0,1.285,1.775v.415a3.6,3.6,0,1,0,7.21,0,3.85,3.85,0,0,0-.345-1.6A4.818,4.818,0,0,0,509.6,575.1Z" transform="translate(-270.077 -362.092)" fill="#f86d70"/>
    <path id="Path_368" data-name="Path 368" d="M489.392,567.375c.295-1.09,1.915-1.61,3.685-1.21a5.63,5.63,0,0,1,5.5-4.74h.365a5.419,5.419,0,0,0-1.57-.235,5.63,5.63,0,0,0-5.5,4.74c-1.77-.4-3.39.12-3.685,1.21s.955,2.5,2.82,3a5.5,5.5,0,0,0,1.07.185C490.292,569.79,489.1,568.49,489.392,567.375Z" transform="translate(-270.072 -362.089)" opacity="0.1"/>
    <path id="Path_369" data-name="Path 369" d="M508.045,588.71a3.764,3.764,0,0,1,0-.41,4.67,4.67,0,0,1-1.285-1.775,5.67,5.67,0,0,1-4.16-4.3,5.525,5.525,0,0,1-3.815-2.37,4.789,4.789,0,0,1-1.065-.03,5.555,5.555,0,0,0,3.675,2.185,5.685,5.685,0,0,0,4.16,4.29,4.777,4.777,0,0,0,1.285,1.775v.415a3.67,3.67,0,0,0,3.585,3.73A3.73,3.73,0,0,1,508.045,588.71Z" transform="translate(-274.86 -371.409)" opacity="0.1"/>
    <ellipse id="Ellipse_103" data-name="Ellipse 103" cx="0.655" cy="0.875" rx="0.655" ry="0.875" transform="translate(225.475 210.571) rotate(-37.22)" fill="#fbbebe"/>
  </g>
</svg>
