<svg xmlns="http://www.w3.org/2000/svg" xmlns:xlink="http://www.w3.org/1999/xlink" width="548" height="291.631" viewBox="0 0 548 291.631">
  <defs>
    <linearGradient id="linear-gradient" x1="0.5" y1="1" x2="0.5" y2="-0.001" gradientUnits="objectBoundingBox">
      <stop offset="0" stop-color="gray" stop-opacity="0.251"/>
      <stop offset="0.54" stop-color="gray" stop-opacity="0.122"/>
      <stop offset="1" stop-color="gray" stop-opacity="0.102"/>
    </linearGradient>
  </defs>
  <g id="Group_888" data-name="Group 888" transform="translate(-1092 -3133)">
    <g id="programming" transform="translate(1091.989 3132.965)">
      <path id="Path_489" data-name="Path 489" d="M585.35,403.546q-.916,1.974-1.826,3.894-1.421,2.984-2.805,5.852c-.41.847-.821,1.679-1.221,2.51-4.526,9.247-8.752,17.425-12.341,24.151a38.529,38.529,0,0,1-33.582,20.367l-79.81.868h-.842l-6.842.074-5.852.063-17.946.195h-.726l-9.136.1h-.279l-56.312.61-50.265.526-5.847.063-36.313.395h-.042l-23.551.253h-.253l-74.468.805-22.277.242a46.347,46.347,0,0,1-14.036-2.01,45.465,45.465,0,0,1-20.572-13.025,105.224,105.224,0,0,1-21.225-36.187q-1.016-2.889-1.895-5.852c-16.215-54.812,3.552-125.528,39.129-172.85q2.237-2.968,4.547-5.789l.037-.042c10.941-13.431,23.209-24.651,36.276-32.629,23.156-14.162,48.812-18.151,74.047-6.263,21.351,10.062,41.286,14.794,60.611,16.078,1.953.126,3.9.221,5.847.279,44.328,1.395,85.873-14.578,134.659-24.888,1.942-.411,3.889-.816,5.852-1.2,34.8-6.926,73.41-10.578,119.323-2.9A99.51,99.51,0,0,1,579.5,180.6q3.037.979,5.852,2.105c21.914,8.915,33.866,25.388,38.944,46.028q.721,2.873,1.247,5.847C634.546,284.234,608.175,354.661,585.35,403.546Z" transform="translate(-79.34 -172.91)" fill="#1a7fc3" opacity="0.1"/>
      <g id="Group_666" data-name="Group 666" transform="translate(5.747 7.211)" opacity="0.1">
        <path id="Path_490" data-name="Path 490" d="M209.553,217V485.2l-22.277.242a46.349,46.349,0,0,1-14.036-2.01v-233.8h.037C184.218,236.183,196.486,224.963,209.553,217Z" transform="translate(-129.564 -200.991)" fill="#1a7fc3"/>
        <path id="Path_491" data-name="Path 491" d="M665.952,284.831H164.6q2.237-2.968,4.547-5.789V279H664.705Q665.426,281.858,665.952,284.831Z" transform="translate(-125.471 -230.361)" fill="#1a7fc3"/>
        <path id="Path_492" data-name="Path 492" d="M1035.552,189.6v224.72h-1.826q-1.421,2.984-2.805,5.852c-.411.847-.821,1.679-1.221,2.51V187.47Q1032.737,188.449,1035.552,189.6Z" transform="translate(-535.289 -187.002)" fill="#1a7fc3"/>
        <path id="Path_493" data-name="Path 493" d="M770.942,186.58V467.743l-5.852.063V187.78C767.032,187.369,768.979,186.964,770.942,186.58Z" transform="translate(-409.937 -186.58)" fill="#1a7fc3"/>
        <path id="Path_494" data-name="Path 494" d="M503.957,235.9V492.5l-5.847.063V235.62C500.063,235.746,502.015,235.82,503.957,235.9Z" transform="translate(-283.463 -209.811)" fill="#1a7fc3"/>
        <path id="Path_495" data-name="Path 495" d="M588.687,618.52q-1.421,2.984-2.8,5.852H92.145q-1.016-2.889-1.895-5.852Z" transform="translate(-90.25 -391.2)" fill="#1a7fc3"/>
      </g>
      <rect id="Rectangle_216" data-name="Rectangle 216" width="9.999" height="30.345" transform="translate(111.365 139.917)" fill="#3f3d56"/>
      <rect id="Rectangle_217" data-name="Rectangle 217" width="9.999" height="32.103" transform="translate(380.466 138.338)" fill="#3f3d56"/>
      <path id="Path_496" data-name="Path 496" d="M504.492,520.149v6.842l-79.952.737-.853.016-30.387.279-.726.011-9.236.079h-.274l-56.3.521-92.42.858h-.079l-23.5.221-.253.005-104.413.958V522.78l24.551-14.736,49.26-.411,1.053-.005.347-.005,1.053-.016,23.651-.195,1.058-.005.337-.005,1.053-.005,7.584-.063.2-.005,18.709-.158h.153L381.1,505.939l3.573-.026h.358l2.726-.026,19.814-.163,1.053-.016.974-.01h.505l6.163-.047,1.221-.016,1.637-.011,5.131-.047,8.141-.068,1.053-.011,1.831-.01h.342l39.318-.337Z" transform="translate(-50.257 -239.285)" fill="#65617d"/>
      <path id="Path_497" data-name="Path 497" d="M504.492,520.149v6.842l-79.952.737-.853.016-30.387.279-.726.011-9.236.079h-.274l-56.3.521-92.42.858h-.079l-23.5.221-.253.005-104.413.958V522.78l24.551-14.736,49.26-.411,1.053-.005.347-.005,1.053-.016,23.651-.195,1.058-.005.337-.005,1.053-.005,7.584-.063.2-.005,18.709-.158h.153L381.1,505.939l3.573-.026h.358l2.726-.026,19.814-.163,1.053-.016.974-.01h.505l6.163-.047,1.221-.016,1.637-.011,5.131-.047,8.141-.068,1.053-.011,1.831-.01h.342l39.318-.337Z" transform="translate(-50.257 -239.285)" opacity="0.2"/>
      <path id="Path_498" data-name="Path 498" d="M353.095,656.57v12.888a3.226,3.226,0,0,1-1.842,2.916,3.158,3.158,0,0,1-1.316.316l-18.367.389a3.155,3.155,0,0,1-1.421-.3,3.221,3.221,0,0,1-1.879-2.931V656.57Z" transform="translate(-197.259 -402.014)" fill="#3f3d56"/>
      <path id="Path_499" data-name="Path 499" d="M353.095,656.57v12.888a3.226,3.226,0,0,1-1.842,2.916,3.158,3.158,0,0,1-1.316.316l-18.367.389a3.155,3.155,0,0,1-1.421-.3,3.221,3.221,0,0,1-1.879-2.931V656.57Z" transform="translate(-197.259 -402.014)" opacity="0.1"/>
      <path id="Path_500" data-name="Path 500" d="M355.094,656.57v12.888a3.226,3.226,0,0,1-1.842,2.916,3.158,3.158,0,0,1-1.316.316l-18.367.389a3.155,3.155,0,0,1-1.421-.3,3.221,3.221,0,0,1-1.879-2.931V656.57Z" transform="translate(-198.206 -402.014)" fill="#3f3d56"/>
      <rect id="Rectangle_218" data-name="Rectangle 218" width="24.824" height="16.578" transform="translate(358.363 254.556)" fill="#3f3d56"/>
      <rect id="Rectangle_219" data-name="Rectangle 219" width="24.824" height="16.578" transform="translate(358.363 254.556)" opacity="0.1"/>
      <rect id="Rectangle_220" data-name="Rectangle 220" width="24.824" height="16.578" transform="translate(357.31 254.556)" fill="#3f3d56"/>
      <path id="Path_501" data-name="Path 501" d="M221.6,265.82v3.016l-10-.258V265.82Z" transform="translate(-100.235 -125.909)" opacity="0.1"/>
      <path id="Path_502" data-name="Path 502" d="M331.886,269.11l-12.015,86.309a2.263,2.263,0,0,1-2.3,1.952l-96.2-2.494-1.826-.047a2.263,2.263,0,0,1-2.189-2.563l13.488-90.351a2.263,2.263,0,0,1,2.389-1.91l96.551,6.536a2.258,2.258,0,0,1,2.105,2.568Z" transform="translate(-144.705 -214.15)" fill="#65617d"/>
      <path id="Path_503" data-name="Path 503" d="M166.773,99.16,156.6,178.8l88.415,2.805,10.873-76.836Z" transform="translate(-74.18 -46.958)" fill="#1a7fc3"/>
      <rect id="Rectangle_221" data-name="Rectangle 221" width="107.713" height="91.22" rx="5.33" transform="translate(202.411 50.971)" fill="#65617d"/>
      <rect id="Rectangle_222" data-name="Rectangle 222" width="97.888" height="75.958" transform="translate(207.495 57.112)" fill="#1a7fc3"/>
      <path id="Path_504" data-name="Path 504" d="M732.929,262.82v1.995l-10,.205v-2.2Z" transform="translate(-342.464 -124.487)" opacity="0.1"/>
      <path id="Path_505" data-name="Path 505" d="M807.786,349.328a1.621,1.621,0,0,1-1.579,1.726l-98.519,2.037a1.621,1.621,0,0,1-1.647-1.468l-8.468-88.036a1.621,1.621,0,0,1,1.537-1.774l97.772-4.863,1.052-.053a1.616,1.616,0,0,1,1.695,1.474Z" transform="translate(-372.203 -212.679)" fill="#65617d"/>
      <path id="Path_506" data-name="Path 506" d="M628.93,99.209l89.293-4.389,7.542,79.994-88.588,2.105Z" transform="translate(-297.934 -44.902)" fill="#1a7fc3"/>
      <path id="Path_507" data-name="Path 507" d="M897.184,349.328a1.621,1.621,0,0,1-1.579,1.726l-9.326-94.1,1.053-.053a1.616,1.616,0,0,1,1.695,1.474Z" transform="translate(-461.601 -212.679)" opacity="0.1"/>
      <path id="Path_508" data-name="Path 508" d="M233.246,259.994l-11.878,94.877-1.826-.047a2.263,2.263,0,0,1-2.189-2.563L230.84,261.91A2.263,2.263,0,0,1,233.246,259.994Z" transform="translate(-144.705 -214.144)" opacity="0.1"/>
      <rect id="Rectangle_223" data-name="Rectangle 223" width="9.999" height="8.989" transform="translate(111.365 161.273)" opacity="0.1"/>
      <path id="Path_509" data-name="Path 509" d="M275.755,483.65v2.616l-24.825.663V483.65Z" transform="translate(-118.866 -229.1)" opacity="0.1"/>
      <path id="Path_510" data-name="Path 510" d="M366.182,483.4v88.52A2.105,2.105,0,0,1,364.156,574L263.3,576.681h-.026a2.105,2.105,0,0,1-2.079-2.079V483.4a2.105,2.105,0,0,1,2.079-2.079H364.1A2.105,2.105,0,0,1,366.182,483.4Z" transform="translate(-165.481 -318.994)" fill="#65617d"/>
      <path id="Path_511" data-name="Path 511" d="M263.3,481.32v95.361h-.026a2.105,2.105,0,0,1-2.079-2.079V483.4a2.105,2.105,0,0,1,2.079-2.079Z" transform="translate(-165.481 -318.994)" opacity="0.1"/>
      <path id="Path_512" data-name="Path 512" d="M194.6,319.15h93.414v78.021L194.6,399.276Z" transform="translate(-92.181 -151.172)" fill="#d4dfec"/>
      <rect id="Rectangle_224" data-name="Rectangle 224" width="9.999" height="9.168" transform="translate(380.466 161.273)" opacity="0.1"/>
      <path id="Path_513" data-name="Path 513" d="M703.755,483.65v3.373l-24.824-.663v-2.71Z" transform="translate(-321.62 -229.1)" opacity="0.1"/>
      <path id="Path_514" data-name="Path 514" d="M773.163,483.4v91.2a2.1,2.1,0,0,1-2.1,2.079h0L670.176,574a2.1,2.1,0,0,1-2.026-2.079V483.4a2.105,2.105,0,0,1,2.079-2.079H771.064a2.105,2.105,0,0,1,2.1,2.079Z" transform="translate(-358.268 -318.994)" fill="#65617d"/>
      <path id="Path_515" data-name="Path 515" d="M865.8,483.4v91.2a2.1,2.1,0,0,1-2.105,2.079h0V481.32h0A2.105,2.105,0,0,1,865.8,483.4Z" transform="translate(-450.9 -318.994)" opacity="0.1"/>
      <path id="Path_516" data-name="Path 516" d="M691.514,319.15H598.1v78.021l93.414,2.105Z" transform="translate(-283.329 -151.172)" fill="#d4dfec"/>
      <path id="Path_517" data-name="Path 517" d="M568.682,483.4v88.52A2.105,2.105,0,0,1,566.656,574L465.8,576.681h0a2.105,2.105,0,0,1-2.105-2.079V483.4a2.105,2.105,0,0,1,2.079-2.079H566.6A2.105,2.105,0,0,1,568.682,483.4Z" transform="translate(-261.41 -318.994)" fill="#65617d"/>
      <path id="Path_518" data-name="Path 518" d="M397.1,319.15h93.414v78.021L397.1,399.276Z" transform="translate(-188.11 -151.172)" fill="#d4dfec"/>
      <path id="Path_519" data-name="Path 519" d="M504.492,533.65v6.842l-79.952.737-.853.016-30.387.279-.726.011-9.236.079h-.274l-56.3.521-92.42.858h-.079l-23.5.221-.253.005-104.413.958v-7.894l106.576-.7h.253l21.572-.147h.1l148.979-.984h.153l.089-.005h.247l2.521-.016h.768l39.2-.263,2.316-.011.516-.005Z" transform="translate(-50.257 -252.786)" opacity="0.1"/>
      <circle id="Ellipse_172" data-name="Ellipse 172" cx="27.014" cy="27.014" r="27.014" transform="translate(229.425 116.234)" fill="#fbbebe"/>
      <path id="Path_520" data-name="Path 520" d="M383.74,546.446a.652.652,0,0,1,.053-.184c.526-1.889,1.463-5.084,2.163-7.636.089-.316.174-.626.253-.921.774-2.879,2.279-9.62,3.116-13.825.295-1.479.526-2.631.574-3.21.105-.889,1.689-4.694,3.484-9.068,1.258-3.073,2.631-6.431,3.637-9.262a32.3,32.3,0,0,0,1.542-5.184,2.685,2.685,0,0,0,0-1.121,7.735,7.735,0,0,1-.253-1.842h0c-.121-3.263.853-8.42,2.358-10.583,1.842-2.631,3.158-12.452,3.158-12.452s2.726.395,3.158-1.858a3.234,3.234,0,0,0,.052-.737,3.892,3.892,0,0,0-.047-.584c-.468-3.284,7.747-6.778,12.368-7.531a10.361,10.361,0,0,1,1.579-.147,14.331,14.331,0,0,0,3.289-.758q.737-.226,1.579-.526c1.937-.653,4.252-1.516,6.71-2.463,9.241-3.584,20.43-8.42,20.43-8.42.079-.374.168-.732.268-1.084a14.583,14.583,0,0,1,8.6-9.962h0v-1.053c0-1.816-.079-3.684-.158-5.547,0-.363-.032-.726-.053-1.089V428.8c0-.368-.037-.737-.058-1.1l-.095-.074a8.634,8.634,0,0,1-2.052-2.21,8.033,8.033,0,0,1-.747-1.579,48.239,48.239,0,0,1-1.253-5.657l-.095-.389a44.2,44.2,0,0,0-2.105-5.568c-1.163-2.852-2.058-5.789-2.947-8.762q-.811-2.7-1.637-5.41l-.832-2.758c-.158-.526-.316-1.053-.437-1.579h0a6.949,6.949,0,0,1-.137-.737h0a5.264,5.264,0,0,1,.126-2.426,16.891,16.891,0,0,1,.695-1.579,4.141,4.141,0,0,0,.263-.726h0a1.581,1.581,0,0,0,.042-.168,2.973,2.973,0,0,0,.058-.568,9.71,9.71,0,0,0-.274-2.047.037.037,0,0,1,0-.026,1.367,1.367,0,0,0-.026-.142,13.427,13.427,0,0,1-.189-1.579,14.973,14.973,0,0,1,1.826-8.194l.1-.189a13.271,13.271,0,0,1,.968-1.463h0a7.384,7.384,0,0,1,.526-.642,2.1,2.1,0,0,1-2.921-.758,2.032,2.032,0,0,1-.121-.237c-.026-.063-.047-.132-.068-.2a4.3,4.3,0,0,1,1.116-3.71,9.73,9.73,0,0,1,3.021-2.474h0a2.032,2.032,0,0,1,.211-.11,9,9,0,0,1,1.389-.558h0a7.9,7.9,0,0,1,.858-.232l-1.952-.179-.789-.074a7.626,7.626,0,0,1,6.842-5.742h.568a6.181,6.181,0,0,1,.826.068,2.337,2.337,0,0,1-1.395-2.279,7.584,7.584,0,0,0,4.836,1.61h.2a15.785,15.785,0,0,1-.179-1.721h0a17.473,17.473,0,0,1,0-2.347,4.442,4.442,0,0,0,3.568,1.189l-1.095-1.526a5,5,0,0,0,3.452,1.079l.253-.026a3.689,3.689,0,0,0,.626-.121h.047c-.1-.126-.189-.258-.279-.395l-.032-.063a5.087,5.087,0,0,1-.526-1.1,3.482,3.482,0,0,1-.126-.458h0a4.6,4.6,0,0,1,.237-2.868c1.7,1.421,3.563,3.363,5.789,1.895s2.3-4.163,5.789-3.889a5.368,5.368,0,0,1,4.426,3.221,3.552,3.552,0,0,1,4.037-.921,3.605,3.605,0,0,1,2.042,3.626,7.272,7.272,0,0,1,4.394-.174c1.389.547,2.284,2.321,1.495,3.5a.75.75,0,0,1-.074.105c-.647.837-2.079,1.295-1.926,2.347l.221.158.684.495q4.026,2.9,7.841,6.1c1.305,1.095,2.695,2.41,2.784,4.121a4.548,4.548,0,0,1-.126,1.247h0c-.084.411-.2.821-.289,1.231a10.269,10.269,0,0,0-.179,3.184h0c.037.31.084.616.142.926.805,4.068,4.058,7.426,4.379,11.578v.295a9.353,9.353,0,0,1-.037,1.332c-.242,2.526-1.41,4.952-2.358,7.368-.058.147-.116.295-.168.442a73.314,73.314,0,0,0-3.684,14.82,52.748,52.748,0,0,1-1.053,5.31,14.068,14.068,0,0,1-2.679,5.489,8.537,8.537,0,0,1-1.768,1.579,9.823,9.823,0,0,1-1.395.742v.032c.058.321.105.642.163.963.032.168.058.337.089.526h0a.075.075,0,0,0,0,.032c.442,2.489.947,4.926,1.479,7.242l.268,1.153c6.631,2.395,7.415,7.3,7.463,9.178a5.061,5.061,0,0,1,0,.753s10,.263,13.946,3.158a10.7,10.7,0,0,0,2.373,1.21,43.685,43.685,0,0,0,4.868,1.521c.847.221,1.731.437,2.631.647,1.579.363,3.252.716,4.868,1.053,4.31.868,8.368,1.579,10.426,2.105,4.91,1.242,16.141,12.01,16.141,12.01s1.316,10.862,2.631,12.447,3.684,7.152,3.684,7.152l8.7,15.478,3.684,6.51h2.368a4.027,4.027,0,0,1,1.689,1.105c.626.558,1.321,1.253,1.931,1.884l1.01,1.079.632.7s3.826.095,4.863,3.121c3.116-.089,6.942.116,9.62,1.316a7.451,7.451,0,0,1,1.053.568,4.568,4.568,0,0,1,2.173,2.979,4.4,4.4,0,0,1,.095.758v.895c-.189,3.984-2.784,7.3-5.168,9.531l.168.3s-.079.19-.232.526c-.042.1-.095.211-.153.337h0c-.311.663-.805,1.658-1.453,2.821a33.323,33.323,0,0,1-5.037,6.931l-.153.158-30.387.279-.089-.105-5.894-7.031-2.931-3.494-.09-.111-.084.837-.284,2.789-.684,6.742-.037.337v.089l-.079.779.058-.779h-.153l-56.312.526-92.425,1.021v.442h-.074v-.442l-23.551.253Z" transform="translate(-223.536 -255.83)" fill="url(#linear-gradient)"/>
      <path id="Path_521" data-name="Path 521" d="M575,497.947s-52.365,6.315-47.365,0c1.81-2.284,2.31-9.052,2.21-16.762-.032-2.342-.116-4.768-.237-7.184-.579-11.578-1.974-22.893-1.974-22.893s45.786-21.577,40.523-4.473c-2.105,6.91-1.416,16.615.184,25.724.468,2.658,1.01,5.263,1.579,7.736A181.31,181.31,0,0,0,575,497.947Z" transform="translate(-291.544 -299.44)" fill="#fbbebe"/>
      <path id="Path_522" data-name="Path 522" d="M575,532.876s-52.365,6.315-47.365,0c1.81-2.284,2.31-9.052,2.21-16.762,7.984-3.41,18.141-.868,18.141-.868,10.694-2.131,17.551-1.716,21.935-.221A181.3,181.3,0,0,0,575,532.876Z" transform="translate(-291.544 -334.369)" opacity="0.1"/>
      <path id="Path_523" data-name="Path 523" d="M407.805,626.1v-.442l92.425-1.005,56.312-.526h.158l-.058.779.079-.779h.1v-.089l.721-7.078.274-2.679.084-.837.074-.7,3.252-10.847,3.252-10.831,2.737-9.12,4.179-13.936s-2.368-5.526-3.684-7.1-2.631-12.368-2.631-12.368-11.231-10.7-16.141-11.931c-2.058-.526-6.121-1.226-10.436-2.105-1.616-.326-3.273-.674-4.868-1.053-.9-.205-1.784-.421-2.631-.637a46.268,46.268,0,0,1-4.868-1.505,10.9,10.9,0,0,1-2.368-1.205c-3.868-2.837-13.562-3.158-13.936-3.158h0a.232.232,0,0,1,0-.037v-.047a5.365,5.365,0,0,0,0-.663,4.23,4.23,0,0,0-.047-.737.663.663,0,0,0-.037-.263c-.026-.189-.058-.389-.105-.6a2.625,2.625,0,0,0-.063-.279,9.056,9.056,0,0,0-.658-1.837c-.037-.084-.084-.174-.126-.258a9.592,9.592,0,0,0-.895-1.384c-.068-.09-.142-.184-.221-.274a10.305,10.305,0,0,0-1.432-1.389c-.142-.111-.289-.226-.442-.332a2.472,2.472,0,0,0-.268-.189l-.468-.305-.437-.253c-.384-.211-.789-.416-1.232-.611-.137-.063-.284-.121-.432-.179s-.379-.147-.574-.221h-.032l-.395-.158c-.3-.1-.605-.189-.926-.279l-.489-.126-.526-.121-.526-.111c-.526-.105-1.089-.2-1.679-.274l-.6-.074-.616-.063-.637-.053-.905-.053-1.052-.037a65.625,65.625,0,0,0-13.815,1.47,38.029,38.029,0,0,0-9.6-.885h-.458l-.526.032h-.337l-.679.063a5.059,5.059,0,0,0-.684.079c-.226.032-.463.058-.689.095l-.347.058c-.342.058-.689.121-1.053.195q-.174.031-.347.079c-.458.1-.916.221-1.368.358-.226.063-.453.137-.679.216-.116.032-.226.074-.337.116l-.337.121-.332.132-.395.158c-.2.084-.395.174-.589.268-.111.047-.221.1-.326.158s-.216.105-.316.163a14.6,14.6,0,0,0-3.268,2.305l-.268.258-.263.268c-.09.089-.174.184-.258.279a12.558,12.558,0,0,0-.958,1.184c-.084.11-.163.221-.242.337a14.038,14.038,0,0,0-.905,1.537c-.069.126-.132.258-.195.384a17.207,17.207,0,0,0-1.053,2.763q-.147.526-.268,1.053s-11.141,4.915-20.383,8.473c-2.458.947-4.773,1.805-6.71,2.453-.563.189-1.089.363-1.579.526a14.051,14.051,0,0,1-3.289.758,10.357,10.357,0,0,0-1.579.147c-4.247.689-11.526,3.684-12.32,6.689a1.941,1.941,0,0,0-.053.737v.058c.526,3.684-3.158,3.158-3.158,3.158s-1.316,9.736-3.158,12.368c-1.331,1.895-2.242,6.12-2.358,9.31h0a10.322,10.322,0,0,0,.232,2.963v.074c.211.705-.295,2.631-1.153,5.1-.932,2.71-2.289,6.078-3.594,9.257-1.968,4.8-3.821,9.157-3.937,10.115-.047.426-.184,1.189-.374,2.174-.768,4.01-2.474,11.646-3.316,14.736-.626,2.305-1.537,5.463-2.163,7.631a.738.738,0,0,1-.053.184l23.593-.232v.442h.074Z" transform="translate(-223.74 -335.3)" fill="#1a7fc3"/>
      <path id="Path_524" data-name="Path 524" d="M445.44,607.57s30,15.525,40.787,13.683Z" transform="translate(-252.765 -378.802)" opacity="0.1"/>
      <path id="Path_525" data-name="Path 525" d="M561.44,595.57s29.208,9.473,38.945,10.789S561.44,595.57,561.44,595.57Z" transform="translate(-307.717 -373.117)" opacity="0.1"/>
      <path id="Path_526" data-name="Path 526" d="M572.217,528.234c-15.262,2.81-44,2.2-56.417,1.779,4.552-16.315,26.751-10.768,26.751-10.768C570.028,513.761,572.133,525.139,572.217,528.234Z" transform="translate(-286.096 -336.263)" opacity="0.1"/>
      <path id="Path_527" data-name="Path 527" d="M572.217,526.234c-15.262,2.81-44,2.2-56.417,1.779,4.552-16.315,26.751-10.768,26.751-10.768C570.028,511.761,572.133,523.139,572.217,526.234Z" transform="translate(-286.096 -335.316)" fill="#1a7fc3"/>
      <path id="Path_528" data-name="Path 528" d="M776.94,671.9s17.978-2.763,18.33,5.131-9.168,13.41-9.168,13.41Z" transform="translate(-409.804 -409.054)" fill="#fbbebe"/>
      <path id="Path_529" data-name="Path 529" d="M568.619,472.36a24.768,24.768,0,0,1-2.368.916c-5.673,1.958-11.394,3.931-17.367,4.647s-12.241.084-17.451-2.895A15.156,15.156,0,0,1,529.854,474c-.579-11.578-1.974-22.893-1.974-22.893s45.786-21.577,40.523-4.473C566.309,453.545,567.019,463.25,568.619,472.36Z" transform="translate(-291.819 -299.44)" opacity="0.1"/>
      <path id="Path_530" data-name="Path 530" d="M531.393,358.688a4.984,4.984,0,0,1-4.379-.921l1.095,1.521a4.458,4.458,0,0,1-3.568-1.184,17.94,17.94,0,0,0,.168,4.079,7.642,7.642,0,0,1-5.031-1.579,2.326,2.326,0,0,0,1.389,2.268,7.547,7.547,0,0,0-8.21,5.636l2.747.253a9.72,9.72,0,0,0-5.494,3.352,4.257,4.257,0,0,0-1.116,3.684c.368,1.284,2.147,2.105,3.116,1.189a14.7,14.7,0,0,0-3.21,11.994,7.614,7.614,0,0,1,.242,2.768,23.485,23.485,0,0,1-.995,2.468c-.526,1.537-.026,3.205.442,4.736l2.468,8.115c.895,2.931,1.784,5.868,2.952,8.7a43.2,43.2,0,0,1,2.105,5.531c.663,2.547.689,5.336,2.105,7.563A10.489,10.489,0,0,0,522,432.2c5.2,2.979,11.494,3.61,17.451,2.895s11.673-2.689,17.341-4.647a16.317,16.317,0,0,0,3.6-1.579c3.921-2.568,4.794-7.821,5.526-12.446a70.666,70.666,0,0,1,3.837-15.157c1.147-2.889,2.631-5.821,2.379-8.915-.321-4.11-3.573-7.442-4.379-11.483a10,10,0,0,1,.037-4.089,9.3,9.3,0,0,0,.416-2.474c-.089-1.695-1.479-3-2.784-4.089q-4.247-3.547-8.768-6.7c-.153-1.053,1.279-1.505,1.926-2.337.916-1.174-.032-3.037-1.421-3.584a7.273,7.273,0,0,0-4.394.174,3.468,3.468,0,0,0-6.079-2.689,5.368,5.368,0,0,0-4.431-3.2c-3.489-.274-3.558,2.395-5.789,3.863s-4.073-.468-5.789-1.879A4.884,4.884,0,0,0,531.393,358.688Z" transform="translate(-282.364 -257.663)" fill="#3f3d56"/>
      <path id="Path_531" data-name="Path 531" d="M756.163,657.44s-.468,1.116-1.332,2.731a36.307,36.307,0,0,1-4.736,6.931l-.142.153H749.1l-30.387.279h-.726l-.09-.105L712,660.434l-2.221-2.637-.09-.111-.189-.221-.105-.126-.137-.163-4.321-5.126,1.579-6.579,2.689-11.083.068-.268.526-2.105.374-1.579,1.253-5.147,4.294-17.709,7.631,3.947,8.047,14.209,4.321,7.631h2.368c.447,0,1.473.863,2.505,1.858.368.353.737.726,1.053,1.053.937.968,1.679,1.8,1.679,1.8s3.836.084,4.868,3.105a3.652,3.652,0,0,1,.132.447,21.221,21.221,0,0,0,1.331,3.452c.679,1.479,1.531,3.158,2.395,4.836,1.605,3.079,3.237,6.01,3.837,7.073l.074.132Z" transform="translate(-375.696 -378.807)" fill="#1a7fc3"/>
      <path id="Path_532" data-name="Path 532" d="M580.222,651.657l-.053.753v.053l-.089,1.21-.7,9.741-.847,11.736-.242,3.305-.526,7.073v.089l-56.312.526-92.409,1v.442h-.074V687l.237-7.557.453-14.767.389-12.52.037-1.247a5.542,5.542,0,0,1,6.01-5.352c2.484.211,5.71.468,9.568.742l1.579.116c22.277,1.547,63.448,3.547,104.992,1.053.874-.047,1.752-.1,2.631-.163,6.442-.405,12.878-.926,19.251-1.579a5.542,5.542,0,0,1,6.1,5.91Z" transform="translate(-244.963 -396.785)" opacity="0.1"/>
      <path id="Path_533" data-name="Path 533" d="M429.08,689.5v-.442l92.425-1.005,56.312-.526h.158v-.09l.526-7.073.226-3.158.863-11.9.679-9.42v-.231a5.587,5.587,0,0,0-.058-1.3.159.159,0,0,0,0-.053,5.469,5.469,0,0,0-1.053-2.442,5.547,5.547,0,0,0-4.957-2.105c-6.373.653-12.81,1.174-19.251,1.579-.879.063-1.758.116-2.631.163-41.544,2.468-82.715.468-104.992-1.053l-1.579-.116c-3.858-.274-7.084-.526-9.568-.742a5.547,5.547,0,0,0-5.915,4.489,5.764,5.764,0,0,0-.095.863l-.358,11.662-.489,14.772-.232,7.557v.589Z" transform="translate(-245.015 -398.695)" fill="#3f3d56"/>
      <path id="Path_534" data-name="Path 534" d="M580.446,660.816l-.647,8.068-.963,12.025-.242,3.01-.526,6.742-.032.337v.089h0l-.079.779.058-.779h-.153l-56.312.526-92.441,1v-.147l.258-7.557.526-14.767.337-9.815a3.347,3.347,0,0,1,1.61-2.763,3.29,3.29,0,0,1,1.989-.474c1.105.089,2.463.195,4.047.311,2.573.189,5.747.41,9.441.642,6.842.432,15.425.895,25.261,1.274,27.366,1.053,64.311,1.405,99.4-1.668,1.579-.137,3.21-.29,4.8-.442a3.294,3.294,0,0,1,1.831.347,2.712,2.712,0,0,1,.453.284,3.231,3.231,0,0,1,1.053,1.295,1.875,1.875,0,0,1,.132.321A3.3,3.3,0,0,1,580.446,660.816Z" transform="translate(-245.029 -402.255)" opacity="0.1"/>
      <path id="Path_535" data-name="Path 535" d="M355.094,677.87v1.679a3.226,3.226,0,0,1-1.842,2.916l-21.1.405a3.221,3.221,0,0,1-1.879-2.931v-1.579Z" transform="translate(-198.206 -412.105)" opacity="0.1"/>
      <path id="Path_536" data-name="Path 536" d="M273.848,511.463l-27.5.526v-4.563l27.5-.526Z" transform="translate(-116.697 -240.114)" fill="#3f3d56"/>
      <path id="Path_537" data-name="Path 537" d="M273.848,511.463l-27.5.526v-4.563l27.5-.526Z" transform="translate(-116.697 -240.114)" opacity="0.1"/>
      <path id="Path_538" data-name="Path 538" d="M275.848,511.463l-27.5.526v-4.563l27.5-.526Z" transform="translate(-117.644 -240.114)" fill="#3f3d56"/>
      <g id="Group_667" data-name="Group 667" transform="translate(225.77 97.015)" opacity="0.1">
        <path id="Path_539" data-name="Path 539" d="M551.981,359.5a5.132,5.132,0,0,1-.995-2.284,4.992,4.992,0,0,0,.221,2.421A4.74,4.74,0,0,0,551.981,359.5Z" transform="translate(-528.506 -357.22)"/>
        <path id="Path_540" data-name="Path 540" d="M540.055,366.447a18.513,18.513,0,0,1-.195-1.947v1.952Z" transform="translate(-523.264 -360.669)"/>
        <path id="Path_541" data-name="Path 541" d="M621.7,397.591a9.646,9.646,0,0,1,.189-1.395,9.468,9.468,0,0,0,.421-2.468,3.238,3.238,0,0,0-.084-.558c-.089.484-.232.968-.337,1.447A10.073,10.073,0,0,0,621.7,397.591Z" transform="translate(-562.015 -374.25)"/>
        <path id="Path_542" data-name="Path 542" d="M600.92,368.268l.574.416a10.367,10.367,0,0,0,1.352-1.168,1.931,1.931,0,0,0,.2-1.916,1.569,1.569,0,0,1-.2.337C602.2,366.768,600.767,367.226,600.92,368.268Z" transform="translate(-552.184 -361.19)"/>
        <path id="Path_543" data-name="Path 543" d="M518.348,380.29a6.492,6.492,0,0,0-.458,1.2,9.557,9.557,0,0,1,2.631-.995Z" transform="translate(-512.856 -368.149)"/>
        <path id="Path_544" data-name="Path 544" d="M531.655,368.827a7.8,7.8,0,0,1-.989-.647,2.237,2.237,0,0,0,.047.621A6.251,6.251,0,0,1,531.655,368.827Z" transform="translate(-518.906 -362.412)"/>
        <path id="Path_545" data-name="Path 545" d="M572.528,428.33c-.216,2.552-1.405,5.01-2.368,7.431a70.651,70.651,0,0,0-3.837,15.162c-.731,4.626-1.579,9.878-5.526,12.441a15.8,15.8,0,0,1-3.594,1.579c-5.673,1.963-11.394,3.931-17.367,4.647s-12.241.09-17.451-2.889a10.526,10.526,0,0,1-3.779-3.331c-1.405-2.226-1.431-5.015-2.105-7.563a43.252,43.252,0,0,0-2.105-5.536c-1.163-2.831-2.058-5.789-2.947-8.7q-1.237-4.058-2.468-8.12a15.168,15.168,0,0,1-.6-2.5,9.433,9.433,0,0,0,.6,4.079q1.231,4.068,2.468,8.12c.889,2.931,1.784,5.868,2.947,8.7a43.247,43.247,0,0,1,2.105,5.536c.663,2.547.69,5.336,2.105,7.563a10.527,10.527,0,0,0,3.779,3.331c5.21,2.979,11.494,3.6,17.451,2.889s11.673-2.684,17.367-4.647a15.793,15.793,0,0,0,3.594-1.579c3.921-2.563,4.794-7.815,5.526-12.441a70.651,70.651,0,0,1,3.837-15.162c1.147-2.884,2.631-5.815,2.379-8.915C572.538,428.393,572.528,428.362,572.528,428.33Z" transform="translate(-508.324 -390.906)"/>
        <path id="Path_546" data-name="Path 546" d="M510.208,420.348v-.058a7.367,7.367,0,0,0-.242-2.763,13.979,13.979,0,0,1-.205-1.747,14.4,14.4,0,0,0,.205,3.326C510.05,419.517,510.145,419.932,510.208,420.348Z" transform="translate(-508.995 -384.961)"/>
        <path id="Path_547" data-name="Path 547" d="M512.019,397.2a14.6,14.6,0,0,1,1.374-1.931c-.963.921-2.742.1-3.116-1.179a3.069,3.069,0,0,0,0,1.579,2.31,2.31,0,0,0,1.742,1.531Z" transform="translate(-509.201 -374.686)"/>
      </g>
      <path id="Path_548" data-name="Path 548" d="M762.773,656.57s1.668,6.052,0,11.315S762.773,656.57,762.773,656.57Z" transform="translate(-402.741 -402.014)" opacity="0.1"/>
      <path id="Path_549" data-name="Path 549" d="M775.673,668.3s.7,7.684-.879,9.047S775.673,668.3,775.673,668.3Z" transform="translate(-408.537 -407.571)" opacity="0.1"/>
      <line id="Line_27" data-name="Line 27" y1="0.526" x2="53.475" transform="translate(104.729 179.93)" fill="none" stroke="#1a7fc3" stroke-miterlimit="10" stroke-width="2"/>
      <line id="Line_28" data-name="Line 28" y1="0.521" x2="53.475" transform="translate(104.729 186.498)" fill="none" stroke="#1a7fc3" stroke-miterlimit="10" stroke-width="2"/>
      <line id="Line_29" data-name="Line 29" y1="0.526" x2="53.475" transform="translate(104.729 193.06)" fill="none" stroke="#1a7fc3" stroke-miterlimit="10" stroke-width="2"/>
    </g>
  </g>
</svg>
