<svg id="undraw_creative_team_r90h" xmlns="http://www.w3.org/2000/svg" width="779.999" height="486.076" viewBox="0 0 779.999 486.076">
  <circle id="Ellipse_249" data-name="Ellipse 249" cx="176.608" cy="176.608" r="176.608" transform="translate(416.354 79.265)" fill="#f2f2f2"/>
  <circle id="Ellipse_250" data-name="Ellipse 250" cx="67.445" cy="67.445" r="67.445" transform="translate(28.373 0)" fill="#75c6fd"/>
  <circle id="Ellipse_251" data-name="Ellipse 251" cx="176.608" cy="176.608" r="176.608" transform="translate(40.193 9.039)" fill="#f2f2f2"/>
  <ellipse id="Ellipse_252" data-name="Ellipse 252" cx="193.991" cy="10.43" rx="193.991" ry="10.43" transform="translate(14.467 351.13)" fill="#3f3d56"/>
  <ellipse id="Ellipse_253" data-name="Ellipse 253" cx="145.319" cy="7.193" rx="145.319" ry="7.193" transform="translate(24.201 354.726)" opacity="0.1"/>
  <ellipse id="Ellipse_254" data-name="Ellipse 254" cx="193.991" cy="11.473" rx="193.991" ry="11.473" transform="translate(392.018 422.747)" fill="#3f3d56"/>
  <ellipse id="Ellipse_255" data-name="Ellipse 255" cx="145.319" cy="7.912" rx="145.319" ry="7.912" transform="translate(401.752 426.703)" opacity="0.1"/>
  <ellipse id="Ellipse_256" data-name="Ellipse 256" cx="123.795" cy="6.258" rx="123.795" ry="6.258" transform="translate(154.956 401.192)" fill="#3f3d56"/>
  <ellipse id="Ellipse_257" data-name="Ellipse 257" cx="59.729" cy="3.019" rx="59.729" ry="3.019" transform="translate(0 383.571)" fill="#3f3d56"/>
  <ellipse id="Ellipse_258" data-name="Ellipse 258" cx="111.165" cy="5.619" rx="111.165" ry="5.619" transform="translate(551.411 474.838)" fill="#3f3d56"/>
  <rect id="Rectangle_270" data-name="Rectangle 270" width="222.498" height="132.108" transform="translate(428.174 301.068)" fill="#3f3d56"/>
  <circle id="Ellipse_259" data-name="Ellipse 259" cx="50.062" cy="50.062" r="50.062" transform="translate(449.729 318.451)" fill="#1668a0"/>
  <rect id="Rectangle_271" data-name="Rectangle 271" width="16.687" height="16.687" transform="translate(565.149 321.927)" fill="#1668a0"/>
  <rect id="Rectangle_272" data-name="Rectangle 272" width="16.687" height="16.687" transform="translate(586.009 321.927)" fill="#1668a0" opacity="0.5"/>
  <rect id="Rectangle_273" data-name="Rectangle 273" width="16.687" height="16.687" transform="translate(606.868 321.927)" fill="#1668a0" opacity="0.2"/>
  <rect id="Rectangle_274" data-name="Rectangle 274" width="16.687" height="16.687" transform="translate(565.149 342.786)" fill="#2f2e41"/>
  <rect id="Rectangle_275" data-name="Rectangle 275" width="16.687" height="16.687" transform="translate(586.009 342.786)" fill="#2f2e41" opacity="0.5"/>
  <rect id="Rectangle_276" data-name="Rectangle 276" width="16.687" height="16.687" transform="translate(606.868 342.786)" fill="#2f2e41" opacity="0.2"/>
  <rect id="Rectangle_277" data-name="Rectangle 277" width="16.687" height="16.687" transform="translate(565.149 363.645)" fill="#75c6fd"/>
  <rect id="Rectangle_278" data-name="Rectangle 278" width="16.687" height="16.687" transform="translate(586.009 363.645)" fill="#75c6fd" opacity="0.5"/>
  <rect id="Rectangle_279" data-name="Rectangle 279" width="16.687" height="16.687" transform="translate(606.868 363.645)" fill="#75c6fd" opacity="0.2"/>
  <path id="Path_1051" data-name="Path 1051" d="M757.9,558.459V658.583c27.649,0,51.453-22.414,51.453-50.062S785.551,558.459,757.9,558.459Z" transform="translate(-258.112 -240.009)" fill="#3f3d56" opacity="0.5"/>
  <path id="Path_1052" data-name="Path 1052" d="M1025.383,546.959s29.2,13.211,18.773,28.508-41.718,44.5-42.414,50.757-4.867,11.82-4.867,11.82-13.906-14.6-12.515-15.992,15.3-14.6,15.992-18.078,21.555-30.594,21.555-30.594l-18.773-16.687Z" transform="translate(-327.082 -236.505)" fill="#ffb9b9"/>
  <path id="Path_1053" data-name="Path 1053" d="M1025.383,546.959s29.2,13.211,18.773,28.508-41.718,44.5-42.414,50.757-4.867,11.82-4.867,11.82-13.906-14.6-12.515-15.992,15.3-14.6,15.992-18.078,21.555-30.594,21.555-30.594l-18.773-16.687Z" transform="translate(-327.082 -236.505)" opacity="0.1"/>
  <path id="Path_1054" data-name="Path 1054" d="M990.4,584.389s20.164,8.344,18.773,21.554,24.336,50.757,24.336,50.757,2.781,9.039,2.086,11.82,18.078,2.086,18.078,2.086v-6.258s-14.6-25.031-15.992-31.984-9.734-34.07-9.734-34.07-2.781-24.336-16.687-24.336A26.074,26.074,0,0,0,990.4,584.389Z" transform="translate(-328.954 -244.731)" fill="#ffb9b9"/>
  <path id="Path_1055" data-name="Path 1055" d="M986.3,498.459s41.719,34.07,40.328,36.851-21.555,13.211-25.031,13.906-28.075-50.757-28.075-50.757Z" transform="translate(-323.811 -221.727)" fill="#2f2e41"/>
  <path id="Path_1056" data-name="Path 1056" d="M986.3,498.459s41.719,34.07,40.328,36.851-21.555,13.211-25.031,13.906-28.075-50.757-28.075-50.757Z" transform="translate(-323.811 -221.727)" opacity="0.1"/>
  <path id="Path_1057" data-name="Path 1057" d="M926.567,505.074S922.4,523.847,933.52,531.5s29.9,37.547,31.984,37.547,31.984-15.992,30.594-18.773-16.687-27.117-16.687-27.117l-4.867-25.726S932.13,496.035,926.567,505.074Z" transform="translate(-309.27 -221.389)" fill="#2f2e41"/>
  <path id="Path_1058" data-name="Path 1058" d="M991.9,420.459l6.258,40.328,11.125,28.508s16.687,17.383,6.953,18.773-15.3-18.773-15.3-18.773L991.9,472.607Z" transform="translate(-329.41 -197.961)" fill="#ffb9b9"/>
  <path id="Path_1059" data-name="Path 1059" d="M991.9,420.459l6.258,40.328,11.125,28.508s16.687,17.383,6.953,18.773-15.3-18.773-15.3-18.773L991.9,472.607Z" transform="translate(-329.41 -197.961)" opacity="0.1"/>
  <path id="Path_1060" data-name="Path 1060" d="M955.988,355.959s0,14.6-4.867,15.992,19.469,20.164,19.469,20.164-2.781-24.336,6.953-30.594Z" transform="translate(-316.788 -178.308)" fill="#ffb9b9"/>
  <path id="Path_1061" data-name="Path 1061" d="M955.988,355.959s0,14.6-4.867,15.992,19.469,20.164,19.469,20.164-2.781-24.336,6.953-30.594Z" transform="translate(-316.788 -178.308)" opacity="0.1"/>
  <circle id="Ellipse_260" data-name="Ellipse 260" cx="15.992" cy="15.992" r="15.992" transform="translate(634.333 157.487)" fill="#ffb9b9"/>
  <path id="Path_1062" data-name="Path 1062" d="M958.453,390.333s-14.6-18.078-16.687-17.383-17.383,15.992-18.773,20.859-4.172,39.632-2.086,46.586,2.086,25.031,1.391,26.422-4.867,4.867-.7,4.867,18.773-10.43,28.508-8.344,22.945-.7,23.64-2.086-.7-37.547,0-40.328-1.391-16.687-2.086-19.469-.7-13.906-7.648-16.687l-2.965-.293-.166,6.878Z" transform="translate(-307.433 -183.479)" fill="#1668a0"/>
  <path id="Path_1063" data-name="Path 1063" d="M931.4,449.959s1.391,21.555,11.82,30.593,32.679,24.336,34.07,27.117,14.6,17.383,17.383,11.125a10.4,10.4,0,0,0,.557-6.165,15.333,15.333,0,0,0-6.886-10.021l-6.187-3.978-30.594-31.984-1.391-16.687Z" transform="translate(-310.977 -206.949)" fill="#ffb9b9"/>
  <path id="Path_1064" data-name="Path 1064" d="M983.839,651.327s-8-1.738-10.777,3.129,2.781,18.078,2.781,18.078,15.992,33.375,18.773,29.2-2.086-19.469-2.086-19.469,6.953-15.3,4.172-15.992S983.839,659.67,983.839,651.327Z" transform="translate(-323.432 -268.213)" fill="#2f2e41"/>
  <path id="Path_1065" data-name="Path 1065" d="M1056.251,706.522s-4.172-2.086-4.867,0-4.867,12.516,0,13.906,52.843,2.781,51.453,0-9.039-6.258-13.906-7.648-17.383-11.82-17.383-11.82S1064.594,710,1056.251,706.522Z" transform="translate(-346.825 -283.427)" fill="#2f2e41"/>
  <path id="Path_1066" data-name="Path 1066" d="M980.575,324.318a4.284,4.284,0,0,0-1.858-2.424,9.832,9.832,0,0,0-.392-3.2c-1.022-3.021-3.442-2.848-5.726-4.183-.991-.579-.93-1.092-1.445-2.043a7.583,7.583,0,0,0-2.922-2.981,10.514,10.514,0,0,0-4.745-2.013c-3.643-.248-6.436,3.178-9.917,4.278-1.535.485-3.183.5-4.726.963s-3.082,1.552-3.312,3.145c-.106.735.081,1.49-.027,2.225-.214,1.461-1.5,2.484-2.354,3.686-1.9,2.658-1.681,6.412-.163,9.3a13.074,13.074,0,0,0,1.094,1.712,10.535,10.535,0,0,0,1.155,3.912,19.5,19.5,0,0,0,6.857,6.847,16.187,16.187,0,0,1-.4-2.92,2.014,2.014,0,0,1,.124-.967c.3-.635,1.107-.8,1.719-1.152a4.343,4.343,0,0,0,1.8-3.772c.037-1.458-.272-2.918-.119-4.368a2.387,2.387,0,0,1,.817-1.756,2.821,2.821,0,0,1,1.54-.367c2.6-.106,5.311-.154,7.6-1.382a11.264,11.264,0,0,1,2.366-1.2c1.947-.508,3.937.857,5.059,2.527s1.682,3.658,2.717,5.383,2.824,3.264,4.826,3.06a.8.8,0,0,0,.6-.266.9.9,0,0,0,.11-.509l.112-7.652a11.565,11.565,0,0,0-.386-3.889Z" transform="translate(-314.141 -163.531)" fill="#2f2e41"/>
  <path id="Path_1067" data-name="Path 1067" d="M935.418,398.959s15.3,6.953,14.6,21.555,4.172,15.992-7.648,17.383-14.6,0-15.3,1.391-4.867-31.984-2.086-35.461S935.418,398.959,935.418,398.959Z" transform="translate(-308.734 -191.41)" fill="#1668a0"/>
  <circle id="Ellipse_261" data-name="Ellipse 261" cx="22.25" cy="22.25" r="22.25" transform="translate(296.761 45.195)" fill="#2f2e41"/>
  <path id="Path_1068" data-name="Path 1068" d="M511.214,547.959,498.7,582.029s-10.43,8.344-4.172,11.125,18.773-2.781,18.773-2.781l9.734-25.031-1.391-17.383Z" transform="translate(-177.254 -236.809)" fill="#2f2e41"/>
  <path id="Path_1069" data-name="Path 1069" d="M511.214,547.959,498.7,582.029s-10.43,8.344-4.172,11.125,18.773-2.781,18.773-2.781l9.734-25.031-1.391-17.383Z" transform="translate(-177.254 -236.809)" opacity="0.1"/>
  <path id="Path_1070" data-name="Path 1070" d="M518.834,257.459l10.43,1.391s4.867,38.242,2.781,41.023S519.529,313.779,515.357,311,518.834,257.459,518.834,257.459Z" transform="translate(-183.831 -148.296)" fill="#575a89"/>
  <path id="Path_1071" data-name="Path 1071" d="M367.89,357.959s-14.6,6.258-17.383,6.953-6.953,7.648-2.086,9.039,23.64-12.516,23.64-12.516Z" transform="translate(-132.663 -178.918)" fill="#a0616a"/>
  <path id="Path_1072" data-name="Path 1072" d="M526.4,565.9l7.648,28.508s.7,10.43,4.172,11.125,13.906-3.477,13.906-4.867-4.172-12.515-4.172-12.515,0-8.344-4.172-11.82-7.93-15.123-7.93-15.123Z" transform="translate(-187.576 -240.847)" fill="#2f2e41"/>
  <path id="Path_1073" data-name="Path 1073" d="M527.3,445.623c1.4,3.275,1.231,27.034-.306,42.845-.744,7.683-1.808,13.489-3.171,14.17l-9.964-2.489-3.942-.987-.1-8.65-.591-47.67L497.4,393.475V380.959l29.9,2.781,4.742,7.447.125.2S525.215,440.755,527.3,445.623Z" transform="translate(-178.74 -185.926)" fill="#2f2e41"/>
  <path id="Path_1074" data-name="Path 1074" d="M521.043,460.919c1.488,2.232,3.97,15.6,5.952,27.548-.744,7.683-1.808,13.489-3.171,14.17l-9.964-2.489c-.153-.32-.306-.654-.466-.987-1.273-2.67-2.468-5.618-3.581-8.65l-.591-47.67L497.4,393.475V380.959l29.9,2.781,4.742,7.447L504.356,389.3l6.258,27.117,7.648,28.508S518.262,456.748,521.043,460.919Z" transform="translate(-178.74 -185.926)" opacity="0.1"/>
  <path id="Path_1075" data-name="Path 1075" d="M458.951,337s-9.734,21.555,4.172,51.453a607.775,607.775,0,0,1,22.945,57.015s4.867,22.945,11.82,37.547,5.562,15.3,5.562,15.3l11.125-6.258s-6.258-43.109-9.039-47.281-2.781-15.992-2.781-15.992l-7.648-28.508-6.258-27.117,30.594,2.086s0-39.632-13.906-47.281Z" transform="translate(-166.015 -169.777)" fill="#2f2e41"/>
  <path id="Path_1076" data-name="Path 1076" d="M469.822,212.459s0,11.125-3.477,11.82-10.43.7-12.516,4.172,15.992,49.367,15.992,49.367L488.595,266l6.258-31.289s-9.039-5.562-9.039-8.344V213.85Z" transform="translate(-165.412 -134.585)" fill="#a0616a"/>
  <path id="Path_1077" data-name="Path 1077" d="M469.822,212.459s0,11.125-3.477,11.82-10.43.7-12.516,4.172,15.992,49.367,15.992,49.367L488.595,266l6.258-31.289s-9.039-5.562-9.039-8.344V213.85Z" transform="translate(-165.412 -134.585)" opacity="0.1"/>
  <circle id="Ellipse_262" data-name="Ellipse 262" cx="16.687" cy="16.687" r="16.687" transform="translate(298.499 56.668)" fill="#a0616a"/>
  <path id="Path_1078" data-name="Path 1078" d="M464.059,269.092s-6.258-39.632-7.648-39.632-20.859,4.172-22.25,4.867-6.258,6.953-6.258,6.953l9.734,27.812s4.172,19.469,6.953,22.945,8.344,13.211,5.562,14.6-5.562,3.477-2.781,3.477,25.726-4.172,27.117-2.086,24.336-7.648,24.336-8.344-2.781-33.375-2.781-33.375L503,250.318l-20.859-14.6Z" transform="translate(-157.564 -139.765)" fill="#575a89"/>
  <path id="Path_1079" data-name="Path 1079" d="M418.4,241.459l-6.953,3.477s-19.469,44.5-20.859,45.195-8.344,13.906-9.039,16.687-2.086,11.82-4.172,13.211a36.134,36.134,0,0,1-3.477,2.086s4.172,6.953,6.258,6.953,9.039-9.734,9.039-9.734,15.3,9.734,19.469,2.086,14.6-56.32,14.6-56.32Z" transform="translate(-141.11 -143.421)" fill="#575a89"/>
  <path id="Path_1080" data-name="Path 1080" d="M508.975,262.719s-9.734-23.64-15.3-20.859,4.172,19.469,10.43,22.25Z" transform="translate(-177.101 -143.473)" fill="#a0616a"/>
  <path id="Path_1081" data-name="Path 1081" d="M499.832,271.993l9.756-2.205,2.065,10.549s9.039,15.992,6.953,22.945S504,321.359,499.832,315.1s-7.648-15.992-4.867-21.554S501.918,274.774,499.832,271.993Z" transform="translate(-177.692 -152.052)" opacity="0.1"/>
  <path id="Path_1082" data-name="Path 1082" d="M502.832,269.993l9.755-2.205,2.065,10.549s9.039,15.992,6.953,22.945S507,319.359,502.832,313.1s-7.648-15.992-4.867-21.555S504.918,272.774,502.832,269.993Z" transform="translate(-178.606 -151.443)" fill="#575a89"/>
  <ellipse id="Ellipse_263" data-name="Ellipse 263" cx="7.996" cy="16.687" rx="7.996" ry="16.687" transform="translate(301.203 63.087) rotate(-64.899)" fill="#2f2e41"/>
  <circle id="Ellipse_264" data-name="Ellipse 264" cx="9.734" cy="9.734" r="9.734" transform="translate(322.487 38.937)" fill="#2f2e41"/>
  <path id="Path_1083" data-name="Path 1083" d="M502.982,161.193a9.734,9.734,0,0,1,8.69-9.677,9.734,9.734,0,1,0,0,19.353,9.734,9.734,0,0,1-8.691-9.677Z" transform="translate(-179.799 -115.998)" fill="#2f2e41"/>
  <rect id="Rectangle_280" data-name="Rectangle 280" width="243.357" height="168.96" transform="translate(45.06 192.6)" fill="#3f3d56"/>
  <rect id="Rectangle_281" data-name="Rectangle 281" width="31.984" height="31.984" transform="translate(64.529 209.287)" fill="#f2f2f2"/>
  <rect id="Rectangle_282" data-name="Rectangle 282" width="31.984" height="31.984" transform="translate(64.529 261.435)" fill="#1668a0"/>
  <rect id="Rectangle_283" data-name="Rectangle 283" width="31.984" height="31.984" transform="translate(64.529 313.583)" fill="#f2f2f2"/>
  <rect id="Rectangle_284" data-name="Rectangle 284" width="152.272" height="2.781" transform="translate(111.809 219.369)" fill="#f2f2f2"/>
  <rect id="Rectangle_285" data-name="Rectangle 285" width="47.281" height="2.781" transform="translate(111.809 228.408)" fill="#f2f2f2"/>
  <rect id="Rectangle_286" data-name="Rectangle 286" width="152.272" height="2.781" transform="translate(111.809 271.517)" fill="#f2f2f2"/>
  <rect id="Rectangle_287" data-name="Rectangle 287" width="47.281" height="2.781" transform="translate(111.809 280.556)" fill="#f2f2f2"/>
  <rect id="Rectangle_288" data-name="Rectangle 288" width="152.272" height="2.781" transform="translate(111.809 323.665)" fill="#f2f2f2"/>
  <rect id="Rectangle_289" data-name="Rectangle 289" width="47.281" height="2.781" transform="translate(111.809 332.704)" fill="#f2f2f2"/>
  <path id="Path_1084" data-name="Path 1084" d="M1012.432,755.3c0,14.154-8.413,19.1-18.793,19.1-.24,0-.481,0-.719-.009-.481-.01-.958-.033-1.429-.066-9.368-.662-16.645-5.858-16.645-19.021,0-13.62,17.4-30.807,18.715-32.082l0,0c.05-.05.076-.074.076-.074S1012.432,741.147,1012.432,755.3Z" transform="translate(-324.213 -290.186)" fill="#1668a0"/>
  <path id="Path_1085" data-name="Path 1085" d="M997.58,772.23l6.874-9.6-6.891,10.658-.017,1.1c-.481-.01-.958-.033-1.429-.066l.74-14.159-.005-.111.012-.019.071-1.339-6.908-10.684,6.929,9.681.017.284.559-10.7-5.914-11.04L997.6,745.4l.583-22.181,0-.076v.074l-.1,17.49,5.888-6.934-5.912,8.441-.156,9.579,5.5-9.193-5.521,10.6-.086,5.326,7.979-12.8-8.01,14.654Z" transform="translate(-328.839 -290.186)" fill="#3f3d56"/>
  <path id="Path_1086" data-name="Path 1086" d="M135.432,616.3c0,14.154-8.413,19.1-18.793,19.1-.24,0-.481,0-.72-.009-.481-.01-.958-.033-1.429-.066-9.368-.663-16.645-5.858-16.645-19.021,0-13.619,17.4-30.807,18.715-32.082l0,0c.05-.05.076-.074.076-.074S135.432,602.147,135.432,616.3Z" transform="translate(-56.998 -247.834)" fill="#1668a0"/>
  <path id="Path_1087" data-name="Path 1087" d="M120.58,633.23l6.874-9.6-6.891,10.658-.017,1.1c-.481-.01-.958-.033-1.429-.066l.74-14.159-.005-.111.012-.019.071-1.339-6.908-10.684,6.929,9.681.017.284.559-10.7-5.914-11.041L120.6,606.4l.583-22.181,0-.076v.074l-.1,17.49,5.888-6.934-5.912,8.441-.156,9.579,5.5-9.193-5.521,10.6-.086,5.326,7.979-12.8-8.01,14.654Z" transform="translate(-61.623 -247.834)" fill="#3f3d56"/>
</svg>
