<svg xmlns="http://www.w3.org/2000/svg" width="548" height="328.617" viewBox="0 0 548 328.617">
  <g id="Group_673" data-name="Group 673" transform="translate(-1009.455 -2815)">
    <path id="Path_417" data-name="Path 417" d="M544.081,512.484c2.377-.757-3.868-.972-.29-1.815C543.458,511,547.043,511.992,544.081,512.484Z" transform="translate(772.143 2465.21)" fill="#7f77ff"/>
    <path id="Path_418" data-name="Path 418" d="M574.791,379.852a1.481,1.481,0,0,0,.374.537C574.984,379.991,574.881,379.87,574.791,379.852Z" transform="translate(722.434 2585.629)" fill="#7f77ff"/>
    <path id="Path_420" data-name="Path 420" d="M553.34,384.679a2.628,2.628,0,0,1,1,0,1,1,0,0,1-.219.1,1.522,1.522,0,0,0-.783-.1Z" transform="translate(756.478 2583.796)" fill="#7f77ff"/>
    <path id="Path_421" data-name="Path 421" d="M555.392,384.709c-.126.022-.258.047-.425.068A3.284,3.284,0,0,1,555.392,384.709Z" transform="translate(754.426 2583.765)" fill="#7f77ff"/>
    <path id="Path_422" data-name="Path 422" d="M522.322,384.828c-.112.065-.261.113-.391.171l-.672-.046Z" transform="translate(808.273 2513.49)" fill="#7f77ff"/>
    <path id="Path_423" data-name="Path 423" d="M549.734,385.752a.084.084,0,0,0,.048.066C549.758,385.782,549.734,385.752,549.734,385.752Z" transform="translate(763.26 2583.366)" fill="#7f77ff"/>
    <path id="Path_437" data-name="Path 437" d="M528.706,383.582l-.486.949C527.133,384.361,526.9,383.294,528.706,383.582Z" transform="translate(798.116 2513.988)" fill="#7f77ff"/>
    <path id="Path_438" data-name="Path 438" d="M494.315,462.512a4.529,4.529,0,0,1,.314,3.557A33.048,33.048,0,0,1,494.315,462.512Z" transform="translate(852.361 2483.687)" fill="#7f77ff"/>
    <path id="Path_447" data-name="Path 447" d="M574.791,379.852a1.481,1.481,0,0,0,.374.537C574.984,379.991,574.881,379.87,574.791,379.852Z" transform="translate(722.434 2585.629)" fill="#3f3d56"/>
    <path id="Path_448" data-name="Path 448" d="M549.734,385.752a.084.084,0,0,0,.048.066C549.758,385.782,549.734,385.752,549.734,385.752Z" transform="translate(763.26 2583.366)" fill="#3f3d56"/>
    <g id="Group_671" data-name="Group 671" transform="translate(1009.455 2815)">
      <rect id="Rectangle_212" data-name="Rectangle 212" width="424.277" height="271.725" rx="10" transform="translate(0 0.241)" fill="#e6e6e6"/>
      <rect id="Rectangle_213" data-name="Rectangle 213" width="400.013" height="221.568" transform="translate(12.133 34.322)" fill="#fff"/>
      <rect id="Rectangle_214" data-name="Rectangle 214" width="424.277" height="18.025" transform="translate(0.181 0)" fill="#1a7fc3"/>
      <ellipse id="Ellipse_167" data-name="Ellipse 167" cx="3.341" cy="3.341" rx="3.341" ry="3.341" transform="translate(33.885 5.874)" fill="#fff"/>
      <ellipse id="Ellipse_168" data-name="Ellipse 168" cx="3.341" cy="3.341" rx="3.341" ry="3.341" transform="translate(21.206 5.874)" fill="#fff"/>
      <ellipse id="Ellipse_169" data-name="Ellipse 169" cx="3.341" cy="3.341" rx="3.341" ry="3.341" transform="translate(8.525 5.874)" fill="#fff"/>
      <path id="Path_406" data-name="Path 406" d="M742.255,281.894a3.217,3.217,0,0,1,.118.761Z" transform="translate(-557.446 -191.789)" fill="#7f77ff"/>
      <path id="Path_407" data-name="Path 407" d="M659.1,319.367c.024-.557.123-.789.214-.818C659.247,319.066,659.186,319.491,659.1,319.367Z" transform="translate(-423.13 -205.851)" fill="#7f77ff"/>
      <path id="Path_408" data-name="Path 408" d="M657.61,338.945c.018.241.036.464.066.736A1.158,1.158,0,0,0,657.61,338.945Z" transform="translate(-420.609 -213.676)" fill="#7f77ff"/>
      <path id="Path_409" data-name="Path 409" d="M741.747,283.128l.313,1.954C741.735,285.218,741.819,284.08,741.747,283.128Z" transform="translate(-556.818 -192.261)" fill="#7f77ff"/>
      <path id="Path_410" data-name="Path 410" d="M771.968,253.336l-.594,0a3.055,3.055,0,0,1-.493-.406Z" transform="translate(-604.681 -180.676)" fill="#7f77ff"/>
      <path id="Path_411" data-name="Path 411" d="M808.989,254.521a.7.7,0,0,0-.536-.581,3.85,3.85,0,0,1,.532-.6C809.273,253.3,808.97,254.15,808.989,254.521Z" transform="translate(-664.983 -180.834)" fill="#7f77ff"/>
      <path id="Path_412" data-name="Path 412" d="M848.379,228.3c-.078-.012-.152-.023-.211-.035Z" transform="translate(-728.729 -171.213)" fill="#7f77ff"/>
      <path id="Path_413" data-name="Path 413" d="M847.866,228.4l-.486-.081C847.542,228.345,847.725,228.37,847.866,228.4Z" transform="translate(-727.731 -171.235)" fill="#7f77ff"/>
      <path id="Path_414" data-name="Path 414" d="M740.155,256.834a.282.282,0,0,1,.3.138C740.351,257.041,740.25,256.97,740.155,256.834Z" transform="translate(-554.233 -182.172)" fill="#7f77ff"/>
      <path id="Path_415" data-name="Path 415" d="M896.846,229.863l-.045.4a1.889,1.889,0,0,1-.475.086Z" transform="translate(-806.877 -171.826)" fill="#7f77ff"/>
      <path id="Path_416" data-name="Path 416" d="M654.28,362.1c-.006,0-.006.006.006.018s.006.012.012.018.09.024.157.036a.508.508,0,0,1,.1-.018c-.091-.012-.181-.03-.253-.036C654.292,362.11,654.286,362.1,654.28,362.1Z" transform="translate(-415.404 -222.562)" fill="#7f77ff"/>
      <path id="Path_419" data-name="Path 419" d="M630.912,364.9a5.931,5.931,0,0,0,.971-.108Z" transform="translate(-378.328 -223.594)" fill="#7f77ff"/>
      <path id="Path_424" data-name="Path 424" d="M890.027,511.594c.137-.012.272-.023.422-.039C890.29,511.575,890.153,511.586,890.027,511.594Z" transform="translate(-796.596 -279.9)" fill="#7f77ff"/>
      <path id="Path_425" data-name="Path 425" d="M899.961,480.048s.01,0,.015,0C899.971,480.075,899.966,480.068,899.961,480.048Z" transform="translate(-812.247 -267.812)" fill="#7f77ff"/>
      <path id="Path_426" data-name="Path 426" d="M630.338,365.744a3.319,3.319,0,0,1-.633-.187C629.265,365.672,629.868,365.666,630.338,365.744Z" transform="translate(-375.946 -223.886)" fill="#7f77ff"/>
      <path id="Path_427" data-name="Path 427" d="M899.092,359.175c-.032-.143-.066-.3-.107-.5C899.025,358.844,899.057,359.009,899.092,359.175Z" transform="translate(-810.763 -221.245)" fill="#7f77ff"/>
      <path id="Path_428" data-name="Path 428" d="M495.337,373.012a1.273,1.273,0,0,0-.271-.386l-.084.3a5.458,5.458,0,0,1,.12-1.851,17.967,17.967,0,0,1-.229-2.43c-.639-.344-.344-3.449-.38-4.945.844.12.712-1.8,1.393-.048-.048-.1-.078.41-.115,1.327a4.1,4.1,0,0,1-.091.639c.024-.03.048-.066.078-.1-.018.983-.036,2.267-.06,3.727a6.1,6.1,0,0,0,.325-4.083c.543-.766,1.1-1.616,1.363-2.092-1.182-2.05-1.821-6.006-2.545-6.555.47-4.577.313-10.782,1.906-13.665.2-1.3-.458-1.5-.712-1.984a10.975,10.975,0,0,1-.362,2.056c.41-2.6.157-7.713,1.272-8.334-.5-3.281-1.025,1.845-.844-2.665l-.338.609c-1.749-8.714,2.678-14.225.663-23.747.078.356.151.567.284.663-1.007-11.2.947-23.1-.651-34.155-.32-3.142.386-3.485.929-5.4l-.911-.681,1.049-3.28c.772-4.649-2.231-8.05-.778-13.942l.615.76c-.121-2.117.362-6.7-.344-6.344a1.5,1.5,0,0,0,.314-1.52l-.476-.066.82-5.2c-.344-4.022-1.894.633-1.984-5.246.181-2.183,1.387-6.217,1.706-5.4.018.88.3,2.249.772,2.316l.247-2c.09-.024.175-.048.265-.078v-.32h.862a1.45,1.45,0,0,1,1.134,0H521.9l-.235-.235.712.235h3.051c-.09-.181-.38-.332-.983-.4,2.219-.621,1.966.446,3.865-.247.211-.109.121-.169-.078-.217l2.171.374c-.428-.265.356-.886-.971-.706,3.883-.724,6.265.941,7.731-.012l-.326-.072c4.034.314,2.328.669,2.907,1.284h2.521l.506-.422.681-.567a4.8,4.8,0,0,1,.754-.567,7.142,7.142,0,0,1,.555.917c.627-.03,1.918-.1,1.857-.47,1.1.32.874.416.609.513-.289.1-.639.187-.193.488a11.368,11.368,0,0,1,2.153-.3c.078,1.339-.018,2.961.012,4.2.03,1.29.181,2.123.772,2.382-.7.959-.543-2.563-1.031.3,1.58.8-.265,3.341.458,5.723.814-.687.38-3.051,1.11-.591a2.145,2.145,0,0,0-.494.856,2.683,2.683,0,0,0-.024.983,9.068,9.068,0,0,0,.489,1.695,2.973,2.973,0,0,1,1.091-.066c-.362.549.446.663,1.658.687.73,0,1.568.006,2.424.006.9.012,1.821.036,2.69.127-.217-.368,6.519-.6,9.739-.995l-.09-.187c.621,1.11,3.944.9,6.368,1.128-.1-.663-.531-.923-1.845-1.218l2.279.006a5.629,5.629,0,0,0,2.719.669l-.573-.832c1.514.024,3.039.271,4.674.44.82.084,1.658.145,2.545.157.44.006.893-.006,1.357-.03.229-.012.464-.03.7-.054l.8-.09c.084.193-.211.428-.4.669a5.426,5.426,0,0,0-.627.76.526.526,0,0,0-.054.519h2.111c-.006-.229-.145-.434-.591-.543a4.555,4.555,0,0,0,1.912.127c-.483-.229-1.043-.464-1.676-.7,2.292-.307.941.585,2.551.519.332-.591,1.544-.422,1.676-.893a10.727,10.727,0,0,1-2.334.012c1.2-.06,2.617-.2,3.92-.392a5.137,5.137,0,0,0,.519,1.664c-.338.03-.8.6-.874,2.147-.024,1.984.157,2.3.38,2.43.109.06.229.066.344.223a1.408,1.408,0,0,1,.163.344,2.4,2.4,0,0,1,.133.5c-.41.736.018,2.665-.874,2.72.006.886.422,1.049.663,1.393-.392,1.568-.114,7.321-1.061,5.554l-.06-.4c-.018.078-.024.163-.042.259a24.555,24.555,0,0,0-.289,4.71c.036,1.315.163,2.563.283,3.66.886-.078,1.706-.145,2.472-.181.386-.012.76-.024,1.134-.012l.724.018c.253.018.512.03.766.042l-.012-.3c3.045.338,6.778.2,8.949.844.9-.006,2.123-.549,1.737-.9,2.328.223,2.587.555,5.946.066-2.334-.519.808-.464-2.394-.38,3.021-.259,3.709-.736,6.953.078-1.1-.766,2.273-.959,3.709-.736l-2.117.549a37.742,37.742,0,0,0,4.462-.024l-.772-1a23.2,23.2,0,0,1,8.484.326,24.625,24.625,0,0,0,3.781.392l.458-.006.585-.03c.452-.024.911-.06,1.375-.115a27.872,27.872,0,0,0,3.021-.531c1.086.35-.362.47-1.695.609-1.369.139-2.611.3-1.67.706a48.192,48.192,0,0,0,5.94-.766,23.273,23.273,0,0,1,.814,4.022c.072.79.1,1.508.1,2.141,0,.314-.006.615-.024.892-.006.127-.012.314-.024.374s-.024.151-.036.223a6.757,6.757,0,0,1-.489,1.514,7.047,7.047,0,0,0-.609,3.926c-.356-.525-1.315-1.013-1.646,2.032.072,1.689.591,2.611,1.055,2.7.259.054.5-.157.639-.627a1.935,1.935,0,0,0,.091-.368c.03-.681-.084-1.007-.205-.983.133-.917.283-2.123.669-.995l-.356.368a11.223,11.223,0,0,1,.229,1.568c.163,1.622.259,3.51.687,2.84-.3,1.839-.519,1.206-.693-.018.38,3.256-.042,5.283.283,8.81-.2-.6-.621-1.152-.615-.555.446,5.512-.682,2.43-.838,6.163.549,2.123,1.3-.76.85,3,.368,2.3.947.488,1.236-.422a13.386,13.386,0,0,0-.012,4.728c.018.1.03.205.048.3.012.072.024.151.036.223l.024.127c.006.036.012.03.018.042l.048.06a1.107,1.107,0,0,0,.181.163,1.8,1.8,0,0,1,.241.169,1.226,1.226,0,0,1,.217-.259.4.4,0,0,0-.1.308,2.225,2.225,0,0,1-.229.133,2.32,2.32,0,0,1-.489.187c.121.175.127.35.362.133a.4.4,0,0,0,.072-.066,4.3,4.3,0,0,1-.748.85c-.313.32-.687.663-.332.983a3.761,3.761,0,0,1,1.514-.06c.127.006.253.006.374,0a4.809,4.809,0,0,0,.567-.066,1.01,1.01,0,0,0,.76-.434c-.561.042-.965.054-1.266.048-.163,0-.223-.024-.272-.066-.084-.072-.024-.211.03-.356.1-.247.139-.525-.042-.663a.353.353,0,0,0,.085.012.511.511,0,0,0,.157-.03c.229-.018.464-.042.711-.066.157-.109-.151-.2-.44-.253.326-.066.615-.115.868-.151a4.242,4.242,0,0,1,1.514,0c1.1.259.862,1.218,3.974,1.2-.555-.531,1.025-1.013,1.743-.9-1.779.012-.85.893.778,1.3,2.828-.416,3.069.307,4.553.259l-1.688.2c.573.537,1.984.464,3.95.633.054-.133-.1-.205-.314-.259,2.032.313,4.469-1.086,7.14-.567a.357.357,0,0,1,.078.012c1.411-.362.138-1,1.381-1.248,3.413.694,3.7-.736,7.291-.163-1.037.724-1.218.549,1.315,1.248l-5.91-.507,3.793,1.043c-1.785.012-3.763-.452-4.83-.326,1.809.585,1.622.4.766,1,2.442-1.079,4.836.633,7.652-.1l-.084-1.785a16.77,16.77,0,0,1,5.409.024l.688.09.344.042.091.012.138.012.283.024c.742.054,1.5.114,2.273.175,1.526.1,3.082.175,4.86.163.006.8.03,1.622.073,2.484l-.284-2.273-.223.024a.244.244,0,0,0,.108.09,11.321,11.321,0,0,0-.253,3.413c0,.1.006.211.006.32v.006c.012.567.03,1.158.036,1.749q0,.525-.018,1.031c-.006.169-.018.332-.024.494l-.018.235-.024.163c.6-.169.814.947,1.182,1.707-.109-.024-.163.217-.2.6-.036.157-.054.35-.1.579a3.19,3.19,0,0,1-.85,1.664,1.488,1.488,0,0,0,.308.235,10.566,10.566,0,0,0,1.085-.476,1.741,1.741,0,0,1,1.1.127c.078.036.157.078.235.121a.6.6,0,0,0,.2.066c.085.024.169.048.247.072.332.1.645.211.953.32a10.6,10.6,0,0,0,4.607.79c-1.284-.645.657-1.067-2.207-1.532,1.429-.006,2.707-.115,2.732.3a1.227,1.227,0,0,1,.488-.072c.718.006,1.87.283,2.925.41a4.949,4.949,0,0,0,1.526,0,1.29,1.29,0,0,0,.326-.1,1.8,1.8,0,0,1,.187.1,2.883,2.883,0,0,0,2.213.736.154.154,0,0,0,.042-.229c.32.247,2.352.386,1.055.995,1.9-.8,4.45-.886,7.049-.85,3.407.042,6.887.3,9.058-.609,1.556.1,3.269.2,4.951.277.838.03,1.671.066,2.467.1l1.164.036c.422.006.826.018,1.212.024-.12-.09-.12-.163-.187-.205a.758.758,0,0,0-.464-.03c.109-.012.181-.03.314-.036s.265-.018.392-.03c.253-.012.489-.018.706-.024a9.414,9.414,0,0,1,1.109.06,3.317,3.317,0,0,1,1.284.4,3.562,3.562,0,0,0,2.183.82,10.483,10.483,0,0,0,.1,1.942c.241.525.392.645.494.47a3.552,3.552,0,0,0,.175-1.11c.054-.959.036-2.044.217-1.236.977-.434.91,1.869.742,4.39-.084,1.465-.193,2.1-.211,3.027a6.659,6.659,0,0,0,.344,2.479l.115-.724c.669,2.279-.742,5.566-.6,9.293,0,0,.175-.181.3-.024-.995,2.551-1.327,7.375-1.6,10.957.766-1.116.4-1.628,1.182-.947-.109,1.61-1.248-.47-1.465,2.738.416,1.043.784,3.359,1.616,3.666l.048-3.027c1.073,1.55-.042,3.914.145,5.512l.471-.205c-.151,4.637-1.333,4.7-1.248,9.685l-.356-.513c-1.176,2.726.658,2.286-.217,5l1.194.826c-.289,1.8-1.152,6.29-1.375,9.516.88-1.827,1.333-5.6,1.857-7.93.006,1.779-.09,6.054-.675,6.983a6.293,6.293,0,0,0,.223-2.334,21.9,21.9,0,0,0-1.375,8.611c.754-.205,1.079.712,1.236,2.135.006.09.018.181.024.277.006.133.018.271.024.41.012.284.024.573.042.874.012.6.03,1.242.048,1.893.03,1.333.06,2.732.09,4.089a21.981,21.981,0,0,0-6.76.911l-.494-.042-.307-.036-.591-.06q-.588-.054-1.176-.09c-.784-.054-1.568-.072-2.358-.078-1.574-.006-3.166.06-4.788.151-3.244.181-6.615.452-10.276.38,2.593-1.791-2.135-.048-1.688-1.894a6.693,6.693,0,0,0-2.5.03l.247-.054c-.09.024-.163.042-.259.066v-.006l-5.162,1.1c-1.224.537,1.622.4,1.465.82-3.733.145-1.568.784-4.034,1.272.507-.657-1.3-.947-3.425-.694l3-.85c-5.216-.983-4.511,1.55-9.763.573l1.664.585c-2.7-.344-9.95.012-12.6-1.471-.476.211-1.11.718.078.85-6.446.223-14.346-1.574-19.357-.663l.488.452c-1.2-.133-2.093-.85-3.6-.4.079.187.489.452-.072.476a14.708,14.708,0,0,0-4.788-.525l1.363.507a30.106,30.106,0,0,1-9.6-.778,37.834,37.834,0,0,0-5.319-.766c.012,1.327-4.933,1.761-7.405,1.972l.09.187a65.533,65.533,0,0,1-8.786-.428c-2.237-.247-4.408-.561-6.706-.82h-.006l-.44-.054c-.531-.06-1.073-.115-1.622-.169l-.518-.054-1.14-.091a23.566,23.566,0,0,1-5.886.832c-4.716.229-10.65.042-15.136.579,1.037-.241-.169-1.037-1.369-1.17-1.49.253-4.046-.778-4.149.1a.583.583,0,0,0,.012.2l.537-.024h.03l-.006.006c-1.2,1.188-4.456.874-7,.9L585,402.826c-6.664,2.316-17.458-.85-21.094,1.224-1.61-.4-3.6-.392-5.192-.79l.084.85a113.973,113.973,0,0,1-12.181.121l1.122.615c-3.106.054-3.92-2.466-6.79-2.515l-.856,1.272c-5.421-.018-10.9,1.1-16.258-.054.085.187.247.555,1.122.609-2.466.03-9.389.808-9-.724-.591.862-5.68-.078-8.448-.555l.452.838c-1.236-.537-1.869-.88-2.629-1.122a8.781,8.781,0,0,0-1.321-.308c-.278-.042-.543-.084-.923-.121-.458-.036-.977-.072-1.562-.115-1.037.1-1.212.567.006.5a7.8,7.8,0,0,1-2.72-.121,7.839,7.839,0,0,0-2.316-.368,15.4,15.4,0,0,0-.1-1.815c-.181.7-.362,1.441-.537,2.225a20.47,20.47,0,0,1,.163-3.865c.145-.772.374-1.345.681-2.412.024-.145.042-.3.054-.464s.024-.3.036-.464c.012-.265.018-.555.012-.844a13.66,13.66,0,0,0-.175-1.791,3.931,3.931,0,0,0-.9-2.358,4.629,4.629,0,0,0,.868-3.564c-.289-.223-.471.374-.555.681-.573-4.686.977-6.971.151-10.191a.707.707,0,0,1-.5-.543c.018,3.413.06,6.211.114,6.434-.766-.042-.9-2.991-1.966-.615C494.433,380.068,495.7,375.943,495.337,373.012Zm-.682-6.241c-.12,1,.048,1.333.223,1.471.012-.47.042-1.025.1-1.749.03-.024.066-.084.1-.115A1.15,1.15,0,0,0,494.656,366.771Zm34.518-138.009a1.334,1.334,0,0,0-.289.133h1.278c-.307-.048-.633-.09-.989-.133Z" transform="translate(-408.098 -170.858)" fill="#1a7fc3"/>
      <path id="Path_429" data-name="Path 429" d="M655.108,362.622a.224.224,0,0,0,.151.072A.5.5,0,0,0,655.108,362.622Z" transform="translate(-416.619 -222.761)" fill="#7f77ff"/>
      <path id="Path_430" data-name="Path 430" d="M629.467,365.887c-.047-.007-.093-.018-.139-.028C629.376,365.867,629.423,365.877,629.467,365.887Z" transform="translate(-374.937 -224.002)" fill="#7f77ff"/>
      <path id="Path_431" data-name="Path 431" d="M899.657,450.4a3.258,3.258,0,0,0,.062-.411c.075.2.138.4.19.595l-.266.353Z" transform="translate(-811.987 -256.281)" fill="#7f77ff"/>
      <path id="Path_432" data-name="Path 432" d="M742.568,281.72a.852.852,0,0,0-.121-.279c.041.089.068.089.1.146Z" transform="translate(-557.758 -191.615)" fill="#7f77ff"/>
      <path id="Path_433" data-name="Path 433" d="M812.241,227.423c-.272.007-.58.4-.521,3.285l-.182-3.545-1.332.064c1.075-.328,2.851-.768.393-.846l1.948-.227C812.75,227.853,812.513,227.431,812.241,227.423Z" transform="translate(-669.576 -170.403)" fill="#7f77ff"/>
      <path id="Path_434" data-name="Path 434" d="M809.831,251.753c.076-.676.2-.695.318-.615s.25.258.342.174C810.193,252.112,810.118,252.5,809.831,251.753Z" transform="translate(-667.211 -179.976)" fill="#7f77ff"/>
      <path id="Path_435" data-name="Path 435" d="M715.018,293.271l-.21-.771C716.417,292.611,714.824,292.8,715.018,293.271Z" transform="translate(-513.688 -195.857)" fill="#7f77ff"/>
      <path id="Path_436" data-name="Path 436" d="M513.171,155.654l-.134-.01-.248-.022-.99-.084-.7-.11,1.342.14.671.07,1.1.07-.826-.043Z" transform="translate(-284.002 -59.631)" fill="#7f77ff"/>
      <path id="Path_439" data-name="Path 439" d="M603.046,378.627l-2.392-.265,1.123-.053Z" transform="translate(-428.04 -145.141)" fill="#7f77ff"/>
      <path id="Path_440" data-name="Path 440" d="M680.834,354.665a91.54,91.54,0,0,0,3.045,21.661c7.309,27.016,27.305,46.674,38.081,55.665a23.571,23.571,0,0,0,5.885-.832l1.14.09.519.054c.549.054,1.091.109,1.622.169l.44.054h.006a136.87,136.87,0,0,0,7.46-28.228l.006-.006v-.006c1.863-12.374,2.165-26.9-1.761-41.4a90.24,90.24,0,0,0-6.941-17.735c-14.014-27.2-38.25-43.4-38.25-43.4S680.11,325.346,680.834,354.665Z" transform="translate(-517.559 -199.022)" fill="#fff"/>
      <path id="Path_441" data-name="Path 441" d="M657.61,338.945c.018.241.036.464.066.736A1.158,1.158,0,0,0,657.61,338.945Z" transform="translate(-420.609 -213.676)" fill="#fff"/>
      <path id="Path_442" data-name="Path 442" d="M630.338,365.744a3.319,3.319,0,0,1-.633-.187C629.265,365.672,629.868,365.666,630.338,365.744Z" transform="translate(-375.946 -223.886)" fill="#fff"/>
      <path id="Path_443" data-name="Path 443" d="M631.883,364.794l-.971.109A5.935,5.935,0,0,0,631.883,364.794Z" transform="translate(-378.328 -223.594)" fill="#fff"/>
      <path id="Path_444" data-name="Path 444" d="M654.455,362.176a.508.508,0,0,1,.1-.018c-.091-.012-.181-.03-.253-.036-.012-.012-.018-.018-.024-.018s-.006.006.006.018.006.012.012.018S654.389,362.164,654.455,362.176Z" transform="translate(-415.404 -222.562)" fill="#fff"/>
      <path id="Path_445" data-name="Path 445" d="M655.108,362.622a.224.224,0,0,0,.151.072A.5.5,0,0,0,655.108,362.622Z" transform="translate(-416.619 -222.761)" fill="#fff"/>
      <path id="Path_446" data-name="Path 446" d="M618.045,410.664c0,.012.006.024.006.036a136.694,136.694,0,0,0,7.363,27.962l.519.054c.549.054,1.091.109,1.622.169l.44.054H628c2.3.259,4.469.573,6.706.82,10.667-8.822,31.1-28.644,38.5-56.021a91.23,91.23,0,0,0,3.051-21.667,110.962,110.962,0,0,0-.6-14.322c-2.672-.519-5.108.88-7.14.567.217.054.368.127.314.259-1.966-.169-3.377-.1-3.95-.633l1.689-.2c-1.484.048-1.725-.675-4.553-.259-1.628-.41-2.557-1.29-.778-1.3-.718-.115-2.3.368-1.743.9-3.112.018-2.877-.941-3.974-1.2H654.01c-.253.036-.543.084-.868.151.289.054.6.145.44.253-.247.024-.482.048-.711.066a.515.515,0,0,1-.157.03.352.352,0,0,1-.085-.012c.181.139.145.416.042.663-.054.145-.115.283-.03.356.048.042.109.066.271.066.3.006.705-.006,1.266-.048a1.009,1.009,0,0,1-.76.434,4.784,4.784,0,0,1-.567.066c-.12.006-.247.006-.374,0a3.761,3.761,0,0,0-1.514.06c-.356-.32.018-.663.332-.983a4.3,4.3,0,0,0,.748-.85.4.4,0,0,1-.072.066c-.235.217-.241.042-.362-.133a2.318,2.318,0,0,0,.489-.187h-.44v-.965c-.018-.1-.03-.2-.048-.3a13.38,13.38,0,0,1,.012-4.728c-.289.911-.868,2.72-1.236.422.452-3.757-.3-.875-.85-3,.157-3.733,1.284-.651.838-6.163-.006-.6.416-.042.615.555-.325-3.528.1-5.554-.283-8.81.175,1.224.4,1.857.694.018-.428.669-.525-1.218-.688-2.84l-.428.41c-.211.2-.428.416-.639.627a121.088,121.088,0,0,0-22.879,30.453l0,0a.005.005,0,0,0,0,0,89.673,89.673,0,0,0-6.947,17.729C615.893,383.794,616.188,398.29,618.045,410.664Z" transform="translate(-413.987 -206.436)" fill="#fff"/>
      <path id="Path_449" data-name="Path 449" d="M536.585,458.473l.44.054h.006c2.3.259,4.468.573,6.706.82a65.557,65.557,0,0,0,8.786.428l-.091-.187c2.472-.211,7.417-.645,7.405-1.972a37.833,37.833,0,0,1,5.319.766c13.043-4.245,28.234-11.433,40.662-23.53,17.518-17.048,25.424-39.824,28.891-54.5-2.6-.036-5.15.048-7.049.85,1.3-.609-.736-.748-1.055-.995a.154.154,0,0,1-.042.229,2.883,2.883,0,0,1-2.213-.736h-4.963v-.41a1.227,1.227,0,0,0-.489.072c-.024-.41-1.3-.3-2.732-.3,2.864.464.923.886,2.207,1.532a10.6,10.6,0,0,1-4.607-.79c-.308-.109-.621-.217-.953-.32-.078-.024-.163-.048-.247-.072a.612.612,0,0,1-.2-.066c-.078-.042-.157-.085-.235-.121a1.742,1.742,0,0,0-1.1-.126,10.6,10.6,0,0,1-1.085.476,1.494,1.494,0,0,1-.308-.235,3.189,3.189,0,0,0,.85-1.664c.042-.229.06-.422.1-.579.036-.38.09-.621.2-.6-.368-.76-.585-1.875-1.182-1.707l.024-.163.018-.235c.006-.163.018-.326.024-.494q.018-.507.018-1.031c-.006-.591-.024-1.182-.036-1.749a118.842,118.842,0,0,0-24.368,10.535,91.629,91.629,0,0,0-18.049,13.55c-10.879,10.589-18.049,23.385-22.74,35.078v.006l-.006.006a136.613,136.613,0,0,0-7.906,28.173Z" transform="translate(-323.017 -226.023)" fill="#3f3d56"/>
      <path id="Path_450" data-name="Path 450" d="M743.263,513.169h-.03a.045.045,0,0,0,.024.006Z" transform="translate(-558.936 -280.519)" fill="#3f3d56"/>
      <path id="Path_451" data-name="Path 451" d="M698.422,362.231s3.425,41.934,31.442,69.209c12.543,12.211,27.89,19.418,41.012,23.645.1-.875,2.659.157,4.149-.1,1.2.133,2.406.929,1.369,1.17,4.486-.537,10.42-.35,15.136-.579a23.568,23.568,0,0,0,5.886-.832l1.14.09.519.054a137.038,137.038,0,0,0-7.888-28.053c-4.7-11.681-11.874-24.465-22.734-35.036a91.509,91.509,0,0,0-18.049-13.55C725.305,363.7,698.422,362.231,698.422,362.231Z" transform="translate(-587.129 -222.61)" fill="#3f3d56"/>
    </g>
    <g id="Group_672" data-name="Group 672" transform="translate(1385.693 2829.335)">
      <ellipse id="Ellipse_166" data-name="Ellipse 166" cx="47.136" cy="5.646" rx="47.136" ry="5.646" transform="translate(77.467 302.99)" fill="#e6e6e6"/>
      <path id="Path_452" data-name="Path 452" d="M194.9,322.964s8.549,17.1,21.76,20.983-31.863,0-31.863,0,2.331-12.434-.777-13.988S194.9,322.964,194.9,322.964Z" transform="translate(-63.548 -285.537)" fill="#a0616a"/>
      <path id="Path_453" data-name="Path 453" d="M203.68,271.355c.465-4.051-1.751-7.632-4.949-8-.036,0-.072,0-.108-.005a4.668,4.668,0,0,1,1.207-.02c3.2.367,5.414,3.949,4.949,8-.46,4-3.368,6.964-6.524,6.676C200.962,277.612,203.275,274.889,203.68,271.355Z" transform="translate(-58.517 -263.301)" fill="#2f2e41"/>
      <path id="Path_454" data-name="Path 454" d="M203.658,280.15c3.862-1.308,6.156-4.84,5.123-7.889-.012-.035-.029-.066-.041-.1a4.67,4.67,0,0,1,.533,1.083c1.032,3.049-1.261,6.581-5.124,7.889-3.818,1.293-7.735-.075-8.821-3.053C196.84,280.361,200.289,281.29,203.658,280.15Z" transform="translate(-61.362 -266.603)" fill="#2f2e41"/>
      <path id="Path_455" data-name="Path 455" d="M190.112,400.3l-1.142,32.916-17.874,41.966s4.663,21.76-4.663,20.983-.777-21.76-.777-21.76l8.549-44.3,1.554-36.526Z" transform="translate(-21.091 -311.854)" fill="#a0616a"/>
      <ellipse id="Ellipse_170" data-name="Ellipse 170" cx="17.097" cy="17.097" rx="17.097" ry="17.097" transform="translate(101.821 14.89)" fill="#a0616a"/>
      <path id="Path_456" data-name="Path 456" d="M165.1,357.369l16.849-6.731s3.357.514,12.682,1.291,13.467.044,13.467.044,19.951,6.95,19.173,10.836-9.326,65.28-13.211,62.171a23.312,23.312,0,0,0-6.217-3.886L165.1,417.209Z" transform="translate(-60.171 -295.85)" fill="#cfcce0"/>
      <path id="Path_457" data-name="Path 457" d="M162.365,367.562h2.529s2.911,1.554,2.911,6.217,2.331,18.651,2.331,18.651H157.7Z" transform="translate(1.626 -302.158)" fill="#cfcce0"/>
      <path id="Path_458" data-name="Path 458" d="M219.284,368.725l9.386-15.163a2.121,2.121,0,0,1,2.067-.988l2.448.306a2.121,2.121,0,0,1,1.785,2.656l-4.806,17.852s-7.6,31.536-.3,48.408l.3,7.546s6.994,23.314,5.44,41.189-2.331,33.417-2.331,33.417,3.886,11.657,2.331,15.543a9.09,9.09,0,0,0-.014,4.735,156.9,156.9,0,0,1,2.447,34.233l-.1,3.775s5.44,4.663.777,5.44-19.429,2.331-19.429,2.331-3.109-5.44-1.554-6.217l-4.663-25.646s-7.771-10.88-6.994-17.874c0,0-2.331-11.657,0-17.1l-.777-34.194-3.109,41.189,4.663,51.291s6.217,4.663,2.331,6.217S181.2,577,181.2,573.114s1.554-5.44,1.554-5.44l-10.1-104.914,5.44-43.52s36.526-3.108,33.417-44.3c0,0-8.936-18.56-17.758-22.062a.507.507,0,0,1,.037-.963l3.581-1.023a.5.5,0,0,1,.3.006C199.225,351.426,212.7,356.287,219.284,368.725Z" transform="translate(-78.218 -295.939)" fill="#2f2e41"/>
      <path id="Path_459" data-name="Path 459" d="M238.637,695.238l.124,1.117a51.438,51.438,0,0,0,6.8,20.158c1.74,2.991,3.072,6.369,2.406,9.033-1.554,6.217-.777,8.549-.777,8.549H234.752v-2.332l-6.942,1.893a7.687,7.687,0,0,1-4.715-.145,4.237,4.237,0,0,1-3.109-4.08c0-1.943,1.484-3.751,3.216-5.2a23.081,23.081,0,0,0,7.577-11.579l.087-.319-4.663-17.1Z" transform="translate(-115.446 -424.28)" fill="#2f2e41"/>
      <path id="Path_460" data-name="Path 460" d="M187.225,695.858l.124,1.117a51.437,51.437,0,0,0,6.8,20.158c1.74,2.991,3.072,6.369,2.406,9.034-1.554,6.217-.777,8.549-.777,8.549H183.339v-2.331l-6.942,1.893a7.692,7.692,0,0,1-4.715-.145,4.237,4.237,0,0,1-3.109-4.08c0-1.943,1.484-3.751,3.216-5.2a23.083,23.083,0,0,0,7.577-11.579l.087-.319-4.663-17.1Z" transform="translate(-31.782 -424.512)" fill="#2f2e41"/>
      <path id="Path_461" data-name="Path 461" d="M212.068,302.187s-12.247-7.076-16.99-7.5a7.8,7.8,0,0,1,.108-6.1s.723-9.6,12.7-9.224c0,0,14.149-7.665,18.9-4.535s15.327,18.146,10.859,27.12c0,0,5.164,2.6,5.41,1.2s4.083,2.359-.983,5.595c0,0,7.09,7.178.2,11.67,0,0,.315-6.366-3.683-8.29s-.5.1-.5.1,6.844,8.576-3.378,11.915c0,0,3.815-4.344-.022-8.1,0,0,1.189,8.775-5.88,9.7,0,0,3.646-5.212,1.728-7.091,0,0-.814,6.463-4.805,7.239l-2.993.582-1.012-5.207s2.846,6.652-3.807,7.045c0,0,3.217-10.082-1.042-16.009S212.068,302.187,212.068,302.187Z" transform="translate(-96.601 -267.315)" fill="#2f2e41"/>
      <ellipse id="Ellipse_171" data-name="Ellipse 171" cx="7.383" cy="5.829" rx="7.383" ry="5.829" transform="matrix(-0.604, -0.797, 0.797, -0.604, 138.934, 18.853)" fill="#2f2e41"/>
      <path id="Path_462" data-name="Path 462" d="M210.962,277.771a8.629,8.629,0,0,1,3.876,2.932,8.791,8.791,0,0,1,1.7,3.891,8.631,8.631,0,0,1-3.876-2.932A8.791,8.791,0,0,1,210.962,277.771Z" transform="translate(-78.184 -268.694)" fill="#1a7fc3"/>
      <path id="Path_463" data-name="Path 463" d="M341.926,478.613l.987-1.317-7.166-5.37a6.055,6.055,0,0,1-2.372-5.576l3.55-28.665a11.931,11.931,0,0,0-4.675-10.99l-7.81-5.852a6.986,6.986,0,0,0-9.768,1.4l-1.809,2.414,1.317.987,1.809-2.414a5.338,5.338,0,0,1,7.464-1.069l7.81,5.853a10.282,10.282,0,0,1,4.029,9.47l-3.549,28.665a7.7,7.7,0,0,0,3.019,7.1Z" transform="translate(-268.483 -321.497)" fill="#cfcce0"/>
      <path id="Path_464" data-name="Path 464" d="M97.9,375.8l-5.842-7.694,1.975-2.634,8.759,3.8,38.237,26.422-6.769,9.033Z" transform="translate(-27.01 -216.253)" fill="#cfcce0"/>
      <rect id="Rectangle_215" data-name="Rectangle 215" width="18.342" height="66.197" rx="7.272" transform="translate(14.678 160.246) rotate(-143.154)" fill="#e6e6e6"/>
      <path id="Path_465" data-name="Path 465" d="M402.641,494.389l1.058-1.411.212-.282a4.561,4.561,0,0,0,.915,6.385l7.378,5.529a4.561,4.561,0,0,0,6.385-.915l-.212.282-1.058,1.411a4.561,4.561,0,0,1-6.385.915l-7.378-5.529a4.561,4.561,0,0,1-.915-6.385Z" transform="translate(-399.906 -348.794)" opacity="0.2"/>
      <path id="Path_466" data-name="Path 466" d="M392.072,447.275c.064-.063.118-.114.12-.086C392.13,447.263,392.09,447.282,392.072,447.275Z" transform="translate(-367.452 -331.832)" fill="#7f77ff"/>
      <path id="Path_467" data-name="Path 467" d="M390.31,444.344a.17.17,0,0,1,.065-.11Z" transform="translate(-364.529 -330.735)" fill="#7f77ff"/>
      <path id="Path_468" data-name="Path 468" d="M403.834,462.861c.068.022-.063.168-.149.308Z" transform="translate(-386.398 -337.676)" fill="#7f77ff"/>
      <path id="Path_469" data-name="Path 469" d="M409.65,470.267l-.062.082a.571.571,0,0,1-.118.017Z" transform="translate(-395.825 -340.435)" fill="#7f77ff"/>
      <path id="Path_470" data-name="Path 470" d="M413.4,475.659a.308.308,0,0,0-.223.1.222.222,0,0,1-.074-.11C413.159,475.563,413.32,475.642,413.4,475.659Z" transform="translate(-401.859 -342.427)" fill="#7f77ff"/>
      <path id="Path_471" data-name="Path 471" d="M424.369,491.361l.034.06a.455.455,0,0,1-.07.071Z" transform="translate(-419.902 -348.297)" fill="#7f77ff"/>
      <path id="Path_472" data-name="Path 472" d="M386.893,439l-.008.016C386.807,439.09,386.845,439.045,386.893,439Z" transform="translate(-358.871 -328.785)" fill="#7f77ff"/>
      <path id="Path_473" data-name="Path 473" d="M354.1,449.637c.119-.422-.561.411-.332-.186C353.789,449.538,354.324,449.168,354.1,449.637Z" transform="translate(-305.357 -332.656)" fill="#7f77ff"/>
      <path id="Path_474" data-name="Path 474" d="M378.035,427.549a.26.26,0,0,1,.006.12C378.029,427.656,378.024,427.626,378.035,427.549Z" transform="translate(-344.495 -324.514)" fill="#7f77ff"/>
      <path id="Path_475" data-name="Path 475" d="M373.02,424.235a1,1,0,0,1,.259.234.176.176,0,0,1-.047-.016.572.572,0,0,0-.212-.217Z" transform="translate(-336.588 -323.281)" fill="#7f77ff"/>
      <path id="Path_476" data-name="Path 476" d="M369.007,428.487a.67.67,0,0,1-.074-.018l-.079-.083Z" transform="translate(-329.702 -324.827)" fill="#7f77ff"/>
      <path id="Path_477" data-name="Path 477" d="M348.847,466.1c.1.118.288.271.374.22l-.169-.3c.012-.014.023-.03.035-.045l-.033-.042,2.436-3.251-.064,0,.112-.069.309-.412c-.039-.009-.09,0-.163.076.125-.383.277-.215.358-.563,0-.042-.016-.037-.045-.016l.286-.252c-.088.025-.11-.16-.217.046.281-.626.8-.746.8-1.066l-.046.035c.469-.516.353-.236.514-.239l.26-.347-.067-.451.208.042c.052-.081.154-.241.072-.259.319-.207.03.1.253.007.137-.473.827-.968.646-1.234.216-.045-.175.42.2.087-.179-.309.386-.422.518-.849-.213,0-.38.375-.249-.053.381-.032.441-.694.7-.945.192.123.539-.561.957-.992a13.212,13.212,0,0,1,.839-1.466l-.04-.01c.249.052.557-.432.845-.736-.12-.069-.209-.042-.393.1l.236-.313a.847.847,0,0,0,.392-.291l-.2-.024a7.491,7.491,0,0,0,1.1-1.323c.1.045.088.342.224.376l.213-.284a.16.16,0,0,0-.185.044c.046-.042.188-.13.231-.25l-.287.139c.132-.283.193-.054.329-.258-.1-.07.038-.2-.062-.228-.047.043-.087.2-.182.247a1.638,1.638,0,0,0,.279-.688c.042.061.133.1.267-.052.32-.412-.012-.232.119-.513.145-.049.272-.369.426-.265.091-.123.038-.2.034-.274.227-.167.774-.994.749-.633l-.031.063.033-.03a23.481,23.481,0,0,0,1.606-2.186l-.051-.036a10.1,10.1,0,0,1,1.063-1.126c.093-.124.129-.36.03-.351a2.3,2.3,0,0,0,.625-.81c-.328.257.007-.168-.311.283.269-.448.26-.6.731-.947-.241.057.075-.433.261-.6l-.128.36a5.325,5.325,0,0,0,.457-.617l-.247-.018c.435-1,1.5-1.276,1.642-2.179.286-.138-.264.524.023.425a7,7,0,0,0,.428-1.119c.309-.606.619-.318.977-.926.006.116.114.3.484-.074.272-.409.111-.669-.122-.457-.075.09-.09.15-.067.161-.117.11-.267.257-.215.054l.1-.006c.085-.24.5-.774.3-.721.279-.254.193-.054.059.189.29-.567.586-.787.916-1.348-.029.107-.016.235.045.153.5-.814.363-.249.775-.744.128-.36-.3-.058.169-.518.175-.362-.108-.185-.251-.1a3.628,3.628,0,0,0,.766-1.223l-.234.212a2.4,2.4,0,0,0,.323-.373l.013.231c.088-.161.181-.285.129-.32.191-.092.112.264.442.045.085-.24.509-.543.4-.729-.4.652-.108-.187-.522.312a1.424,1.424,0,0,0,.273-.37c0-.035-.048,0-.087.029.3-.691.38-.135.831-.744-.147.01-.064-.267.03-.352-.181.246.061.228.3.055.222-.441.368-.384.513-.594l-.142.257c.148-.012.282-.215.513-.465-.052-.075-.232.21-.19.091.382-.184.348-.8.768-1.142.085-.24-.153-.144-.066-.346.468-.384.26-.6.726-1.024.013.232-.035.235.343-.025l-.693.75.565-.391c-.182.247-.463.461-.553.623.284-.175.235-.172.246.02.072-.47.6-.587.773-1.066l-.305-.21c.3-.682.929-.922,1.422-1.736l-.131.282c.194-.013.367-.455.6-.665-.116-.051-.037-.232-.021-.383.064.068.409-.559.658-.48l.123-.436c.376-.614.882-.589,1.374-1.315-.1.025-.1-.071-.119-.13s-.065-.075-.322.189c.233-.314.444-.632.462-.514a.548.548,0,0,1,.063-.11l.044-.056c.016-.017.036.031.056.046l.265.326a1.736,1.736,0,0,0,.5.5c.087.161.059.315.314.55.044.008.038-.049.038-.049-.011.077.275.378.007.313.809.241,1.514,1.466,2.228,1.655.368.387.823.841,1.186,1.161,0-.048.039-.048-.039-.1.58.347.078.541.746.929.426.094-.241-.341-.006-.245.341-.246.667.63,1.218.76l-.081-.1c.387.137.645.713,1.17,1.077,0,0,0-.048.034-.051a6.02,6.02,0,0,0,1.309,1.382c-.063-.24-.178-.23.011-.294.211.178-.218.165.2.52.2.033.563.2.706.084l-.418-.3c.342-.028.543.387.791.508l.026-.1c.633.471.513.676,1.237,1.125l-.114.015c.263.458.4.09.7.489l.248-.138a12.048,12.048,0,0,0,1.259,1.068A7.77,7.77,0,0,0,393,433.31a3.474,3.474,0,0,1,.956.72c-.094-.082-.2-.212-.32-.24a2.96,2.96,0,0,0,1.153.971c.044-.246.572-.008,1.211.3l.241.118.123.06c.04.021.1.035.052.077-.1.141-.193.28-.276.413a1.925,1.925,0,0,0-.31.692l-.4.457c-.089.1-.174.207-.256.315-.164.216-.317.443-.469.678-.3.469-.608.967-1,1.462-.031-.581-.229.288-.489,0-.193.217-.255.31-.253.347l.024-.058-.024.062h0l-.349.847c-.037.236.235-.172.287-.1-.361.531-.031.313-.2.714-.058-.152-.291.061-.469.385l.168-.518c-.7.6-.207.813-.911,1.416l.268-.156c-.335.329-1.025,1.371-1.544,1.55-.014.092.005.242.15.1a27.736,27.736,0,0,0-2.107,2.582l.125-.011c-.146.149-.357.183-.437.446.039.013.125-.011.072.069a2.11,2.11,0,0,0-.582.593l.225-.124c-.55.939-1.2,1.174-1.8,1.861.222.164-.216.9-.435,1.265l.04.011a24.345,24.345,0,0,1-2.252,2.443c-.194.759-1.37,2.038-1.933,3.07.067-.173-.19-.106-.336.043-.119.252-.606.489-.377.606l.054-.081c.075.314-.314.723-.571,1.078l-.308-.141c-.3,1.206-1.942,2.3-1.972,3.056-.232.172-.437.447-.667.616l.151.095a16.245,16.245,0,0,1-1.237,1.692l.217-.078c-.311.434-.814.233-1.118.621l.123.277a11.064,11.064,0,0,1-1.686,2.231c.04.011.118.035.217-.079-.258.355-.874,1.466-1.07,1.12.183.151-.558.783-.944,1.123l.187.042a1.938,1.938,0,0,0-.9.618c-.066.126.038.183.114.006-.208.43-.352.193-.618.7l.216-.1a.937.937,0,0,1-.566.462c-.238.2-.513.758-.429.91a.7.7,0,0,0-.511.383c.025.066.117.006.162-.025-.388.717-.881.837-1.076,1.384a.134.134,0,0,1,.027.138c.38-.515.682-.933.643-.9.129.1-.159.527.266.332a4.4,4.4,0,0,0-1.225,1.118.234.234,0,0,0,0,.087l.046-.031a.773.773,0,0,1-.212.239,2.537,2.537,0,0,1-.212.363c.071.128-.3.518-.448.728-.128-.123-.308.164-.235-.176-.014.04.046-.026.155-.159a.569.569,0,0,1,.081-.077l-.023,0,.394-.506a.885.885,0,0,0-.474.521c-.17.038-.351.085-.444.118-.015.43-.316,1.054-.252,1.221-.276.285-.567.647-.859.962a5.671,5.671,0,0,1-.448.435,1.641,1.641,0,0,1-.514.373.567.567,0,0,0-.162.279c-.025.092-.065.083-.11.108a.6.6,0,0,0,.142.063l.094-.1a.62.62,0,0,1,.16-.142c-.124.083-.208.387-.45.195l-.624-.254a2.1,2.1,0,0,1-.413-.209c-.09-.063-.148-.125-.152-.189-.568-.113.224.318-.494-.008l.073.105c-1.6-.241-2.071-1.512-3.775-1.924.119.032.177.049.217.027-1.828-.77-3.274-2.313-4.943-3.3-.466-.3-.4-.462-.577-.767l-.215.06-.273-.544c-.463-.672-1.332-.65-1.814-1.611l.185.009c-.273-.249-.716-.916-.788-.771a.229.229,0,0,0-.125-.241l-.082.056c-.155-.263-.3-.535-.447-.8-.5-.5-.244.342-.893-.453C348.935,466.73,348.707,466.024,348.847,466.1Zm3.371-4.44a.16.16,0,0,0-.005.054l.125-.167C352.3,461.581,352.26,461.615,352.218,461.658Zm15.216,12.652-.029,0a.219.219,0,0,0,.111,0c.123-.122.13-.189.115-.23-.051.063-.112.135-.2.228Z" transform="translate(-344.547 -322.891)" fill="#1a7fc3"/>
      <path id="Path_478" data-name="Path 478" d="M395.45,504.814a.459.459,0,0,0-.053.049,1.015,1.015,0,0,1,.03-.106l.081-.015Z" transform="translate(-372.852 -353.285)" fill="#7f77ff"/>
      <path id="Path_479" data-name="Path 479" d="M404.058,463.543a.136.136,0,0,0-.009.053.149.149,0,0,0,0-.033Z" transform="translate(-386.829 -337.929)" fill="#7f77ff"/>
      <path id="Path_480" data-name="Path 480" d="M415.942,479.8c.342-.8.018.23.521-.487l-.36.565C416.118,479.748,416.137,479.57,415.942,479.8Z" transform="translate(-406.694 -343.809)" fill="#7f77ff"/>
      <path id="Path_481" data-name="Path 481" d="M414.005,476.4c.186-.145.232-.18.119.071C413.884,476.738,414.048,476.408,414.005,476.4Z" transform="translate(-403.194 -342.679)" fill="#7f77ff"/>
      <path id="Path_482" data-name="Path 482" d="M399.925,457.389l-.15-.067C399.959,457.114,399.826,457.356,399.925,457.389Z" transform="translate(-380.016 -335.58)" fill="#7f77ff"/>
      <path id="Path_483" data-name="Path 483" d="M237.749,315.6l.324-.335-.233.251Z" transform="translate(-215.453 -197.543)" fill="#7f77ff"/>
      <path id="Path_484" data-name="Path 484" d="M369.687,427.6l-.194.09C369.38,427.54,369.5,427.35,369.687,427.6Z" transform="translate(-330.755 -324.489)" fill="#7f77ff"/>
      <path id="Path_485" data-name="Path 485" d="M355.775,438.684a3.785,3.785,0,0,1-.548-.266A.665.665,0,0,1,355.775,438.684Z" transform="translate(-307.921 -328.565)" fill="#7f77ff"/>
      <path id="Path_486" data-name="Path 486" d="M217.914,343.108l-.29.3.107-.16Z" transform="translate(-182.668 -207.918)" fill="#7f77ff"/>
      <path id="Path_487" data-name="Path 487" d="M275.592,396.58,274.45,429.5l-17.874,41.966s4.663,21.76-4.663,20.983-.777-21.76-.777-21.76l8.548-44.3,1.554-36.526Z" transform="translate(-160.195 -310.469)" fill="#a0616a"/>
      <path id="Path_488" data-name="Path 488" d="M102.724,226.4l-.427-2.936-3.458,1.382-10.88,17.1L110.5,253.6Z" transform="translate(6.089 -163.329)" fill="#cfcce0"/>
    </g>
  </g>
</svg>
