<svg xmlns="http://www.w3.org/2000/svg" width="200.126" height="27.512" viewBox="0 0 200.126 27.512">
  <g id="Group_1309" data-name="Group 1309" transform="translate(-55.026 -145.792)">
    <path id="Path_1287" data-name="Path 1287" d="M16.72-8.36c0,1.6-.95,2.356-2.812,2.356H9.576v-4.864H13.87C15.694-10.868,16.72-9.994,16.72-8.36Zm-.57-10.108c0,1.558-.988,2.318-2.812,2.318H9.576v-4.712h3.762C15.162-20.862,16.15-20.064,16.15-18.468ZM24.358-7.3a6.493,6.493,0,0,0-5.13-6.46,5.982,5.982,0,0,0,4.522-6.08c0-4.446-3.344-6.954-8.778-6.954H2.128V0H15.39C21.128,0,24.358-2.774,24.358-7.3ZM41.8-17.784c0,1.824-1.026,2.812-3.04,2.812H35.074v-5.586H38.76C40.774-20.558,41.8-19.456,41.8-17.784ZM27.626-26.79V0h7.448V-9.88h.8L41.192,0h8.322L43.472-10.45a7.777,7.777,0,0,0,5.89-7.752c0-4.788-3.344-8.588-9.994-8.588Zm51.68,13.3A13.385,13.385,0,0,0,65.588-27.208,13.438,13.438,0,0,0,51.832-13.49,13.47,13.47,0,0,0,65.588.266,13.439,13.439,0,0,0,79.306-13.49Zm-19.874,0c0-4.218,2.28-6.878,6.156-6.878,3.838,0,6.156,2.66,6.156,6.878,0,4.142-2.318,6.84-6.156,6.84C61.712-6.65,59.432-9.348,59.432-13.49Zm43.32,5.358c0-8.588-12.882-7.3-12.882-11.286a1.776,1.776,0,0,1,1.976-1.9,2.3,2.3,0,0,1,2.47,2.432h8.094c-.266-5.32-4.294-8.322-10.45-8.322-5.662,0-10.032,2.812-10.032,8.056-.114,9.31,12.882,7.3,12.92,11.59,0,1.254-1.026,1.938-2.356,1.938a2.536,2.536,0,0,1-2.7-2.7H81.852c.3,5.738,4.94,8.588,10.906,8.588C99.1.266,102.752-3.42,102.752-8.132Zm11.4,4.6c0-2.166-1.71-3.876-4.332-3.876-2.66,0-4.37,1.71-4.37,3.876S107.16.3,109.82.3C112.442.3,114.152-1.368,114.152-3.534Z" transform="translate(141 173)" fill="#1668a0"/>
    <path id="Path_1288" data-name="Path 1288" d="M7.524,0h9.158l3.762-16.416L24.13,0h9.158l6.574-26.79H31.806L28.69-8.626l-4.1-18.164h-8.17L12.2-8.474,9.082-26.79H1.026Zm52.63-26.79H43.016V0H60.154V-5.966h-9.69v-4.826h8.55v-5.662h-8.55v-4.37h9.69ZM78.432-8.36c0,1.6-.95,2.356-2.812,2.356H71.288v-4.864h4.294C77.406-10.868,78.432-9.994,78.432-8.36Zm-.57-10.108c0,1.558-.988,2.318-2.812,2.318H71.288v-4.712H75.05C76.874-20.862,77.862-20.064,77.862-18.468ZM86.07-7.3a6.493,6.493,0,0,0-5.13-6.46,5.982,5.982,0,0,0,4.522-6.08c0-4.446-3.344-6.954-8.778-6.954H63.84V0H77.1C82.84,0,86.07-2.774,86.07-7.3Z" transform="translate(54 173)" fill="#46b3e6"/>
  </g>
</svg>
