<svg xmlns="http://www.w3.org/2000/svg" width="29.427" height="20.348" viewBox="0 0 29.427 20.348">
  <g id="Group_663" data-name="Group 663" transform="translate(-246.121 -174.82)">
    <path id="Path_296" data-name="Path 296" d="M573.422,522.282l-7.616,7.748a.138.138,0,0,0,0,.2l5.343,5.682a.919.919,0,1,1-1.3,1.3l-5.315-5.661a.145.145,0,0,0-.2,0l-1.3,1.308a5.692,5.692,0,0,1-4.071,1.712,5.816,5.816,0,0,1-4.142-1.761l-1.244-1.272a.145.145,0,0,0-.2,0l-5.3,5.649a.919.919,0,1,1-1.3-1.3l5.323-5.669a.153.153,0,0,0,0-.2l-7.615-7.748a.14.14,0,0,0-.239.1v15.5a2.27,2.27,0,0,0,2.262,2.262h24.9a2.27,2.27,0,0,0,2.262-2.262V522.381a.14.14,0,0,0-.244-.1Z" transform="translate(-298.119 -344.965)" fill="#1a7fc3"/>
    <path id="Path_297" data-name="Path 297" d="M561.5,525.574a3.853,3.853,0,0,0,2.779-1.145l11.091-11.29a2.214,2.214,0,0,0-1.4-.509h-24.92a2.2,2.2,0,0,0-1.4.509l11.094,11.29A3.837,3.837,0,0,0,561.5,525.574Z" transform="translate(-300.662 -337.81)" fill="#1a7fc3"/>
  </g>
</svg>
