<svg xmlns="http://www.w3.org/2000/svg" width="30.711" height="30.713" viewBox="0 0 30.711 30.713">
  <path id="Path_373" data-name="Path 373" d="M815.992,379.3a25.528,25.528,0,0,0-5.393-3.6c-1.614-.775-2.208-.762-3.351.064-.951.674-1.567,1.325-2.659,1.085s-3.256-1.871-5.349-3.957-3.718-4.237-3.951-5.346.408-1.712,1.089-2.663c.822-1.143.846-1.736.064-3.351a25.861,25.861,0,0,0-3.607-5.393c-1.183-1.18-1.439-.92-2.087-.674a12.063,12.063,0,0,0-1.911,1.011,5.767,5.767,0,0,0-2.292,2.424c-.462.984-.984,2.811,1.7,7.594a42.37,42.37,0,0,0,7.449,9.934h0a42.431,42.431,0,0,0,9.967,7.463c4.78,2.7,6.61,2.161,7.594,1.7a5.659,5.659,0,0,0,2.42-2.292,11.9,11.9,0,0,0,1.011-1.911C816.912,380.735,817.175,380.473,815.992,379.3Z" transform="translate(-786.17 -355.249)" fill="#1a7fc3"/>
</svg>
