<svg xmlns="http://www.w3.org/2000/svg" width="337.411" height="276.063" viewBox="0 0 337.411 276.063">
  <g id="responsive" transform="translate(0 -46.545)">
    <g id="Group_1312" data-name="Group 1312" transform="translate(176.374 238.256)">
      <g id="Group_1311" data-name="Group 1311">
        <circle id="Ellipse_292" data-name="Ellipse 292" cx="7.668" cy="7.668" r="7.668" fill="#1668a0"/>
      </g>
    </g>
    <g id="Group_1314" data-name="Group 1314" transform="translate(46.011 284.266)">
      <g id="Group_1313" data-name="Group 1313">
        <circle id="Ellipse_293" data-name="Ellipse 293" cx="7.668" cy="7.668" r="7.668" fill="#1668a0"/>
      </g>
    </g>
    <g id="Group_1316" data-name="Group 1316" transform="translate(30.674 46.545)">
      <g id="Group_1315" data-name="Group 1315">
        <path id="Path_1292" data-name="Path 1292" d="M330.277,46.545H69.551A22.594,22.594,0,0,0,46.546,69.55v76.684a7.245,7.245,0,0,0,7.668,7.668,7.245,7.245,0,0,0,7.668-7.668V69.551a7.245,7.245,0,0,1,7.668-7.668H330.276a7.245,7.245,0,0,1,7.668,7.668V253.593a7.245,7.245,0,0,1-7.668,7.668H146.235a7.668,7.668,0,1,0,0,15.336h15.337V299.6a7.245,7.245,0,0,1-7.668,7.668h-7.668a7.668,7.668,0,1,0,0,15.336H253.593a7.668,7.668,0,1,0,0-15.336h-7.668a7.245,7.245,0,0,1-7.668-7.668V276.6h92.021a22.594,22.594,0,0,0,23.005-23.005V69.551A22.6,22.6,0,0,0,330.277,46.545Zm-154.9,260.726a22.682,22.682,0,0,0,1.534-7.668V276.6h46.01V299.6a22.7,22.7,0,0,0,1.534,7.668Z" transform="translate(-46.546 -46.545)" fill="#1668a0"/>
      </g>
    </g>
    <g id="Group_1318" data-name="Group 1318" transform="translate(122.695 215.25)">
      <g id="Group_1317" data-name="Group 1317">
        <path id="Path_1293" data-name="Path 1293" d="M362.555,302.545H193.85a7.668,7.668,0,0,0,0,15.336h168.7a7.668,7.668,0,0,0,0-15.336Z" transform="translate(-186.182 -302.545)" fill="#1668a0"/>
      </g>
    </g>
    <g id="Group_1320" data-name="Group 1320" transform="translate(0 169.24)">
      <g id="Group_1319" data-name="Group 1319" transform="translate(0 0)">
        <path id="Path_1294" data-name="Path 1294" d="M84.352,232.727H23.005A22.6,22.6,0,0,0,0,255.732V363.09a22.594,22.594,0,0,0,23.005,23.005H84.352a22.594,22.594,0,0,0,23.005-23.005V255.732A22.6,22.6,0,0,0,84.352,232.727ZM92.021,363.09a7.245,7.245,0,0,1-7.668,7.668H23.005a7.245,7.245,0,0,1-7.668-7.668V255.732a7.245,7.245,0,0,1,7.668-7.668H84.352a7.245,7.245,0,0,1,7.668,7.668Z" transform="translate(0 -232.727)" fill="#1668a0"/>
      </g>
    </g>
  </g>
</svg>
