<svg xmlns="http://www.w3.org/2000/svg" width="232.67" height="204.409" viewBox="0 0 232.67 204.409">
  <g id="Ebene_x0020_1" transform="translate(-1.629 -7.504)">
    <path id="Path_1318" data-name="Path 1318" d="M198.6,47.969,210.623,60,234.3,107.481,186.814,83.8l-11.6-11.6-46.42,48.1,75.825,73.254a4.809,4.809,0,0,1,.263,6.645,120.557,120.557,0,0,1-10.511,10.511,4.809,4.809,0,0,1-6.645-.262l-73-75.567L41.784,210.442a4.809,4.809,0,0,1-6.646.264A120.559,120.559,0,0,1,24.63,200.2a4.809,4.809,0,0,1,.264-6.646l75.814-73.174L50.493,68.4a147.643,147.643,0,0,0-22.7,34.07L1.629,79.7A180.668,180.668,0,0,1,73.795,7.5L96.551,33.669A147.161,147.161,0,0,0,62.567,56.323L114.8,106.78l48.339-46.654L135.8,32.785,159.6,8.977,187.366,36.74l3.458-3.337,11.112,11.107-3.34,3.461Z" transform="translate(0 0)" fill="#1668a0" fill-rule="evenodd"/>
  </g>
</svg>
