<svg xmlns="http://www.w3.org/2000/svg" width="510.212" height="511.999" viewBox="0 0 510.212 511.999">
  <g id="support" transform="translate(-0.894)">
    <path id="Path_1312" data-name="Path 1312" d="M255.107,65.06a10.071,10.071,0,0,0,10.071-10.071V10.071a10.071,10.071,0,1,0-20.142,0V54.989A10.072,10.072,0,0,0,255.107,65.06Z" fill="#1668a0"/>
    <path id="Path_1313" data-name="Path 1313" d="M501.28,345.985l-17.791-17.741a33.725,33.725,0,0,0-39.905-5.694l-33.526-33.486,1.633-1.631a34.954,34.954,0,0,0,0-49.355,34.571,34.571,0,0,0-17.531-9.48,35.171,35.171,0,0,0,1.389-9.8A34.874,34.874,0,0,0,367.8,184.642a35.166,35.166,0,0,0,1.389-9.8A34.841,34.841,0,0,0,341.455,140.7,34.852,34.852,0,0,0,304.2,96.22L237.77,83.645c-10.132-1.922-22.785-3.193-30.772,4.092a18.19,18.19,0,0,0-1.524,1.578,35.022,35.022,0,0,0-36.745,8.08,34.648,34.648,0,0,0-10.2,24.689,35.214,35.214,0,0,0,1.386,9.8A34.882,34.882,0,0,0,132.178,166a35.111,35.111,0,0,0,1.39,9.826,34.921,34.921,0,0,0-21.647,53.89,34.9,34.9,0,0,0-13.406,57.734l1.627,1.62-33.53,33.469a33.672,33.672,0,0,0-38.1,6.6L10.713,346.9a33.643,33.643,0,0,0,0,47.509L32.93,416.6a10.071,10.071,0,1,0,14.234-14.25l-22.217-22.19a13.5,13.5,0,0,1-.006-19l17.8-17.753a13.484,13.484,0,0,1,16.426-2.014,10.155,10.155,0,0,0,1.267,1.55,10.023,10.023,0,0,0,2.894,2.013L165.424,446.892a9.92,9.92,0,0,0,4.855,4.906,13.478,13.478,0,0,1-.559,18.389l-17.785,17.764a13.528,13.528,0,0,1-19.042.016l-22.217-22.219A10.071,10.071,0,1,0,96.434,479.99l22.233,22.235a33.719,33.719,0,0,0,47.492-.011l17.8-17.775a33.674,33.674,0,0,0,4.715-41.591l37.736-37.69.121-.123c4.321-4.467,16.354-3.631,27.991-2.823,8.268.575,17.486,1.214,26.492.176l41.324,41.275a33.657,33.657,0,0,0,5.713,39.87l17.8,17.775a33.674,33.674,0,0,0,47.5,0L501.287,393.5a33.64,33.64,0,0,0-.007-47.513ZM234.02,103.435l43.687,8.269-26.149,26.139a63.486,63.486,0,0,1-15.671-11.388c-8.325-7.964-14.28-17.159-14.822-22.894a.027.027,0,0,1,0-.009v0a8.8,8.8,0,0,1-.044-.992c1.317-.32,4.815-.675,13,.878Zm-51.058,8.211a14.855,14.855,0,0,1,18.793-1.781c3.267,13.7,14.952,26.113,20.209,31.143,3.9,3.728,16.4,14.9,29.015,17.977a14.782,14.782,0,0,1-22.594,18.877h0l-.005-.005L182.961,132.52a14.83,14.83,0,0,1,0-20.874Zm-26.316,43.947a14.854,14.854,0,0,1,20.927.014l36.572,36.5a14.8,14.8,0,0,1-20.95,20.914h0L165.449,185.28c-.043-.043-.09-.083-.134-.127l-8.68-8.676a14.779,14.779,0,0,1,.011-20.884ZM130.28,199.531a14.9,14.9,0,0,1,20.859-.07l27.83,27.817a14.782,14.782,0,0,1-20.945,20.864l-10.089-10.077a.046.046,0,0,0-.007-.007l-17.647-17.626a14.816,14.816,0,0,1,0-20.9Zm-17.54,52.786a14.887,14.887,0,0,1,20.957,0L143.8,262.4a14.782,14.782,0,0,1-20.954,20.855L121.581,282c-.017-.017-.03-.035-.046-.051l-.058-.052L112.75,273.2a14.79,14.79,0,0,1-.01-20.887ZM317.974,366.775a10.07,10.07,0,0,0-14.242-.009l-8.96,8.949c-8.514,8.514-23.941,7.442-38.86,6.407-16.2-1.126-32.954-2.288-43.795,8.842l-37.1,37.05L82.259,335.387l32.828-32.769a34.926,34.926,0,0,0,53.162-29.785c0-.087-.006-.173-.006-.26.087,0,.174.006.261.006a34.837,34.837,0,0,0,34.913-34.872c0-.087-.006-.173-.006-.26.088,0,.176.006.265.006a34.8,34.8,0,0,0,34.913-35.138c.09,0,.18.006.27.006a34.935,34.935,0,0,0,29.809-53.1l28.773-28.761A14.775,14.775,0,0,1,305,116.433c.3-.032.6-.08.889-.138a14.758,14.758,0,0,1,12.536,25.048l-8.763,8.727c-.029.029-.06.055-.089.084L299.48,160.23a10.071,10.071,0,1,0,14.233,14.251l8.8-8.786.006-.006,1.33-1.325a14.833,14.833,0,0,1,20.9.051,14.779,14.779,0,0,1-.022,20.875l-8.813,8.831,0,0-10.092,10.051a10.071,10.071,0,0,0,14.213,14.271l10.138-10.1a14.781,14.781,0,0,1,20.918,20.89l-17.57,17.577a10.07,10.07,0,1,0,14.244,14.239l8.611-8.614c.049-.047.1-.088.151-.137a14.781,14.781,0,0,1,20.923,20.885l-8.755,8.745-.01.009-.009.01-13.9,13.879a10.071,10.071,0,0,0,14.234,14.252l6.8-6.789,32.577,32.539-92.755,92.642-33.234-33.194a39.6,39.6,0,0,0,6.615-5.323l8.955-8.944a10.067,10.067,0,0,0,.01-14.241Zm169.078,12.472L379.111,487.057a13.535,13.535,0,0,1-19.035,0l-17.8-17.775a13.467,13.467,0,0,1,0-18.978L450.22,342.493a13.535,13.535,0,0,1,19.042.006l17.791,17.741a13.5,13.5,0,0,1,0,19.007Z" fill="#1668a0"/>
    <path id="Path_1314" data-name="Path 1314" d="M121.378,56.57a10.071,10.071,0,0,0,14.228-14.257L98.908,5.688A10.071,10.071,0,0,0,84.68,19.944Z" fill="#1668a0"/>
    <path id="Path_1315" data-name="Path 1315" d="M381.722,59.512a10.043,10.043,0,0,0,7.117-2.945l36.67-36.626a10.071,10.071,0,0,0-14.234-14.25L374.6,42.317a10.07,10.07,0,0,0,7.117,17.195Z" fill="#1668a0"/>
    <path id="Path_1316" data-name="Path 1316" d="M62.819,433.2a10.071,10.071,0,0,0,.122,14.242l.029.028a10.071,10.071,0,1,0-.151-14.27Z" fill="#1668a0"/>
    <path id="Path_1317" data-name="Path 1317" d="M342.606,352.267a10.073,10.073,0,1,0-4.525-19.068l-.056.028a10.065,10.065,0,0,0,4.581,19.04Z" fill="#1668a0"/>
  </g>
</svg>
